<?xml version="1.0" encoding="UTF-8" standalone="no"?>
<svg
   xmlns:dc="http://purl.org/dc/elements/1.1/"
   xmlns:cc="http://creativecommons.org/ns#"
   xmlns:rdf="http://www.w3.org/1999/02/22-rdf-syntax-ns#"
   xmlns:svg="http://www.w3.org/2000/svg"
   xmlns="http://www.w3.org/2000/svg"
   id="svg60"
   xml:space="preserve"
   viewBox="0 0 1024 768"
   y="0px"
   x="0px"
   version="1.1"><metadata
     id="metadata66"><rdf:RDF><cc:Work
         rdf:about=""><dc:format>image/svg+xml</dc:format><dc:type
           rdf:resource="http://purl.org/dc/dcmitype/StillImage" /></cc:Work></rdf:RDF></metadata><defs
     id="defs64" /><g
     transform="translate(-55.468,17.791)"
     id="logo-group"><path
       stroke-miterlimit="2"
       d="m 342.69,432.37 q -0.612,0.672 -1.176,1.128 -0.552,0.456 -1.128,0.732 -0.576,0.276 -1.212,0.384 -0.624,0.12 -1.38,0.12 -1.068,0 -1.92,-0.36 -0.84,-0.372 -1.428,-1.044 -0.588,-0.672 -0.9,-1.62 -0.312,-0.948 -0.312,-2.112 0,-0.996 0.216,-1.944 0.216,-0.948 0.624,-1.788 0.408,-0.84 0.984,-1.536 0.576,-0.696 1.296,-1.2 0.72,-0.504 1.56,-0.78 0.852,-0.288 1.8,-0.288 1.224,0 2.076,0.432 0.864,0.432 1.524,1.296 l -0.948,1.128 q -0.096,0.108 -0.24,0.204 -0.144,0.084 -0.312,0.084 -0.204,0 -0.372,-0.12 -0.156,-0.132 -0.384,-0.276 -0.216,-0.144 -0.552,-0.264 -0.324,-0.132 -0.852,-0.132 -0.684,0 -1.308,0.372 -0.624,0.372 -1.104,1.056 -0.48,0.684 -0.768,1.644 -0.276,0.96 -0.276,2.124 0,1.356 0.6,2.1 0.6,0.732 1.632,0.732 0.456,0 0.804,-0.096 0.348,-0.096 0.612,-0.228 0.276,-0.144 0.48,-0.3 0.204,-0.168 0.384,-0.3 0.18,-0.144 0.336,-0.24 0.168,-0.096 0.36,-0.096 0.156,0 0.288,0.084 0.144,0.072 0.252,0.192 z"
       style="font-variant-ligatures:none;fill:#ed952f;stroke-width:0;stroke-miterlimit:2"
       id="path13621" /><path
       stroke-miterlimit="2"
       d="m 354.29,424.19 q -0.168,-0.012 -0.324,-0.012 -0.144,-0.012 -0.288,-0.012 -0.996,0 -1.848,0.456 -0.852,0.456 -1.476,1.236 -0.612,0.768 -0.972,1.8 -0.348,1.02 -0.348,2.16 0,1.296 0.408,1.896 0.408,0.6 1.116,0.6 0.492,0 0.96,-0.336 0.48,-0.348 0.9,-0.936 0.432,-0.6 0.78,-1.404 0.36,-0.804 0.624,-1.728 z m -0.816,7.8 q -0.816,1.26 -1.848,2.004 -1.02,0.744 -2.232,0.744 -0.696,0 -1.308,-0.276 -0.6,-0.276 -1.056,-0.816 -0.444,-0.552 -0.708,-1.368 -0.252,-0.828 -0.252,-1.932 0,-1.104 0.276,-2.148 0.276,-1.044 0.78,-1.956 0.516,-0.924 1.236,-1.692 0.72,-0.768 1.608,-1.32 0.9,-0.552 1.932,-0.852 1.044,-0.312 2.196,-0.312 0.828,0 1.656,0.12 0.84,0.12 1.632,0.432 l -1.476,11.94 h -1.572 q -0.564,0 -0.768,-0.276 -0.192,-0.288 -0.192,-0.708 z"
       style="font-variant-ligatures:none;fill:#ed952f;stroke-width:0;stroke-miterlimit:2"
       id="path13623" /><path
       stroke-miterlimit="2"
       d="m 360.94,434.56 2.16,-17.832 h 2.928 l -2.172,17.832 z"
       style="font-variant-ligatures:none;fill:#ed952f;stroke-width:0;stroke-miterlimit:2"
       id="path13625" /><path
       stroke-miterlimit="2"
       d="m 378.36,432.37 q -0.612,0.672 -1.176,1.128 -0.552,0.456 -1.128,0.732 -0.576,0.276 -1.212,0.384 -0.624,0.12 -1.38,0.12 -1.068,0 -1.92,-0.36 -0.84,-0.372 -1.428,-1.044 -0.588,-0.672 -0.9,-1.62 -0.312,-0.948 -0.312,-2.112 0,-0.996 0.216,-1.944 0.216,-0.948 0.624,-1.788 0.408,-0.84 0.984,-1.536 0.576,-0.696 1.296,-1.2 0.72,-0.504 1.56,-0.78 0.852,-0.288 1.8,-0.288 1.224,0 2.076,0.432 0.864,0.432 1.524,1.296 l -0.948,1.128 q -0.096,0.108 -0.24,0.204 -0.144,0.084 -0.312,0.084 -0.204,0 -0.372,-0.12 -0.156,-0.132 -0.384,-0.276 -0.216,-0.144 -0.552,-0.264 -0.324,-0.132 -0.852,-0.132 -0.684,0 -1.308,0.372 -0.624,0.372 -1.104,1.056 -0.48,0.684 -0.768,1.644 -0.276,0.96 -0.276,2.124 0,1.356 0.6,2.1 0.6,0.732 1.632,0.732 0.456,0 0.804,-0.096 0.348,-0.096 0.612,-0.228 0.276,-0.144 0.48,-0.3 0.204,-0.168 0.384,-0.3 0.18,-0.144 0.336,-0.24 0.168,-0.096 0.36,-0.096 0.156,0 0.288,0.084 0.144,0.072 0.252,0.192 z"
       style="font-variant-ligatures:none;fill:#ed952f;stroke-width:0;stroke-miterlimit:2"
       id="path13627" /><path
       stroke-miterlimit="2"
       d="m 393.72,422.25 -1.488,12.312 h -1.5 q -1.056,0 -1.056,-1.02 l 0.072,-1.416 q -0.936,1.32 -2.052,1.968 -1.104,0.648 -2.292,0.648 -0.768,0 -1.38,-0.312 -0.612,-0.312 -1.008,-0.9 -0.396,-0.6 -0.564,-1.476 -0.156,-0.876 -0.012,-1.992 l 0.924,-7.812 h 2.964 l -0.924,7.812 q -0.156,1.212 0.12,1.74 0.276,0.516 1.008,0.516 0.48,0 0.972,-0.264 0.504,-0.264 0.972,-0.756 0.468,-0.492 0.864,-1.176 0.396,-0.696 0.66,-1.548 l 0.756,-6.324 z"
       style="font-variant-ligatures:none;fill:#ed952f;stroke-width:0;stroke-miterlimit:2"
       id="path13629" /><path
       stroke-miterlimit="2"
       d="m 397.26,434.56 2.16,-17.832 h 2.928 l -2.172,17.832 z"
       style="font-variant-ligatures:none;fill:#ed952f;stroke-width:0;stroke-miterlimit:2"
       id="path13631" /><path
       stroke-miterlimit="2"
       d="m 413.36,424.19 q -0.168,-0.012 -0.324,-0.012 -0.144,-0.012 -0.288,-0.012 -0.996,0 -1.848,0.456 -0.852,0.456 -1.476,1.236 -0.612,0.768 -0.972,1.8 -0.348,1.02 -0.348,2.16 0,1.296 0.408,1.896 0.408,0.6 1.116,0.6 0.492,0 0.96,-0.336 0.48,-0.348 0.9,-0.936 0.432,-0.6 0.78,-1.404 0.36,-0.804 0.624,-1.728 z m -0.816,7.8 q -0.816,1.26 -1.848,2.004 -1.02,0.744 -2.232,0.744 -0.696,0 -1.308,-0.276 -0.6,-0.276 -1.056,-0.816 -0.444,-0.552 -0.708,-1.368 -0.252,-0.828 -0.252,-1.932 0,-1.104 0.276,-2.148 0.276,-1.044 0.78,-1.956 0.516,-0.924 1.236,-1.692 0.72,-0.768 1.608,-1.32 0.9,-0.552 1.932,-0.852 1.044,-0.312 2.196,-0.312 0.828,0 1.656,0.12 0.84,0.12 1.632,0.432 l -1.476,11.94 h -1.572 q -0.564,0 -0.768,-0.276 -0.192,-0.288 -0.192,-0.708 z"
       style="font-variant-ligatures:none;fill:#ed952f;stroke-width:0;stroke-miterlimit:2"
       id="path13633" /><path
       stroke-miterlimit="2"
       d="m 421.01,432.05 q 0,-0.084 0,-0.192 0,-0.12 0.012,-0.336 0.024,-0.228 0.06,-0.588 0.048,-0.372 0.12,-0.948 l 0.684,-5.52 h -1.164 q -0.216,0 -0.36,-0.156 -0.132,-0.156 -0.084,-0.468 l 0.132,-1.176 1.872,-0.324 0.984,-3.36 q 0.084,-0.24 0.252,-0.372 0.168,-0.132 0.42,-0.132 h 1.584 l -0.48,3.876 h 2.976 l -0.252,2.112 h -2.988 l -0.66,5.364 q -0.06,0.492 -0.096,0.78 -0.036,0.288 -0.06,0.456 -0.012,0.156 -0.012,0.228 0,0.06 0,0.084 0,0.456 0.216,0.72 0.228,0.264 0.636,0.264 0.252,0 0.432,-0.06 0.18,-0.072 0.312,-0.144 0.132,-0.072 0.24,-0.132 0.108,-0.072 0.204,-0.072 0.132,0 0.204,0.072 0.072,0.06 0.132,0.192 l 0.636,1.44 q -0.66,0.54 -1.464,0.816 -0.792,0.276 -1.62,0.276 -1.308,0 -2.076,-0.708 -0.756,-0.708 -0.792,-1.992 z"
       style="font-variant-ligatures:none;fill:#ed952f;stroke-width:0;stroke-miterlimit:2"
       id="path13635" /><path
       stroke-miterlimit="2"
       d="m 435.49,422.25 -1.476,12.312 h -2.916 l 1.476,-12.312 z m 0.756,-3.588 q 0,0.384 -0.168,0.72 -0.156,0.336 -0.42,0.588 -0.264,0.252 -0.6,0.408 -0.336,0.144 -0.696,0.144 -0.348,0 -0.672,-0.144 -0.324,-0.156 -0.576,-0.408 -0.252,-0.252 -0.408,-0.588 -0.144,-0.336 -0.144,-0.72 0,-0.384 0.156,-0.732 0.156,-0.348 0.408,-0.6 0.252,-0.264 0.576,-0.408 0.336,-0.156 0.684,-0.156 0.36,0 0.696,0.156 0.336,0.144 0.588,0.396 0.264,0.252 0.42,0.6 0.156,0.348 0.156,0.744 z"
       style="font-variant-ligatures:none;fill:#ed952f;stroke-width:0;stroke-miterlimit:2"
       id="path13637" /><path
       stroke-miterlimit="2"
       d="m 442.99,424.79 q 0.936,-1.38 2.076,-2.052 1.14,-0.684 2.352,-0.684 0.768,0 1.38,0.312 0.612,0.312 1.008,0.912 0.396,0.588 0.552,1.464 0.168,0.864 0.024,1.98 l -0.924,7.836 h -2.964 l 0.924,-7.836 q 0.156,-1.2 -0.12,-1.716 -0.276,-0.528 -1.008,-0.528 -0.492,0 -1.008,0.288 -0.516,0.276 -0.996,0.804 -0.48,0.516 -0.888,1.248 -0.396,0.72 -0.648,1.62 l -0.684,6.12 h -2.964 l 1.476,-12.324 h 1.5 q 0.468,0 0.72,0.228 0.264,0.228 0.264,0.732 z"
       style="font-variant-ligatures:none;fill:#ed952f;stroke-width:0;stroke-miterlimit:2"
       id="path13639" /><path
       stroke-miterlimit="2"
       d="m 458.26,436.83 q 0.672,0 1.224,-0.168 0.552,-0.168 0.948,-0.468 0.396,-0.3 0.612,-0.708 0.216,-0.408 0.216,-0.876 0,-0.168 -0.024,-0.324 -0.012,-0.168 -0.036,-0.312 -1.416,-0.24 -2.424,-0.204 -1.008,0.036 -1.644,0.252 -0.636,0.216 -0.936,0.576 -0.3,0.36 -0.3,0.768 0,0.72 0.576,1.092 0.588,0.372 1.788,0.372 z m 1.068,-8.04 q 0.54,0 0.948,-0.252 0.408,-0.252 0.684,-0.66 0.288,-0.408 0.432,-0.912 0.144,-0.516 0.156,-1.044 0,-0.9 -0.432,-1.38 -0.42,-0.48 -1.224,-0.48 -0.54,0 -0.948,0.24 -0.408,0.228 -0.684,0.624 -0.276,0.384 -0.42,0.888 -0.132,0.504 -0.132,1.044 0,0.924 0.42,1.428 0.42,0.504 1.2,0.504 z m 6.78,-6.096 -0.132,0.96 q -0.084,0.576 -0.588,0.768 l -1.26,0.324 q 0.06,0.24 0.084,0.516 0.036,0.264 0.036,0.552 0,0.552 -0.12,0.996 -0.12,0.432 -0.3,0.804 -0.168,0.372 -0.372,0.708 -0.204,0.324 -0.384,0.672 -0.168,0.336 -0.288,0.72 -0.12,0.372 -0.12,0.828 0,0.492 0.204,0.912 0.204,0.408 0.444,0.84 0.24,0.432 0.444,0.924 0.204,0.492 0.204,1.14 -0.012,0.912 -0.42,1.728 -0.408,0.828 -1.176,1.44 -0.756,0.624 -1.86,0.984 -1.104,0.36 -2.496,0.36 -1.128,0 -2.04,-0.24 -0.912,-0.228 -1.548,-0.648 -0.636,-0.42 -0.984,-0.996 -0.348,-0.564 -0.348,-1.248 0,-0.84 0.36,-1.464 0.36,-0.624 0.96,-1.044 0.6,-0.432 1.38,-0.684 0.78,-0.252 1.62,-0.36 0.84,-0.108 1.68,-0.084 0.84,0.024 1.56,0.144 -0.108,-0.36 -0.108,-0.78 0,-0.696 0.384,-1.536 -0.456,0.312 -1.044,0.48 -0.576,0.168 -1.392,0.168 -0.696,0 -1.332,-0.228 -0.624,-0.228 -1.104,-0.696 -0.48,-0.468 -0.768,-1.164 -0.276,-0.708 -0.276,-1.644 0,-0.9 0.336,-1.752 0.336,-0.864 0.996,-1.536 0.66,-0.684 1.632,-1.092 0.972,-0.408 2.256,-0.408 0.684,0 1.296,0.156 0.624,0.156 1.14,0.48 z"
       style="font-variant-ligatures:none;fill:#ed952f;stroke-width:0;stroke-miterlimit:2"
       id="path13641" /><path
       stroke-miterlimit="2"
       d="m 485.16,422.25 -8.136,15.72 q -0.168,0.312 -0.396,0.456 -0.228,0.156 -0.564,0.156 h -2.196 l 2.736,-4.968 -3.108,-11.364 h 2.484 q 0.324,0 0.48,0.168 0.168,0.156 0.228,0.384 l 1.512,6.384 q 0.12,0.612 0.18,1.224 0.132,-0.312 0.264,-0.612 0.144,-0.312 0.288,-0.624 l 3.036,-6.384 q 0.12,-0.24 0.348,-0.384 0.228,-0.156 0.468,-0.156 z"
       style="font-variant-ligatures:none;fill:#ed952f;stroke-width:0;stroke-miterlimit:2"
       id="path13643" /><path
       stroke-miterlimit="2"
       d="m 492.06,432.46 q 0.744,0 1.344,-0.42 0.6,-0.432 1.02,-1.14 0.42,-0.72 0.648,-1.668 0.228,-0.948 0.228,-1.992 0,-1.5 -0.504,-2.196 -0.504,-0.708 -1.536,-0.708 -0.744,0 -1.356,0.42 -0.6,0.42 -1.02,1.14 -0.42,0.708 -0.648,1.656 -0.228,0.948 -0.228,2.004 0,1.5 0.504,2.208 0.504,0.696 1.548,0.696 z m -0.276,2.28 q -1.02,0 -1.884,-0.336 -0.864,-0.348 -1.5,-1.008 -0.636,-0.66 -0.996,-1.62 -0.36,-0.96 -0.36,-2.196 0,-1.596 0.516,-2.976 0.516,-1.38 1.392,-2.388 0.888,-1.008 2.064,-1.584 1.176,-0.576 2.508,-0.576 1.02,0 1.884,0.348 0.876,0.336 1.5,0.996 0.636,0.66 0.996,1.62 0.36,0.96 0.36,2.196 0,1.584 -0.516,2.964 -0.516,1.368 -1.404,2.388 -0.876,1.008 -2.052,1.596 -1.176,0.576 -2.508,0.576 z"
       style="font-variant-ligatures:none;fill:#ed952f;stroke-width:0;stroke-miterlimit:2"
       id="path13645" /><path
       stroke-miterlimit="2"
       d="m 513.53,422.25 -1.488,12.312 h -1.5 q -1.056,0 -1.056,-1.02 l 0.072,-1.416 q -0.936,1.32 -2.052,1.968 -1.104,0.648 -2.292,0.648 -0.768,0 -1.38,-0.312 -0.612,-0.312 -1.008,-0.9 -0.396,-0.6 -0.564,-1.476 -0.156,-0.876 -0.012,-1.992 l 0.924,-7.812 h 2.964 l -0.924,7.812 q -0.156,1.212 0.12,1.74 0.276,0.516 1.008,0.516 0.48,0 0.972,-0.264 0.504,-0.264 0.972,-0.756 0.468,-0.492 0.864,-1.176 0.396,-0.696 0.66,-1.548 l 0.756,-6.324 z"
       style="font-variant-ligatures:none;fill:#ed952f;stroke-width:0;stroke-miterlimit:2"
       id="path13647" /><path
       stroke-miterlimit="2"
       d="m 520.94,425.2 q 0.468,-0.912 0.996,-1.56 0.54,-0.66 1.116,-1.02 0.576,-0.372 1.188,-0.432 0.612,-0.072 1.224,0.192 l -0.54,2.832 q -1.464,-0.612 -2.568,0.3 -1.092,0.912 -1.752,3.588 l -0.66,5.46 h -2.904 l 1.488,-12.324 h 1.512 q 0.468,0 0.72,0.228 0.264,0.228 0.264,0.732 z"
       style="font-variant-ligatures:none;fill:#ed952f;stroke-width:0;stroke-miterlimit:2"
       id="path13649" /><path
       stroke-miterlimit="2"
       d="m 533.55,432.05 q 0,-0.084 0,-0.192 0,-0.12 0.012,-0.336 0.024,-0.228 0.06,-0.588 0.048,-0.372 0.12,-0.948 l 0.684,-5.52 h -1.164 q -0.216,0 -0.36,-0.156 -0.132,-0.156 -0.084,-0.468 l 0.132,-1.176 1.872,-0.324 0.984,-3.36 q 0.084,-0.24 0.252,-0.372 0.168,-0.132 0.42,-0.132 h 1.584 l -0.48,3.876 h 2.976 l -0.252,2.112 h -2.988 l -0.66,5.364 q -0.06,0.492 -0.096,0.78 -0.036,0.288 -0.06,0.456 -0.012,0.156 -0.012,0.228 0,0.06 0,0.084 0,0.456 0.216,0.72 0.228,0.264 0.636,0.264 0.252,0 0.432,-0.06 0.18,-0.072 0.312,-0.144 0.132,-0.072 0.24,-0.132 0.108,-0.072 0.204,-0.072 0.132,0 0.204,0.072 0.072,0.06 0.132,0.192 l 0.636,1.44 q -0.66,0.54 -1.464,0.816 -0.792,0.276 -1.62,0.276 -1.308,0 -2.076,-0.708 -0.756,-0.708 -0.792,-1.992 z"
       style="font-variant-ligatures:none;fill:#ed952f;stroke-width:0;stroke-miterlimit:2"
       id="path13651" /><path
       stroke-miterlimit="2"
       d="m 551.45,424.19 q -0.168,-0.012 -0.324,-0.012 -0.144,-0.012 -0.288,-0.012 -0.996,0 -1.848,0.456 -0.852,0.456 -1.476,1.236 -0.612,0.768 -0.972,1.8 -0.348,1.02 -0.348,2.16 0,1.296 0.408,1.896 0.408,0.6 1.116,0.6 0.492,0 0.96,-0.336 0.48,-0.348 0.9,-0.936 0.432,-0.6 0.78,-1.404 0.36,-0.804 0.624,-1.728 z m -0.816,7.8 q -0.816,1.26 -1.848,2.004 -1.02,0.744 -2.232,0.744 -0.696,0 -1.308,-0.276 -0.6,-0.276 -1.056,-0.816 -0.444,-0.552 -0.708,-1.368 -0.252,-0.828 -0.252,-1.932 0,-1.104 0.276,-2.148 0.276,-1.044 0.78,-1.956 0.516,-0.924 1.236,-1.692 0.72,-0.768 1.608,-1.32 0.9,-0.552 1.932,-0.852 1.044,-0.312 2.196,-0.312 0.828,0 1.656,0.12 0.84,0.12 1.632,0.432 l -1.476,11.94 h -1.572 q -0.564,0 -0.768,-0.276 -0.192,-0.288 -0.192,-0.708 z"
       style="font-variant-ligatures:none;fill:#ed952f;stroke-width:0;stroke-miterlimit:2"
       id="path13653" /><path
       stroke-miterlimit="2"
       d="m 565.22,427.91 3.156,6.648 h -2.688 q -0.3,0 -0.48,-0.156 -0.168,-0.168 -0.264,-0.384 l -1.896,-4.332 q -0.06,0.144 -0.132,0.276 -0.06,0.12 -0.144,0.24 l -2.736,3.816 q -0.156,0.204 -0.348,0.372 -0.18,0.168 -0.468,0.168 h -2.604 l 4.884,-6.648 -2.844,-5.664 h 2.688 q 0.3,0 0.432,0.084 0.132,0.084 0.228,0.288 l 1.68,3.66 q 0.072,-0.144 0.156,-0.288 0.084,-0.144 0.192,-0.3 l 2.172,-3.024 q 0.264,-0.42 0.648,-0.42 h 2.688 z"
       style="font-variant-ligatures:none;fill:#ed952f;stroke-width:0;stroke-miterlimit:2"
       id="path13655" /><path
       stroke-miterlimit="2"
       d="m 577.27,434.56 1.488,-12.324 h 1.512 q 0.468,0 0.72,0.228 0.264,0.228 0.264,0.732 l -0.06,1.356 q 0.828,-1.26 1.8,-1.872 0.972,-0.624 2.028,-0.624 1.128,0 1.788,0.756 0.66,0.756 0.768,2.184 0.864,-1.512 1.908,-2.22 1.056,-0.72 2.292,-0.72 0.78,0 1.368,0.312 0.588,0.312 0.96,0.912 0.372,0.588 0.504,1.464 0.132,0.864 -0.012,1.98 l -0.924,7.836 h -2.928 l 0.924,-7.836 q 0.156,-1.2 -0.072,-1.716 -0.216,-0.528 -0.888,-0.528 -0.456,0 -0.888,0.24 -0.432,0.24 -0.828,0.696 -0.384,0.456 -0.72,1.116 -0.324,0.66 -0.576,1.488 l -0.768,6.54 h -2.928 l 0.936,-7.836 q 0.144,-1.2 -0.06,-1.716 -0.204,-0.528 -0.888,-0.528 -0.48,0 -0.924,0.252 -0.432,0.252 -0.828,0.732 -0.384,0.468 -0.72,1.152 -0.324,0.672 -0.576,1.512 l -0.768,6.432 z"
       style="font-variant-ligatures:none;fill:#ed952f;stroke-width:0;stroke-miterlimit:2"
       id="path13657" /><path
       stroke-miterlimit="2"
       d="m 606.72,424.19 q -0.168,-0.012 -0.324,-0.012 -0.144,-0.012 -0.288,-0.012 -0.996,0 -1.848,0.456 -0.852,0.456 -1.476,1.236 -0.612,0.768 -0.972,1.8 -0.348,1.02 -0.348,2.16 0,1.296 0.408,1.896 0.408,0.6 1.116,0.6 0.492,0 0.96,-0.336 0.48,-0.348 0.9,-0.936 0.432,-0.6 0.78,-1.404 0.36,-0.804 0.624,-1.728 z m -0.816,7.8 q -0.816,1.26 -1.848,2.004 -1.02,0.744 -2.232,0.744 -0.696,0 -1.308,-0.276 -0.6,-0.276 -1.056,-0.816 -0.444,-0.552 -0.708,-1.368 -0.252,-0.828 -0.252,-1.932 0,-1.104 0.276,-2.148 0.276,-1.044 0.78,-1.956 0.516,-0.924 1.236,-1.692 0.72,-0.768 1.608,-1.32 0.9,-0.552 1.932,-0.852 1.044,-0.312 2.196,-0.312 0.828,0 1.656,0.12 0.84,0.12 1.632,0.432 l -1.476,11.94 h -1.572 q -0.564,0 -0.768,-0.276 -0.192,-0.288 -0.192,-0.708 z"
       style="font-variant-ligatures:none;fill:#ed952f;stroke-width:0;stroke-miterlimit:2"
       id="path13659" /><path
       stroke-miterlimit="2"
       d="m 621.77,425.11 q -0.408,-0.444 -0.936,-0.624 -0.528,-0.18 -1.044,-0.18 -0.792,0 -1.44,0.492 -0.648,0.492 -1.116,1.284 -0.456,0.792 -0.708,1.788 -0.252,0.984 -0.252,1.98 0,1.296 0.42,1.932 0.432,0.624 1.188,0.624 0.48,0 0.984,-0.324 0.504,-0.336 0.972,-0.912 0.468,-0.588 0.864,-1.38 0.408,-0.792 0.696,-1.704 z m 3.948,-8.388 -2.208,17.832 h -1.572 q -0.564,0 -0.768,-0.276 -0.192,-0.288 -0.192,-0.708 l 0.108,-1.716 q -0.444,0.66 -0.948,1.2 -0.504,0.528 -1.056,0.9 -0.552,0.372 -1.152,0.576 -0.588,0.204 -1.212,0.204 -0.768,0 -1.392,-0.276 -0.624,-0.288 -1.068,-0.852 -0.444,-0.564 -0.684,-1.428 -0.24,-0.864 -0.24,-2.04 0,-1.044 0.216,-2.04 0.216,-1.008 0.612,-1.908 0.396,-0.9 0.936,-1.656 0.552,-0.756 1.224,-1.308 0.672,-0.552 1.428,-0.864 0.768,-0.312 1.584,-0.312 0.828,0 1.5,0.3 0.672,0.3 1.176,0.828 l 0.804,-6.456 z"
       style="font-variant-ligatures:none;fill:#ed952f;stroke-width:0;stroke-miterlimit:2"
       id="path13661" /><path
       stroke-miterlimit="2"
       d="m 634.93,424.14 q -0.6,0 -1.116,0.252 -0.516,0.24 -0.936,0.684 -0.408,0.444 -0.72,1.068 -0.3,0.612 -0.48,1.344 1.488,-0.204 2.388,-0.444 0.912,-0.252 1.404,-0.528 0.492,-0.288 0.648,-0.612 0.168,-0.336 0.168,-0.696 0,-0.18 -0.084,-0.372 -0.072,-0.192 -0.24,-0.336 -0.156,-0.156 -0.42,-0.252 -0.252,-0.108 -0.612,-0.108 z m -3.504,5.4 q 0,2.904 2.46,2.904 0.528,0 0.936,-0.096 0.408,-0.108 0.708,-0.252 0.312,-0.144 0.552,-0.324 0.252,-0.18 0.456,-0.324 0.216,-0.144 0.42,-0.24 0.204,-0.108 0.444,-0.108 0.144,0 0.276,0.072 0.144,0.072 0.252,0.192 l 0.756,0.912 q -0.636,0.636 -1.248,1.104 -0.612,0.468 -1.248,0.768 -0.636,0.3 -1.344,0.444 -0.708,0.144 -1.536,0.144 -1.08,0 -1.956,-0.36 -0.876,-0.372 -1.5,-1.032 -0.624,-0.672 -0.972,-1.608 -0.336,-0.948 -0.336,-2.112 0,-0.972 0.204,-1.908 0.216,-0.936 0.612,-1.776 0.396,-0.84 0.972,-1.548 0.576,-0.708 1.296,-1.224 0.732,-0.516 1.596,-0.804 0.876,-0.288 1.872,-0.288 0.96,0 1.68,0.276 0.732,0.276 1.212,0.72 0.492,0.432 0.732,0.972 0.24,0.54 0.24,1.056 0,0.828 -0.336,1.512 -0.324,0.684 -1.176,1.224 -0.84,0.54 -2.304,0.936 -1.464,0.384 -3.72,0.612 z"
       style="font-variant-ligatures:none;fill:#ed952f;stroke-width:0;stroke-miterlimit:2"
       id="path13663" /><path
       stroke-miterlimit="2"
       d="m 654.1,424.14 q -0.6,0 -1.116,0.252 -0.516,0.24 -0.936,0.684 -0.408,0.444 -0.72,1.068 -0.3,0.612 -0.48,1.344 1.488,-0.204 2.388,-0.444 0.912,-0.252 1.404,-0.528 0.492,-0.288 0.648,-0.612 0.168,-0.336 0.168,-0.696 0,-0.18 -0.084,-0.372 -0.072,-0.192 -0.24,-0.336 -0.156,-0.156 -0.42,-0.252 -0.252,-0.108 -0.612,-0.108 z m -3.504,5.4 q 0,2.904 2.46,2.904 0.528,0 0.936,-0.096 0.408,-0.108 0.708,-0.252 0.312,-0.144 0.552,-0.324 0.252,-0.18 0.456,-0.324 0.216,-0.144 0.42,-0.24 0.204,-0.108 0.444,-0.108 0.144,0 0.276,0.072 0.144,0.072 0.252,0.192 l 0.756,0.912 q -0.636,0.636 -1.248,1.104 -0.612,0.468 -1.248,0.768 -0.636,0.3 -1.344,0.444 -0.708,0.144 -1.536,0.144 -1.08,0 -1.956,-0.36 -0.876,-0.372 -1.5,-1.032 -0.624,-0.672 -0.972,-1.608 -0.336,-0.948 -0.336,-2.112 0,-0.972 0.204,-1.908 0.216,-0.936 0.612,-1.776 0.396,-0.84 0.972,-1.548 0.576,-0.708 1.296,-1.224 0.732,-0.516 1.596,-0.804 0.876,-0.288 1.872,-0.288 0.96,0 1.68,0.276 0.732,0.276 1.212,0.72 0.492,0.432 0.732,0.972 0.24,0.54 0.24,1.056 0,0.828 -0.336,1.512 -0.324,0.684 -1.176,1.224 -0.84,0.54 -2.304,0.936 -1.464,0.384 -3.72,0.612 z"
       style="font-variant-ligatures:none;fill:#ed952f;stroke-width:0;stroke-miterlimit:2"
       id="path13665" /><path
       stroke-miterlimit="2"
       d="m 669.76,424.19 q -0.168,-0.012 -0.324,-0.012 -0.144,-0.012 -0.288,-0.012 -0.996,0 -1.848,0.456 -0.852,0.456 -1.476,1.236 -0.612,0.768 -0.972,1.8 -0.348,1.02 -0.348,2.16 0,1.296 0.408,1.896 0.408,0.6 1.116,0.6 0.492,0 0.96,-0.336 0.48,-0.348 0.9,-0.936 0.432,-0.6 0.78,-1.404 0.36,-0.804 0.624,-1.728 z m -0.816,7.8 q -0.816,1.26 -1.848,2.004 -1.02,0.744 -2.232,0.744 -0.696,0 -1.308,-0.276 -0.6,-0.276 -1.056,-0.816 -0.444,-0.552 -0.708,-1.368 -0.252,-0.828 -0.252,-1.932 0,-1.104 0.276,-2.148 0.276,-1.044 0.78,-1.956 0.516,-0.924 1.236,-1.692 0.72,-0.768 1.608,-1.32 0.9,-0.552 1.932,-0.852 1.044,-0.312 2.196,-0.312 0.828,0 1.656,0.12 0.84,0.12 1.632,0.432 l -1.476,11.94 h -1.572 q -0.564,0 -0.768,-0.276 -0.192,-0.288 -0.192,-0.708 z"
       style="font-variant-ligatures:none;fill:#ed952f;stroke-width:0;stroke-miterlimit:2"
       id="path13667" /><path
       stroke-miterlimit="2"
       d="m 684.58,424.56 q -0.132,0.192 -0.252,0.276 -0.12,0.072 -0.312,0.072 -0.216,0 -0.432,-0.12 -0.216,-0.12 -0.504,-0.264 -0.276,-0.156 -0.648,-0.276 -0.36,-0.12 -0.864,-0.12 -0.948,0 -1.452,0.432 -0.504,0.42 -0.504,1.056 0,0.492 0.348,0.792 0.36,0.3 0.9,0.528 0.54,0.228 1.152,0.468 0.624,0.228 1.164,0.588 0.54,0.348 0.888,0.912 0.36,0.552 0.36,1.428 0,0.888 -0.36,1.692 -0.348,0.804 -1.008,1.416 -0.66,0.6 -1.596,0.96 -0.924,0.348 -2.088,0.348 -0.576,0 -1.128,-0.12 -0.552,-0.108 -1.032,-0.312 -0.468,-0.204 -0.864,-0.48 -0.396,-0.276 -0.672,-0.6 l 0.732,-1.128 q 0.132,-0.204 0.312,-0.312 0.18,-0.108 0.444,-0.108 0.252,0 0.456,0.156 0.204,0.156 0.468,0.348 0.276,0.18 0.66,0.336 0.396,0.156 1.008,0.156 0.492,0 0.864,-0.132 0.384,-0.132 0.648,-0.36 0.264,-0.228 0.396,-0.528 0.132,-0.3 0.132,-0.636 0,-0.408 -0.204,-0.672 -0.204,-0.276 -0.552,-0.468 -0.336,-0.204 -0.768,-0.348 -0.432,-0.156 -0.888,-0.324 -0.444,-0.168 -0.876,-0.384 -0.42,-0.216 -0.768,-0.54 -0.336,-0.336 -0.54,-0.804 -0.204,-0.48 -0.204,-1.164 0,-0.816 0.312,-1.584 0.312,-0.78 0.912,-1.368 0.6,-0.6 1.476,-0.96 0.888,-0.36 2.028,-0.36 1.176,0 2.088,0.408 0.912,0.396 1.524,1.02 z"
       style="font-variant-ligatures:none;fill:#ed952f;stroke-width:0;stroke-miterlimit:2"
       id="path13669" /><path
       stroke-miterlimit="2"
       d="m 700.08,422.25 -8.136,15.72 q -0.168,0.312 -0.396,0.456 -0.228,0.156 -0.564,0.156 h -2.196 l 2.736,-4.968 -3.108,-11.364 h 2.484 q 0.324,0 0.48,0.168 0.168,0.156 0.228,0.384 l 1.512,6.384 q 0.12,0.612 0.18,1.224 0.132,-0.312 0.264,-0.612 0.144,-0.312 0.288,-0.624 l 3.036,-6.384 q 0.12,-0.24 0.348,-0.384 0.228,-0.156 0.468,-0.156 z"
       style="font-variant-ligatures:none;fill:#ed952f;stroke-width:0;stroke-miterlimit:2"
       id="path13671" /><path
       stroke-miterlimit="2"
       class="c3"
       d="m 267.13,296.79 c 0,-2.5409 2.117,-4.6579 4.6579,-4.6579 2.6108,0 4.7277,2.117 4.7277,4.6579 0,2.6108 -2.117,4.7277 -4.7277,4.7277 -2.5409,0 -4.6579,-2.117 -4.6579,-4.7277 z"
       style="font-variant-ligatures:normal;fill:#ed952f;stroke-width:0;stroke-miterlimit:2"
       id="path38" /><path
       stroke-miterlimit="2"
       class="c1"
       d="m 267.13,338.14 v -27.3 c 0,-2.54 2.117,-4.6569 4.6579,-4.6569 2.6108,0 4.7277,2.117 4.7277,4.6569 v 27.309 c 0,2.5409 -2.117,4.6579 -4.7277,4.6579 -2.5409,0 -4.6579,-2.117 -4.6579,-4.6579 z"
       style="font-variant-ligatures:normal;fill:#2cb1bc;stroke-width:0;stroke-miterlimit:2"
       id="path40" /><path
       stroke-miterlimit="2"
       class="c1"
       d="m 326.1,326.08 v -13.973 c 0,-2.6108 2.117,-4.7277 4.6569,-4.7277 2.6117,0 4.7287,2.117 4.7287,4.6579 v 25.544 c 0,1.6231 -0.35315,3.0348 -1.7648,4.2339 -1.1293,0.84698 -2.8931,1.4824 -4.8684,0.49479 -1.0585,-0.56465 -1.6231,-1.2001 -2.3993,-2.117 l -24.487,-29.991 v 27.944 c 0,2.5409 -2.117,4.6579 -4.7277,4.6579 -2.5409,0 -4.6579,-2.117 -4.6579,-4.6579 v -39.094 c 0,-1.7638 0.21151,-3.8808 2.4701,-5.0799 1.7638,-0.98861 4.0923,-0.84697 6.28,1.693 z"
       style="font-variant-ligatures:normal;fill:#2cb1bc;stroke-width:0;stroke-miterlimit:2"
       id="path43" /><path
       stroke-miterlimit="2"
       class="c3"
       d="m 335.48,298.06 c 0,2.6108 -2.117,4.6579 -4.6579,4.6579 -2.6108,0 -4.7277,-2.0471 -4.7277,-4.6579 0,-2.6108 2.117,-4.6569 4.7277,-4.6569 2.5409,0 4.6579,2.0461 4.6579,4.6569 z"
       style="font-variant-ligatures:normal;fill:#ed952f;stroke-width:0;stroke-miterlimit:2"
       id="path45" /><path
       stroke-miterlimit="2"
       class="c1"
       d="m 365.33,332.71 c 2.6816,1.5523 5.5044,2.3285 8.9621,2.6816 3.3869,0.35219 4.7986,2.0461 4.7986,4.2339 0,2.3285 -1.5533,4.4454 -5.9278,4.4454 -3.5994,0 -7.1978,-0.77615 -10.796,-2.3993 -8.9621,-4.1631 -15.172,-13.126 -15.172,-23.569 0,-14.396 11.643,-25.969 25.968,-25.969 4.7277,0 11.361,0.91779 16.724,5.2934 1.9753,1.6222 2.117,4.4454 0.63547,6.5624 -1.2709,1.9054 -3.8817,1.9753 -6.4925,0.56465 -2.8223,-1.6231 -6.4217,-3.0348 -10.867,-3.0348 -9.1736,0 -16.583,7.4093 -16.583,16.583 10e-6,6.3508 3.4578,11.714 8.7502,14.607 z"
       style="font-variant-ligatures:normal;fill:#2cb1bc;stroke-width:0;stroke-miterlimit:2"
       id="path48" /><path
       stroke-miterlimit="2"
       class="c3"
       d="m 382.9,334.69 c 0,-2.54 2.117,-4.6569 4.6579,-4.6569 2.6108,0 4.7277,2.117 4.7277,4.6569 0,2.6108 -2.117,4.7277 -4.7277,4.7277 -2.5409,-1e-5 -4.6579,-2.117 -4.6579,-4.7277 z"
       style="font-variant-ligatures:normal;fill:#ed952f;stroke-width:0;stroke-miterlimit:2"
       id="path50" /><path
       stroke-miterlimit="2"
       class="c1"
       d="m 426.82,344.07 c -14.325,0 -25.969,-11.643 -25.969,-26.039 0,-8.0448 3.6702,-15.383 10.021,-20.393 1.9753,-1.5523 4.9392,-1.2001 6.5624,0.84697 1.5523,1.9753 1.1992,4.9392 -0.84698,6.5624 -4.0224,3.1754 -6.3509,7.8323 -6.3509,12.984 0,9.1731 7.4093,16.653 16.583,16.653 9.1732,0 16.653,-7.4802 16.653,-16.653 0,-5.1517 -2.3285,-9.8086 -6.4217,-12.984 -2.0461,-1.6231 -2.3993,-4.587 -0.77615,-6.5624 1.5523,-2.0471 4.5162,-2.3993 6.5624,-0.84697 6.3509,5.01 10.021,12.349 10.021,20.393 -2e-5,14.396 -11.714,26.039 -26.039,26.039 z"
       style="font-variant-ligatures:normal;fill:#2cb1bc;stroke-width:0;stroke-miterlimit:2"
       id="path53" /><path
       stroke-miterlimit="2"
       class="c3"
       d="m 426.82,292.13 c 2.6108,0 4.7277,2.117 4.7277,4.7287 0,2.54 -2.117,4.6569 -4.7277,4.6569 -2.5409,0 -4.6579,-2.117 -4.6579,-4.6569 0,-2.6117 2.117,-4.7287 4.6579,-4.7287 z"
       style="font-variant-ligatures:normal;fill:#ed952f;stroke-width:0;stroke-miterlimit:2"
       id="path55" /><path
       stroke-miterlimit="2"
       class="c1"
       d="m 510.09,313.8 -13.76,26.604 c -0.84698,1.4815 -2.3993,2.3993 -4.0932,2.3993 -1.693,0 -3.2453,-0.91779 -4.0923,-2.4701 l -13.126,-26.11 v 23.922 c 0,2.5409 -2.117,4.6579 -4.7277,4.6579 -2.5409,0 -4.6579,-2.117 -4.6579,-4.6579 v -40.081 c 0,-2.117 1.4116,-3.9516 3.5286,-4.5162 2.0461,-0.49383 4.2339,0.42397 5.2225,2.3285 l 17.923,34.013 18.418,-34.083 c 0.98765,-1.8346 3.1754,-2.7524 5.2216,-2.2586 2.0461,0.56465 3.5286,2.3993 3.5286,4.5162 v 26.039 c 0,2.5409 -2.117,4.6579 -4.7277,4.6579 -2.5409,0 -4.6579,-2.117 -4.6579,-4.6579 v -10.302 z"
       style="font-variant-ligatures:normal;fill:#2cb1bc;stroke-width:0;stroke-miterlimit:2"
       id="path58" /><path
       stroke-miterlimit="2"
       class="c3"
       d="m 514.74,342.8 c -2.5409,0 -4.6579,-2.117 -4.6579,-4.6579 0,-2.6108 2.117,-4.7277 4.6579,-4.7277 2.6108,0 4.7277,2.117 4.7277,4.7277 0,2.5409 -2.117,4.6579 -4.7277,4.6579 z"
       style="font-variant-ligatures:normal;fill:#ed952f;stroke-width:0;stroke-miterlimit:2"
       id="path60" /><path
       stroke-miterlimit="2"
       class="c1"
       d="m 540.11,342.8 c -2.54,0 -4.6569,-2.117 -4.6569,-4.6579 v -40.081 c 0,-2.54 2.117,-4.6569 4.6569,-4.6569 h 9.7388 c 2.54,0 4.6569,2.117 4.6569,4.6569 0,2.6108 -2.117,4.7277 -4.6569,4.7277 h -5.01 v 10.797 h 16.371 c 2.6108,0 4.6569,1.9054 4.6569,4.5162 0,2.54 -2.0461,4.4454 -4.6569,4.4454 h -16.371 v 10.867 h 19.264 c 2.6108,0 4.6569,2.117 4.6569,4.7277 0,2.5409 -2.0461,4.6579 -4.6569,4.6579 z"
       style="font-variant-ligatures:normal;fill:#2cb1bc;stroke-width:0;stroke-miterlimit:2"
       id="path63" /><path
       stroke-miterlimit="2"
       class="c3"
       d="m 563.89,302.79 c -2.6108,0 -4.7277,-2.117 -4.7277,-4.7277 0,-2.54 2.117,-4.6569 4.7277,-4.6569 2.54,0 4.6569,2.117 4.6569,4.6569 0,2.6108 -2.1169,4.7277 -4.6569,4.7277 z"
       style="font-variant-ligatures:normal;fill:#ed952f;stroke-width:0;stroke-miterlimit:2"
       id="path65" /><path
       stroke-miterlimit="2"
       class="c1"
       d="m 629.59,338.14 c 0,2.5409 -2.0461,4.6579 -4.6579,4.6579 -2.6108,0 -4.6569,-2.117 -4.6569,-4.6579 v -35.354 h -10.233 c -2.54,0 -4.6569,-2.117 -4.6569,-4.7277 0,-2.54 2.117,-4.6569 4.6569,-4.6569 h 14.889 c 2.8232,0 4.6579,2.117 4.6579,4.6569 z"
       style="font-variant-ligatures:normal;fill:#2cb1bc;stroke-width:0;stroke-miterlimit:2"
       id="path68" /><path
       stroke-miterlimit="2"
       class="c3"
       d="m 644.48,298.06 c 0,2.6108 -2.117,4.7277 -4.6579,4.7277 -2.6108,0 -4.7277,-2.117 -4.7277,-4.7277 0,-2.54 2.117,-4.6569 4.7277,-4.6569 2.5409,0 4.6579,2.117 4.6579,4.6569 z"
       style="font-variant-ligatures:normal;fill:#ed952f;stroke-width:0;stroke-miterlimit:2"
       id="path70" /><path
       stroke-miterlimit="2"
       class="c1"
       d="m 684.85,322.62 -12.561,-26.533 c -0.77615,-1.6231 -2.4701,-2.6816 -4.2339,-2.6816 -1.8346,0 -3.4578,1.0585 -4.2339,2.6816 l -19.053,40.011 c -1.0585,2.3285 -0.0703,5.1517 2.2581,6.28 2.3285,1.0585 5.0809,0.0709 6.2097,-2.2576 l 4.4459,-9.3148 h 23.71 c 1.6231,0 3.0343,-0.84697 3.8812,-2.117 1.6231,-2.3993 0.35264,-4.4454 -0.42351,-6.0685 z m -23.357,0.14068 6.5628,-13.831 6.6332,13.831 z"
       style="font-variant-ligatures:normal;fill:#2cb1bc;stroke-width:0;stroke-miterlimit:2"
       id="path73" /><path
       stroke-miterlimit="2"
       class="c3"
       d="m 691.76,338.14 c 0,2.5409 -2.117,4.6579 -4.7277,4.6579 -2.5404,0 -4.6574,-2.117 -4.6574,-4.6579 0,-2.6108 2.117,-4.7277 4.6574,-4.7277 2.6108,0 4.7277,2.117 4.7277,4.7277 z"
       style="font-variant-ligatures:normal;fill:#ed952f;stroke-width:0;stroke-miterlimit:2"
       id="path75" /><path
       stroke-miterlimit="2"
       class="c1"
       d="m 733.84,342.09 c -2.1878,1.3408 -5.0809,0.70629 -6.4925,-1.4815 l -8.82,-13.831 -8.8918,13.831 c -1.3408,2.1878 -4.2339,2.8223 -6.4217,1.4815 -2.1878,-1.4107 -2.8223,-4.3038 -1.4815,-6.4915 l 11.22,-17.5 -11.22,-17.5 c -1.3408,-2.1878 -0.70629,-5.0809 1.4815,-6.4217 2.117,-1.4116 5.01,-0.77615 6.4217,1.4107 l 8.8918,13.831 1.27,-1.9753 c 1.3408,-2.1878 4.2339,-2.8232 6.4217,-1.4116 2.1868,1.3408 2.8223,4.2339 1.4107,6.4217 l -3.5984,5.6455 11.22,17.5 c 1.3408,2.1878 0.70536,5.0809 -1.4116,6.4916 z"
       style="font-variant-ligatures:normal;fill:#2cb1bc;stroke-width:0;stroke-miterlimit:2"
       id="path78" /><path
       stroke-miterlimit="2"
       class="c3"
       d="m 735.96,298.06 c 0,2.6108 -2.117,4.7277 -4.6579,4.7277 -2.6108,0 -4.6569,-2.117 -4.6569,-4.7277 0,-2.54 2.0461,-4.6569 4.6569,-4.6569 2.5409,0 4.6579,2.117 4.6579,4.6569 z"
       style="font-variant-ligatures:normal;fill:#ed952f;stroke-width:0;stroke-miterlimit:2"
       id="path80" /><path
       stroke-miterlimit="2"
       class="c1"
       d="m 321.05,396.61 c -0.63547,1.9055 -2.3285,3.2462 -4.3047,3.3171 -1.9763,0.0699 -3.8109,-1.1293 -4.5162,-2.9639 l -11.785,-29.92 -11.784,29.92 c -0.70629,1.7638 -2.3993,2.9639 -4.3047,2.9639 h -0.21151 c -1.9763,-0.0709 -3.6692,-1.4116 -4.2339,-3.3171 l -12.56,-40.01 c -0.77615,-2.4701 0.63547,-5.0809 3.0347,-5.857 2.4691,-0.77615 5.1508,0.63451 5.9269,3.1046 l 8.6094,28.862 11.22,-29.214 c 0.70533,-1.7648 2.3993,-2.9639 4.3038,-2.9639 1.9054,0 3.6702,1.1992 4.3755,2.9639 l 11.22,29.214 4.3746,-15.525 c 0.77615,-2.4701 3.4578,-3.8109 5.9278,-3.0347 2.3993,0.77615 3.8109,3.3879 3.0338,5.857 z"
       style="font-variant-ligatures:normal;fill:#2cb1bc;stroke-width:0;stroke-miterlimit:2"
       id="path83" /><path
       stroke-miterlimit="2"
       class="c3"
       d="m 333.75,355.19 c 0,2.6108 -2.0461,4.7277 -4.6569,4.7277 -2.6117,0 -4.6579,-2.117 -4.6579,-4.7277 0,-2.54 2.0461,-4.6569 4.6579,-4.6569 2.6108,0 4.6569,2.117 4.6569,4.6569 z"
       style="font-variant-ligatures:normal;fill:#ed952f;stroke-width:0;stroke-miterlimit:2"
       id="path85" /><path
       stroke-miterlimit="2"
       class="c3"
       d="m 346.64,353.92 c 0,-2.5409 2.117,-4.6579 4.6579,-4.6579 2.6108,0 4.7277,2.117 4.7277,4.6579 0,2.6108 -2.117,4.7277 -4.7277,4.7277 -2.5409,0 -4.6579,-2.117 -4.6579,-4.7277 z"
       style="font-variant-ligatures:normal;fill:#ed952f;stroke-width:0;stroke-miterlimit:2"
       id="path88" /><path
       stroke-miterlimit="2"
       class="c1"
       d="m 346.64,395.27 v -27.309 c 0,-2.54 2.117,-4.6569 4.6579,-4.6569 2.6108,0 4.7277,2.117 4.7277,4.6569 v 27.309 c 0,2.5409 -2.117,4.6579 -4.7277,4.6579 -2.5409,0 -4.6579,-2.117 -4.6579,-4.6579 z"
       style="font-variant-ligatures:normal;fill:#2cb1bc;stroke-width:0;stroke-miterlimit:2"
       id="path90" /><path
       stroke-miterlimit="2"
       class="c1"
       d="m 391.8,399.93 h -16.159 c -1.7648,0 -3.3879,-0.98862 -4.164,-2.5409 -0.77615,-1.6231 -0.63451,-3.5276 0.42397,-4.9392 l 24.27,-32.54 h -19.194 c -2.6108,0 -4.7277,-2.117 -4.7277,-4.7277 0,-2.54 2.117,-4.6569 4.7277,-4.6569 h 28.509 c 1.7648,0 3.3869,0.98766 4.164,2.6108 0.77615,1.5523 0.63451,3.4578 -0.42397,4.8694 l -24.275,32.601 h 6.8456 c 2.54,0 4.6569,2.0461 4.6569,4.6569 10e-6,2.5409 -2.1169,4.6579 -4.6569,4.6579 z"
       style="font-variant-ligatures:normal;fill:#2cb1bc;stroke-width:0;stroke-miterlimit:2"
       id="path93" /><path
       stroke-miterlimit="2"
       class="c3"
       d="m 410.5,395.27 c 0,2.5409 -2.117,4.6579 -4.6569,4.6579 -2.6108,0 -4.7277,-2.117 -4.7277,-4.6579 0,-2.6108 2.117,-4.6569 4.7277,-4.6569 2.54,-10e-6 4.6569,2.0461 4.6569,4.6569 z"
       style="font-variant-ligatures:normal;fill:#ed952f;stroke-width:0;stroke-miterlimit:2"
       id="path95" /><path
       stroke-miterlimit="2"
       class="c1"
       d="m 457.78,379.74 -12.561,-26.533 c -0.77615,-1.6231 -2.4701,-2.6816 -4.2339,-2.6816 -1.8346,0 -3.4578,1.0585 -4.2339,2.6816 l -19.053,40.011 c -1.0585,2.3285 -0.0704,5.1517 2.2581,6.28 2.3285,1.0585 5.0809,0.0709 6.2097,-2.2576 l 4.4459,-9.3148 h 23.71 c 1.6231,0 3.0343,-0.84697 3.8812,-2.117 1.6231,-2.3993 0.35264,-4.4454 -0.42351,-6.0685 z m -23.357,0.14068 6.5628,-13.831 6.6332,13.831 z"
       style="font-variant-ligatures:normal;fill:#2cb1bc;stroke-width:0;stroke-miterlimit:2"
       id="path98" /><path
       stroke-miterlimit="2"
       class="c3"
       d="m 464.69,395.27 c 0,2.5409 -2.117,4.6579 -4.7277,4.6579 -2.5404,0 -4.6574,-2.117 -4.6574,-4.6579 0,-2.6108 2.117,-4.7277 4.6574,-4.7277 2.6108,0 4.7277,2.117 4.7277,4.7277 z"
       style="font-variant-ligatures:normal;fill:#ed952f;stroke-width:0;stroke-miterlimit:2"
       id="path100" /><path
       stroke-miterlimit="2"
       class="c1"
       d="m 512.17,366.27 c 0,-9.5962 -6.5633,-15.736 -16.654,-15.736 h -15.171 c -2.5409,0 -4.6579,2.117 -4.6579,4.6569 v 40.081 c 0,2.5409 2.117,4.6579 4.6579,4.6579 2.6108,0 4.7277,-2.117 4.7277,-4.6579 v -12.702 h 10.232 l 2.117,3.3869 c 1.3408,2.1878 4.2339,2.8232 6.4217,1.4116 4.3047,-2.7524 0.84698,-7.2686 0.84698,-7.2686 4.8694,-2.7515 7.4802,-7.7615 7.4802,-13.831 z m -16.866,8.1864 h -10.232 v -14.82 h 10.443 c 4.8694,0 7.2686,2.8941 7.2686,7.1978 0,3.9516 -1.9054,7.6218 -7.4802,7.6218 z"
       style="font-variant-ligatures:normal;fill:#2cb1bc;stroke-width:0;stroke-miterlimit:2"
       id="path103" /><path
       stroke-miterlimit="2"
       class="c3"
       d="m 508.99,399.86 c -2.5409,0 -4.6579,-2.117 -4.6579,-4.6569 0,-2.6117 2.117,-4.7287 4.6579,-4.7287 2.6108,0 4.6569,2.117 4.6569,4.7287 0,2.54 -2.0461,4.6569 -4.6569,4.6569 z"
       style="font-variant-ligatures:normal;fill:#ed952f;stroke-width:0;stroke-miterlimit:2"
       id="path105" /><path
       stroke-miterlimit="2"
       class="c1"
       d="m 561.65,394.28 c -1.9753,1.6231 -4.9392,1.4116 -6.6332,-0.56464 -1.4107,-1.694 -1.4815,-4.3746 0.49383,-6.3509 0.49479,-0.56465 1.1293,-1.27 1.6231,-1.8346 2.117,-2.6108 3.3171,-6.2102 3.3171,-10.302 0,-10.233 -5.434,-15.666 -16.019,-15.666 h -8.1855 v 35.706 c 0,2.5409 -2.117,4.6579 -4.7277,4.6579 -2.5409,0 -4.6579,-2.117 -4.6579,-4.6579 v -40.081 c 0,-2.54 2.117,-4.6569 4.6579,-4.6569 h 0.0708 0.0699 12.773 c 15.666,0 25.334,9.3846 25.334,24.698 -2e-5,7.4093 -2.8931,14.607 -8.1156,19.053 z"
       style="font-variant-ligatures:normal;fill:#2cb1bc;stroke-width:0;stroke-miterlimit:2"
       id="path108" /><path
       stroke-miterlimit="2"
       class="c3"
       d="m 545.56,399.93 c -2.54,0 -4.6579,-2.117 -4.6579,-4.6579 0,-2.6108 2.1179,-4.7277 4.6579,-4.7277 2.6108,0 4.7277,2.117 4.7277,4.7277 0,2.5409 -2.117,4.6579 -4.7277,4.6579 z"
       style="font-variant-ligatures:normal;fill:#ed952f;stroke-width:0;stroke-miterlimit:2"
       id="path110" /><path
       style="fill:#ed952f;stroke-width:0.92250001"
       d="m 769.14,289.57 c -0.24876,-0.0144 -0.5683,0.006 -0.81091,0.0523 -0.22004,0.0415 -0.56112,0.14413 -0.75808,0.22773 -0.19696,0.0841 -0.48419,0.23594 -0.63858,0.33852 -0.15387,0.10206 -0.42058,0.33954 -0.59241,0.52676 -0.19849,0.21644 -0.38366,0.49034 -0.50778,0.75141 -0.10719,0.2262 -0.2262,0.53753 -0.26363,0.69294 -0.0451,0.18413 -0.0651,0.54317 -0.0575,1.0335 0.009,0.60165 -0.008,0.82835 -0.0877,1.1382 -0.0544,0.21234 -0.16105,0.54369 -0.23696,0.73603 -0.0759,0.19182 -0.22568,0.49906 -0.33237,0.68268 -0.10668,0.18311 -0.34006,0.50624 -0.51855,0.71808 -0.1785,0.21131 -0.55549,0.62318 -0.83759,0.91503 -0.2821,0.29184 -0.72064,0.68678 -0.97453,0.87759 -0.25389,0.1908 -0.68114,0.47905 -0.94888,0.64011 -0.26774,0.16157 -0.68319,0.38673 -0.92324,0.50111 -0.23952,0.11438 -0.78475,0.37699 -1.2115,0.5842 -0.42623,0.20773 -1.0961,0.59139 -1.488,0.85298 -0.39186,0.26158 -0.9427,0.6637 -1.2248,0.89348 -0.28159,0.22927 -0.72166,0.63293 -0.97711,0.89759 -0.25594,0.26415 -0.61652,0.67602 -0.80168,0.91607 -0.18568,0.23952 -0.50317,0.68986 -0.70577,1.0002 -0.20312,0.31031 -0.49342,0.81809 -0.64473,1.1284 -0.15182,0.31031 -0.34467,0.78321 -0.4293,1.0515 -0.0841,0.26774 -0.18106,0.59087 -0.21491,0.71807 -0.0338,0.12669 -0.061,0.46162 -0.061,0.74372 5.1e-4,0.31596 0.0339,0.64062 0.0877,0.8463 0.0477,0.18311 0.17131,0.50624 0.27441,0.71808 0.139,0.28415 0.29544,0.49291 0.59959,0.79911 0.22619,0.22825 0.53855,0.48624 0.69345,0.57344 0.15541,0.0872 0.46675,0.2226 0.69243,0.30107 l 0.41032,0.14259 0.69243,0.001 c 0.59908,10e-4 0.73142,-0.0144 0.9797,-0.11386 0.15848,-0.0636 0.41135,-0.20158 0.56266,-0.30723 0.15131,-0.10567 0.38366,-0.32724 0.5165,-0.49188 0.13284,-0.16516 0.32415,-0.46931 0.4252,-0.67653 0.10104,-0.20721 0.24004,-0.58728 0.30928,-0.84527 0.0841,-0.31442 0.20106,-0.59037 0.35596,-0.83861 0.13438,-0.21594 0.42982,-0.56266 0.70781,-0.83143 0.26211,-0.25389 0.65038,-0.5837 0.86169,-0.73295 0.21184,-0.14926 0.55805,-0.35903 0.76937,-0.46572 0.21183,-0.10669 0.61549,-0.29236 0.89759,-0.41187 0.2821,-0.11951 0.72064,-0.32159 0.97453,-0.4488 0.25389,-0.1272 0.64627,-0.33543 0.87195,-0.46366 0.22568,-0.12771 0.71038,-0.43033 1.0771,-0.67243 0.36673,-0.24209 0.95552,-0.66935 1.3079,-0.94944 0.35288,-0.28005 0.90785,-0.77654 1.2336,-1.1033 0.32569,-0.32672 0.73038,-0.76732 0.89964,-0.97859 0.16926,-0.21183 0.42366,-0.54625 0.56471,-0.74372 0.14157,-0.19747 0.40264,-0.58984 0.57959,-0.87194 0.17747,-0.2821 0.5483,-0.96734 0.82374,-1.5229 0.41648,-0.83912 0.53753,-1.1402 0.71551,-1.7808 0.11797,-0.42367 0.26979,-1.0427 0.33749,-1.3751 0.0677,-0.33237 0.14772,-0.82835 0.17748,-1.1022 0.0297,-0.27389 0.0538,-0.65499 0.0533,-0.8463 0,-0.19132 -0.0456,-0.53702 -0.10104,-0.76783 -0.0549,-0.23081 -0.17131,-0.56984 -0.25799,-0.75295 -0.0867,-0.18362 -0.26107,-0.46777 -0.38725,-0.6319 -0.12669,-0.16414 -0.36058,-0.40674 -0.51958,-0.53908 -0.159,-0.13233 -0.43033,-0.31031 -0.60319,-0.39545 -0.17234,-0.0851 -0.45136,-0.1903 -0.61959,-0.2344 -0.16875,-0.0436 -0.49086,-0.0903 -0.71654,-0.10361 z m 89.451,9.6429 c -2.2286,-0.007 -4.1786,-0.005 -4.3341,0.005 -0.1549,0.01 -0.7668,0.0426 -1.3592,0.0728 -0.59241,0.0308 -1.608,0.10104 -2.2568,0.15644 -0.64883,0.0554 -1.6874,0.15798 -2.3081,0.22824 -0.62062,0.0698 -1.7747,0.22056 -2.5646,0.33494 -0.78988,0.11438 -1.9921,0.30928 -2.6712,0.4334 -0.67961,0.12413 -1.7988,0.34417 -2.4876,0.48983 -0.68884,0.14516 -1.9332,0.43341 -2.7656,0.64114 -0.83194,0.20721 -2.0096,0.51752 -2.6158,0.68987 -0.60626,0.17234 -1.5413,0.44931 -2.0773,0.61549 -0.53599,0.16669 -1.5285,0.49034 -2.2055,0.71961 -0.67704,0.22927 -1.7269,0.60165 -2.3327,0.82784 -0.60574,0.22619 -1.4367,0.5447 -1.8465,0.70883 -0.40981,0.16362 -1.0679,0.43649 -1.4628,0.60626 -0.39494,0.16978 -1.1679,0.51958 -1.7182,0.77706 -0.54984,0.25697 -1.4849,0.71808 -2.0773,1.0232 -0.59241,0.3057 -1.5618,0.82681 -2.1542,1.1581 -0.59241,0.33083 -1.5387,0.87913 -2.1029,1.2182 -0.5642,0.33903 -1.372,0.83656 -1.7952,1.1058 -0.42315,0.26927 -1.0807,0.69601 -1.4618,0.94833 -0.38109,0.25184 -1.0889,0.75397 -1.573,1.1156 -0.4842,0.3616 -1.2458,0.95091 -1.6926,1.31 -0.44675,0.35955 -1.1002,0.89759 -1.4531,1.1956 -0.35237,0.29851 -1.1028,0.95866 -1.6664,1.4664 -0.5642,0.5083 -1.6146,1.5121 -2.3343,2.2317 -0.71909,0.7191 -1.7131,1.7577 -2.2081,2.3081 -0.49496,0.54984 -1.0966,1.231 -1.3372,1.5131 -0.24056,0.2821 -0.6714,0.80527 -0.95811,1.1633 -0.28671,0.35749 -0.755,0.9689 -1.0412,1.3592 -0.28621,0.38981 -0.70782,0.99039 -0.93708,1.3351 l -0.41699,0.62627 -0.25646,0.0267 c -0.14105,0.0149 -0.64883,0.0626 -1.1284,0.10617 -0.47957,0.0436 -1.2694,0.13644 -1.7552,0.2067 -0.48522,0.0698 -1.1777,0.18619 -1.5387,0.25902 -0.36058,0.0728 -0.96272,0.21184 -1.3382,0.30877 -0.37545,0.0964 -1.2176,0.3493 -1.8721,0.56112 -0.65396,0.21184 -1.4433,0.47444 -1.7537,0.58318 -0.31031,0.10873 -0.86734,0.31544 -1.2382,0.45854 -0.37032,0.1431 -0.94732,0.37903 -1.2823,0.52419 -0.33441,0.14566 -0.98892,0.45649 -1.4546,0.69191 -0.46521,0.23492 -1.2007,0.63549 -1.6337,0.8899 -0.43289,0.25491 -1.0843,0.65857 -1.4474,0.89811 -0.36263,0.23953 -0.92016,0.62421 -1.2386,0.85502 -0.31801,0.23081 -0.90529,0.68114 -1.3043,1.0012 -0.39904,0.31954 -0.96475,0.79244 -1.2566,1.0509 -0.29184,0.25902 -0.85964,0.79603 -1.2618,1.1935 -0.40212,0.39751 -0.7309,0.74218 -0.7309,0.76578 0,0.0236 -0.0923,0.20106 -0.20516,0.39442 -0.11284,0.19337 -0.20517,0.38417 -0.20517,0.42418 0,0.04 -0.0462,0.11438 -0.10258,0.16567 l -0.10258,0.0928 v 0.65447 c 0,0.54061 0.018,0.69654 0.10258,0.89401 0.0564,0.13181 0.10258,0.28158 0.10258,0.33339 0,0.0518 0.10567,0.21747 0.23492,0.36775 0.12925,0.15029 0.27851,0.35699 0.33134,0.45958 0.0528,0.10206 0.20414,0.28107 0.33648,0.3975 0.13181,0.11643 0.27235,0.21132 0.31185,0.21132 0.0395,0 0.13438,0.042 0.21081,0.0933 0.0764,0.0508 0.20824,0.13951 0.29287,0.19695 0.0846,0.0574 0.22517,0.14105 0.31236,0.18619 0.0872,0.0451 1.5874,0.42828 3.3339,0.85194 1.7465,0.42367 4.6506,1.129 6.4534,1.567 1.8034,0.43854 3.2862,0.80527 3.2954,0.81451 0.01,0.009 -0.91913,2.2296 -2.0629,4.9337 -1.1443,2.704 -2.1147,5.045 -2.1562,5.202 -0.0416,0.15695 -0.0764,0.50676 -0.0769,0.77757 -0.001,0.28415 0.0323,0.62319 0.078,0.80014 0.0441,0.16926 0.11643,0.39494 0.16105,0.50214 0.0446,0.10669 0.17285,0.33954 0.28518,0.51752 0.11233,0.17747 0.34211,0.45034 0.50983,0.60626 0.16824,0.15541 0.45751,0.36775 0.64268,0.47136 0.18516,0.1031 0.47546,0.23133 0.64473,0.28415 l 0.30877,0.0959 h 6.2811 l 0.43495,0.4488 c 0.23902,0.24671 0.52061,0.55548 0.62575,0.68627 0.10515,0.13028 0.24825,0.37801 0.31801,0.55036 0.10873,0.26671 0.1272,0.39494 0.1272,0.87246 v 0.5601 l -0.21234,0.53086 c -0.11695,0.29236 -0.27646,0.62369 -0.35493,0.73653 -0.0785,0.11284 -0.34622,0.40366 -0.59549,0.64627 -0.24928,0.24261 -0.77706,0.71859 -1.1735,1.0581 -0.39648,0.33955 -0.83245,0.74116 -0.9689,0.89247 -0.13644,0.15131 -0.38109,0.44982 -0.54317,0.66319 -0.16259,0.21286 -0.42315,0.58523 -0.57907,0.82681 -0.15592,0.24158 -0.36314,0.59805 -0.46059,0.79193 -0.0975,0.19388 -0.27543,0.58369 -0.39494,0.86579 -0.11951,0.28211 -0.27031,0.61754 -0.33494,0.74577 -0.0646,0.12772 -0.17695,0.52317 -0.2503,0.87811 -0.0734,0.35544 -0.15952,0.89451 -0.19132,1.1987 -0.0436,0.41443 -0.0436,0.71294 5.2e-4,1.1945 0.0328,0.3534 0.11797,0.96531 0.18926,1.3608 0.0739,0.40674 0.20977,0.93145 0.3139,1.2094 0.10053,0.26979 0.28671,0.69858 0.41289,0.95248 0.12669,0.25389 0.31287,0.60011 0.41341,0.76937 0.10104,0.16926 0.33698,0.51599 0.52419,0.77039 0.18773,0.2544 0.49496,0.63909 0.68319,0.85501 0.18773,0.21543 0.60165,0.61037 0.91914,0.87708 0.31749,0.26621 0.61447,0.52779 0.66011,0.58113 0.0456,0.0529 0.13079,0.22568 0.18875,0.38366 0.0795,0.21594 0.0954,0.33287 0.0636,0.47239 -0.0226,0.10155 -0.11899,0.32108 -0.2144,0.48727 -0.0949,0.16618 -0.94528,1.3202 -1.8906,2.5646 -0.94482,1.2443 -1.7347,2.2578 -1.7547,2.2516 -0.02,-0.006 -3.1205,-2.8497 -6.8899,-6.3196 -3.7699,-3.4698 -6.9848,-6.4104 -7.1443,-6.534 -0.16003,-0.12413 -0.44982,-0.30211 -0.64473,-0.39597 -0.19439,-0.0933 -0.52625,-0.20875 -0.73705,-0.25542 -0.27441,-0.0611 -0.52368,-0.0779 -0.87707,-0.0601 -0.35186,0.0184 -0.61806,0.0672 -0.92481,0.16978 -0.23696,0.0795 -0.59498,0.25184 -0.79501,0.38263 -0.20055,0.1313 -0.50368,0.38828 -0.67396,0.57087 -0.18208,0.19542 -0.38673,0.4888 -0.49752,0.71397 -0.10361,0.20978 -0.22773,0.52009 -0.27595,0.68935 -0.0718,0.25184 -0.0918,0.59908 -0.10925,1.907 l -0.0215,1.5987 -0.21389,-0.0754 c -0.11745,-0.0415 -0.43289,-0.13079 -0.70063,-0.1985 -0.26774,-0.0672 -0.75244,-0.1631 -1.0771,-0.21285 -0.39852,-0.0605 -0.8981,-0.0903 -1.5387,-0.0908 -0.52162,-5.1e-4 -1.1684,0.0287 -1.4361,0.0651 -0.26774,0.0364 -0.74526,0.12258 -1.0607,0.19234 -0.31544,0.0693 -0.78886,0.19695 -1.0515,0.28363 -0.26312,0.0872 -0.69756,0.2498 -0.9653,0.36212 -0.26774,0.11232 -0.78219,0.36776 -1.1428,0.56779 -0.36006,0.20004 -0.93707,0.57652 -1.2823,0.83604 -0.34467,0.26005 -0.86067,0.70475 -1.1458,0.98837 -0.28569,0.28364 -0.66473,0.69551 -0.84271,0.91606 -0.17747,0.22004 -0.46675,0.6196 -0.64319,0.88785 -0.17593,0.26825 -0.45853,0.76424 -0.62831,1.1028 -0.16926,0.33852 -0.41187,0.91964 -0.53958,1.2915 -0.1272,0.37135 -0.2898,0.93707 -0.36109,1.2561 -0.0713,0.31955 -0.16515,0.85298 -0.20824,1.1859 -0.0436,0.33287 -0.079,0.98578 -0.079,1.451 0,0.46522 0.0241,1.0699 0.0539,1.3438 0.0297,0.2739 0.11182,0.78425 0.18157,1.1346 0.0703,0.35031 0.22055,0.9222 0.3339,1.271 0.11336,0.34878 0.32006,0.88887 0.45854,1.2002 0.13849,0.31134 0.37751,0.77809 0.53035,1.0371 0.15335,0.25953 0.34416,0.55651 0.42417,0.66012 0.0805,0.10412 0.70577,0.91605 1.39,1.805 l 1.2438,1.6157 v 19.201 c 0,16.955 0.009,19.237 0.0775,19.507 0.0426,0.16823 0.17284,0.5006 0.28979,0.73911 0.16926,0.34569 0.30159,0.52368 0.65344,0.87553 0.33391,0.33442 0.54215,0.49393 0.85708,0.6555 0.22927,0.11745 0.56368,0.24825 0.74372,0.29082 0.18054,0.0421 0.51445,0.0775 0.74269,0.078 0.2462,0 0.58011,-0.0411 0.82066,-0.10155 0.22312,-0.0559 0.60215,-0.19953 0.84169,-0.31954 0.33441,-0.16722 0.5324,-0.3139 0.84938,-0.62883 0.28467,-0.28365 0.47136,-0.5242 0.60113,-0.77552 0.10361,-0.20055 0.22312,-0.51189 0.26569,-0.69243 0.0682,-0.28979 0.0774,-2.7425 0.0785,-20.858 l 5.1e-4,-20.529 -1.6956,-2.0901 c -1.4305,-1.7634 -1.7311,-2.1624 -1.9208,-2.5517 -0.12361,-0.25389 -0.28723,-0.64626 -0.36262,-0.87194 -0.10617,-0.31698 -0.14362,-0.54523 -0.16311,-1.0032 -0.019,-0.44059 -0.003,-0.70422 0.0621,-1.0258 0.0482,-0.23799 0.15285,-0.60113 0.23285,-0.80629 0.0795,-0.20568 0.24159,-0.5365 0.35956,-0.73501 0.11797,-0.199 0.36775,-0.52367 0.55496,-0.72217 0.1867,-0.1985 0.47906,-0.45905 0.64884,-0.57958 0.17028,-0.12054 0.45597,-0.29288 0.63549,-0.38264 0.179,-0.0898 0.497,-0.20721 0.70679,-0.26056 0.20927,-0.0539 0.57343,-0.1231 0.80937,-0.1549 0.31903,-0.0421 0.55907,-0.0415 0.93449,0.002 0.278,0.0328 0.7073,0.12618 0.95405,0.20824 0.2462,0.0821 0.56933,0.2103 0.71808,0.28569 0.14823,0.0749 0.40828,0.22979 0.57754,0.34365 0.16926,0.11387 0.46572,0.35904 0.65909,0.5442 0.19336,0.18516 0.39546,0.42264 0.44879,0.52728 0.0539,0.10463 0.0969,0.27799 0.0959,0.38468 -5.2e-4,0.10668 0.0344,0.73653 0.0774,1.3997 0.0431,0.66268 0.12669,1.8516 0.18516,2.6415 0.0585,0.78988 0.17388,2.1055 0.25646,2.9236 0.0826,0.81809 0.20875,1.9695 0.28005,2.5594 0.0713,0.58933 0.17491,1.4085 0.23029,1.8208 0.0559,0.41187 0.17081,1.2105 0.25646,1.7747 0.0851,0.5642 0.22516,1.4295 0.31133,1.9234 0.0857,0.49342 0.31698,1.7398 0.51343,2.7697 0.19695,1.0294 0.45084,2.3107 0.56369,2.8466 0.11335,0.53599 0.30979,1.4243 0.43699,1.9747 0.12721,0.54984 0.37853,1.5654 0.55856,2.2568 0.18003,0.69088 0.45341,1.6834 0.60728,2.2055 0.15439,0.52163 0.50419,1.6413 0.77757,2.4876 0.27339,0.8463 0.64679,1.9542 0.8299,2.462 0.18362,0.50778 0.49034,1.3156 0.68217,1.7952 0.19131,0.47957 0.46828,1.1489 0.61497,1.4874 0.1467,0.33852 0.63653,1.3654 1.0894,2.2824 0.45239,0.91657 0.98431,1.9552 1.1817,2.3081 0.19747,0.35237 0.55395,0.9463 0.79143,1.3192 0.23798,0.37341 0.65242,0.98321 0.92067,1.3556 0.26825,0.37237 0.70217,0.94427 0.96429,1.271 0.2621,0.3262 0.67858,0.82424 0.9248,1.1064 0.2462,0.2821 0.7627,0.8463 1.1479,1.2536 0.38468,0.40674 1.0807,1.0945 1.5459,1.5279 0.64934,0.60421 1.0314,0.91143 1.6413,1.3171 0.43751,0.29082 1.1182,0.71807 1.5131,0.94888 0.39494,0.23081 0.99962,0.55754 1.3438,0.72526 0.34417,0.16772 0.87503,0.40673 1.1797,0.53188 0.30467,0.12464 0.84271,0.32211 1.1951,0.43906 0.35288,0.11694 0.95968,0.30261 1.3484,0.41289 0.38929,0.11027 1.0699,0.28107 1.5131,0.37955 0.44315,0.0985 1.129,0.22568 1.5239,0.28261 0.39494,0.0569 1.0755,0.12618 1.5131,0.15387 0.65499,0.041 0.86221,0.0364 1.1797,-0.0277 0.21131,-0.0431 0.59241,-0.17798 0.8463,-0.30057 0.30826,-0.14875 0.576,-0.32775 0.80629,-0.53856 0.18927,-0.17387 0.45547,-0.48213 0.5919,-0.68576 0.14156,-0.21183 0.3098,-0.5565 0.39289,-0.80475 0.11951,-0.35699 0.14618,-0.52727 0.14874,-0.94787 0.003,-0.38468 -0.0251,-0.61497 -0.1113,-0.92015 -0.0636,-0.22415 -0.21183,-0.59345 -0.32928,-0.82066 -0.15644,-0.30262 -0.32416,-0.52368 -0.62575,-0.82425 -0.24672,-0.2462 -0.53549,-0.47598 -0.71962,-0.57241 -0.16926,-0.0887 -0.43443,-0.19849 -0.58985,-0.24465 -0.17643,-0.0523 -0.63703,-0.10156 -1.231,-0.13183 -0.52163,-0.0267 -1.2258,-0.0954 -1.5644,-0.15284 -0.33853,-0.0579 -0.92583,-0.18721 -1.3043,-0.28774 -0.37903,-0.10054 -0.89861,-0.25133 -1.154,-0.33596 -0.25594,-0.0841 -0.79143,-0.31031 -1.1899,-0.50317 -0.39904,-0.19234 -0.98532,-0.51496 -1.3039,-0.71704 -0.31852,-0.20209 -0.82322,-0.55548 -1.1218,-0.78527 -0.29851,-0.22927 -0.76167,-0.60677 -1.0299,-0.8386 -0.26773,-0.23184 -0.80322,-0.76424 -1.1889,-1.1827 -0.38571,-0.41853 -0.94732,-1.0612 -1.2474,-1.4279 -0.30005,-0.36673 -0.78527,-1.0248 -1.0781,-1.4618 -0.29236,-0.43752 -0.74372,-1.1874 -1.0022,-1.667 -0.2585,-0.47957 -0.64935,-1.23 -0.86836,-1.667 -0.21901,-0.43751 -0.6001,-1.2336 -0.84682,-1.7695 -0.24671,-0.53599 -0.65037,-1.4592 -0.89707,-2.0516 -0.24671,-0.59241 -0.57651,-1.4233 -0.73346,-1.8465 -0.15644,-0.42315 -0.39186,-1.0812 -0.52215,-1.4618 -0.13079,-0.38109 -0.35134,-1.0673 -0.49034,-1.5254 -0.13951,-0.45803 -0.34365,-1.1735 -0.45393,-1.59 -0.11079,-0.41649 -0.34365,-1.3459 -0.51804,-2.065 -0.17387,-0.71961 -0.44315,-1.8737 -0.59754,-2.5646 -0.15439,-0.6914 -0.45187,-2.1106 -0.66063,-3.1544 -0.20927,-1.0438 -0.48367,-2.4979 -0.61036,-3.2313 -0.12669,-0.73346 -0.31133,-1.8645 -0.41084,-2.5133 -0.099,-0.64883 -0.26159,-1.8146 -0.36058,-2.5902 -0.0995,-0.77604 -0.23799,-1.9763 -0.30826,-2.6671 -0.0698,-0.69089 -0.15131,-1.5454 -0.18106,-1.8978 -0.0298,-0.35289 -0.11028,-1.5301 -0.17952,-2.6158 -0.0687,-1.0863 -0.15079,-2.5287 -0.1826,-3.2057 -0.0313,-0.67704 -0.0492,-1.3705 -0.04,-1.5408 l 0.0169,-0.3098 5.206,4.7629 5.206,4.7629 5.0173,4.2407 c 2.7599,2.3322 5.2066,4.3982 5.4368,4.59 0.23081,0.19234 0.65037,0.52367 0.93246,0.73705 0.2821,0.21336 0.94021,0.67139 1.4618,1.0182 0.52215,0.34621 1.3644,0.86784 1.8721,1.1581 0.50778,0.2903 1.1848,0.63959 1.5049,0.775 0.32006,0.13592 0.81091,0.31493 1.091,0.39853 0.28004,0.0831 0.70319,0.19696 0.94067,0.25338 0.23696,0.0565 0.71551,0.15438 1.0633,0.21799 0.49957,0.0913 0.79859,0.11386 1.4269,0.10771 0.6237,-0.006 0.92221,-0.0344 1.3849,-0.13182 0.32415,-0.0687 0.77038,-0.19696 0.99094,-0.2857 0.22107,-0.0887 0.56626,-0.26773 0.76783,-0.39801 0.20157,-0.13028 0.54266,-0.37135 0.7586,-0.53548 0.21542,-0.16413 0.52009,-0.44007 0.67704,-0.61344 0.15694,-0.17336 0.36673,-0.48059 0.46572,-0.68319 0.099,-0.20209 0.21952,-0.51753 0.26774,-0.70064 0.0533,-0.20208 0.0892,-0.53548 0.0913,-0.8463 0.002,-0.2821 -0.0272,-0.64012 -0.0641,-0.79501 -0.0369,-0.15542 -0.16669,-0.48983 -0.28877,-0.74372 -0.12822,-0.26723 -0.33185,-0.58472 -0.48367,-0.75346 -0.14413,-0.16055 -0.42572,-0.40111 -0.62627,-0.53446 -0.20054,-0.13284 -0.56317,-0.31236 -0.80629,-0.39853 l -0.44213,-0.15695 -0.64114,0.002 c -0.45238,5.1e-4 -0.73859,0.0277 -0.97148,0.0918 -0.18208,0.0503 -0.47444,0.15643 -0.65089,0.23644 -0.17593,0.0795 -0.42417,0.21646 -0.55086,0.30365 -0.17234,0.11848 -0.28621,0.15797 -0.45188,0.15695 -0.12207,-9.3e-4 -0.39442,-0.0333 -0.60625,-0.0718 -0.21132,-0.0379 -0.53446,-0.12669 -0.71808,-0.19593 -0.18311,-0.0697 -0.50624,-0.21388 -0.71807,-0.32005 -0.21132,-0.10618 -0.56933,-0.29801 -0.79501,-0.42675 -0.22568,-0.12823 -0.6078,-0.36673 -0.84887,-0.53035 -0.24107,-0.16311 -0.58267,-0.42776 -0.75911,-0.58728 l -0.32057,-0.29031 0.0975,-0.10874 c 0.0533,-0.06 0.17131,-0.21849 0.26158,-0.35288 0.10002,-0.14823 0.24876,-0.2862 0.37956,-0.35288 0.11848,-0.06 0.36929,-0.25389 0.55753,-0.43084 0.18823,-0.17695 0.55394,-0.48573 0.81348,-0.68627 0.25952,-0.20004 0.65959,-0.48779 0.88887,-0.63807 0.22978,-0.15079 0.60215,-0.37852 0.82783,-0.50624 0.22568,-0.1272 0.66422,-0.31338 0.97453,-0.41392 0.31031,-0.10001 0.74885,-0.23029 0.97453,-0.28979 0.22568,-0.0595 0.61806,-0.14157 0.87195,-0.18311 0.25389,-0.0415 0.69243,-0.0754 0.97453,-0.0754 0.2821,0 0.72064,0.0251 0.97453,0.0559 0.25389,0.0308 0.71755,0.12053 1.0299,0.19952 0.31287,0.0785 0.81757,0.2421 1.1212,0.36314 0.30365,0.12105 0.75193,0.33391 0.99612,0.4729 0.24363,0.139 0.62575,0.38315 0.84886,0.54215 0.22312,0.159 0.62062,0.50214 0.88323,0.7627 0.26261,0.26056 0.62062,0.65293 0.79552,0.87194 0.17439,0.21901 0.47137,0.63139 0.65961,0.91657 0.18823,0.28467 0.47085,0.76937 0.62831,1.0771 0.15696,0.30723 0.35596,0.73551 0.44162,0.95045 0.0851,0.21543 0.22465,0.6078 0.30928,0.87195 0.0851,0.26466 0.20003,0.66524 0.25595,0.89092 0.0565,0.22569 0.12617,0.54882 0.15592,0.71808 0.0298,0.16926 0.12464,0.83861 0.21029,1.4874 0.0856,0.64883 0.23594,1.671 0.33339,2.2716 0.098,0.60063 0.27184,1.57 0.38725,2.1542 0.1149,0.58421 0.31237,1.5121 0.43854,2.0624 0.12618,0.54984 0.29954,1.2653 0.3852,1.59 0.0856,0.32416 0.2703,0.98994 0.41032,1.4792 0.14003,0.48932 0.38263,1.2859 0.53907,1.7695 0.15695,0.48419 0.47957,1.3618 0.71756,1.9506 0.23799,0.58883 0.59292,1.4259 0.78988,1.8599 0.19645,0.43391 0.52163,1.1176 0.72269,1.5197 0.20106,0.4016 0.57241,1.0951 0.82476,1.5403 0.25287,0.44521 0.69448,1.1607 0.98219,1.59 0.28723,0.42932 0.87707,1.253 1.3115,1.8316 0.43392,0.57804 1.0258,1.3402 1.3156,1.6926 0.28929,0.35288 0.83861,0.97969 1.2208,1.3925 0.38161,0.41341 1.0458,1.0791 1.4756,1.4798 0.43034,0.40109 1.1268,1.0171 1.548,1.3694 0.42111,0.35236 1.1376,0.91811 1.5926,1.2566 0.45495,0.33903 0.84938,0.63703 0.87605,0.66217 0.0287,0.0267 -3.875,0.0457 -9.4464,0.0457 h -9.4925 l -4.5439,-5.8426 c -2.4994,-3.2134 -4.6675,-5.9554 -4.8188,-6.0938 -0.15131,-0.13798 -0.43854,-0.33698 -0.63806,-0.44213 -0.19953,-0.10464 -0.54112,-0.23594 -0.7586,-0.29185 -0.22516,-0.0575 -0.56522,-0.10104 -0.78936,-0.10104 -0.22414,0 -0.5642,0.0436 -0.78937,0.10104 -0.21748,0.0559 -0.56163,0.18773 -0.76475,0.29338 -0.26876,0.13952 -0.50265,0.32519 -0.85758,0.68115 -0.34981,0.3498 -0.53549,0.58369 -0.65396,0.8222 -0.0913,0.18362 -0.21492,0.52932 -0.27493,0.76884 -0.0887,0.35289 -0.10412,0.52779 -0.0811,0.92324 0.0164,0.28108 0.0759,0.63961 0.14105,0.84682 0.0615,0.19747 0.1703,0.47444 0.24159,0.61549 0.0707,0.14105 2.2219,2.98 4.7803,6.3088 2.5579,3.3287 4.7121,6.1585 4.7865,6.2888 0.0749,0.12976 0.23952,0.36365 0.36673,0.51957 0.12668,0.15541 0.3775,0.40007 0.55702,0.54318 0.18003,0.14259 0.49803,0.35185 0.70782,0.46469 0.20926,0.11284 0.5883,0.2739 0.84219,0.35801 0.25389,0.0841 0.64627,0.17901 0.87195,0.2103 0.298,0.0415 6.8628,0.0528 24.004,0.0415 l 23.594,-0.0154 0.2821,-0.0882 c 0.15542,-0.0482 0.45547,-0.17286 0.66678,-0.27749 0.2898,-0.1431 0.49342,-0.29851 0.82733,-0.6319 0.37442,-0.37392 0.47855,-0.51753 0.67396,-0.9273 0.1272,-0.26671 0.25697,-0.59292 0.28825,-0.72525 0.0313,-0.13233 0.0565,-0.44418 0.0565,-0.69243 -5.1e-4,-0.24876 -0.0364,-0.60216 -0.0795,-0.78527 -0.0431,-0.18362 -0.16874,-0.5206 -0.27902,-0.74884 -0.13848,-0.28723 -0.31287,-0.536 -0.56368,-0.80476 -0.20004,-0.21389 -0.5124,-0.48265 -0.69449,-0.59805 -0.18259,-0.11489 -0.4411,-0.25235 -0.57548,-0.30467 -0.13387,-0.0529 -0.3734,-0.1231 -0.53189,-0.15593 -0.17952,-0.0369 -1.0412,-0.0661 -2.2824,-0.0779 -1.0966,-0.0102 -2.3517,-0.0447 -2.7892,-0.0764 -0.437,-0.0318 -1.1412,-0.0928 -1.5644,-0.13542 -0.42315,-0.0425 -1.249,-0.14668 -1.8352,-0.23081 -0.58574,-0.0841 -1.4859,-0.23439 -2.0004,-0.33389 -0.51393,-0.0995 -1.3961,-0.29288 -1.9603,-0.42983 -0.5642,-0.13694 -1.3259,-0.33288 -1.6926,-0.43597 -0.36673,-0.1031 -1.0242,-0.30467 -1.4618,-0.44725 -0.437,-0.1426 -1.1874,-0.40418 -1.667,-0.58113 -0.47957,-0.17696 -1.1232,-0.42931 -1.43,-0.56062 -0.30723,-0.13181 -0.92426,-0.42263 -1.3715,-0.64678 -0.44674,-0.22362 -1.073,-0.5606 -1.3905,-0.74833 -0.318,-0.18721 -0.88938,-0.54881 -1.2705,-0.80219 -0.38057,-0.25389 -0.83091,-0.56676 -1.0002,-0.69551 -0.16926,-0.12823 -0.5324,-0.41443 -0.80681,-0.63549 -0.27441,-0.22055 -0.88631,-0.75398 -1.3592,-1.1853 -0.4729,-0.43136 -1.1114,-1.0484 -1.4187,-1.3705 -0.30724,-0.32262 -0.81348,-0.88631 -1.1254,-1.253 -0.31134,-0.36673 -0.78988,-0.96687 -1.0633,-1.3336 -0.27337,-0.36673 -0.71499,-1.0018 -0.98172,-1.4105 -0.2662,-0.4093 -0.62421,-0.98633 -0.79501,-1.2823 -0.1708,-0.29647 -0.4729,-0.85041 -0.67191,-1.231 -0.19901,-0.38109 -0.5165,-1.0386 -0.70525,-1.4618 -0.18876,-0.42315 -0.45906,-1.0694 -0.60011,-1.4362 -0.14105,-0.36673 -0.417,-1.1278 -0.61241,-1.6916 -0.19542,-0.5642 -0.48111,-1.4413 -0.63498,-1.949 -0.15388,-0.50829 -0.4052,-1.4208 -0.55857,-2.027 -0.15336,-0.60678 -0.37083,-1.5531 -0.48316,-2.1029 -0.11181,-0.55036 -0.26209,-1.3813 -0.3339,-1.8465 -0.0718,-0.46572 -0.15387,-1.0428 -0.1826,-1.2823 -0.0287,-0.24005 -0.0985,-0.88631 -0.15439,-1.4362 -0.0564,-0.55036 -0.13797,-1.2079 -0.18156,-1.4618 -0.0436,-0.25389 -0.15746,-0.78475 -0.25338,-1.1797 -0.0959,-0.39494 -0.25902,-0.97194 -0.36263,-1.2823 -0.10361,-0.31031 -0.28825,-0.80938 -0.41084,-1.1089 -0.12207,-0.30005 -0.36468,-0.83092 -0.53907,-1.1797 -0.17387,-0.3493 -0.48777,-0.9238 -0.69704,-1.2761 -0.20979,-0.35288 -0.58267,-0.92221 -0.82887,-1.2658 -0.24568,-0.34314 -0.65446,-0.874 -0.90785,-1.1797 -0.25337,-0.30518 -0.71499,-0.81039 -1.0258,-1.1222 -0.31081,-0.31184 -0.81603,-0.76628 -1.1222,-1.01 -0.30671,-0.24363 -0.81449,-0.61395 -1.1284,-0.8227 -0.31441,-0.20927 -0.84783,-0.53343 -1.1859,-0.72116 -0.33801,-0.18773 -0.89041,-0.45751 -1.2269,-0.6001 -0.33698,-0.14208 -0.83809,-0.33698 -1.114,-0.4329 -0.27543,-0.0959 -0.83143,-0.25645 -1.235,-0.35647 -0.40315,-0.0995 -0.92942,-0.21491 -1.1695,-0.25543 -0.24004,-0.0405 -0.68986,-0.10361 -1.0002,-0.14003 -0.31133,-0.0359 -1.093,-0.0647 -1.7439,-0.0631 -0.81399,0.002 -1.3864,0.0303 -1.8465,0.0913 -0.36673,0.0493 -0.96687,0.15439 -1.3336,0.2344 -0.36673,0.0795 -0.96687,0.24261 -1.3336,0.36212 -0.36673,0.11899 -0.93191,0.33031 -1.2566,0.46931 -0.32416,0.13899 -0.84374,0.38571 -1.154,0.54882 -0.31031,0.16259 -0.80629,0.44161 -1.1028,0.61959 -0.29594,0.17798 -0.81655,0.51701 -1.1566,0.75244 -0.34006,0.23594 -0.91965,0.66883 -1.2884,0.96171 -0.36827,0.29338 -0.83656,0.69088 -1.0407,0.88322 -0.20414,0.19286 -0.43392,0.44367 -0.51086,0.55754 -0.0769,0.11335 -0.17028,0.28723 -0.20824,0.38622 -0.0379,0.0985 -0.10361,0.22003 -0.14567,0.26928 -0.0421,0.0493 -0.0944,0.0898 -0.11642,0.0898 -0.0221,0 -0.72834,-0.56625 -1.5695,-1.2582 -0.84066,-0.69191 -1.529,-1.2787 -1.529,-1.3039 0,-0.0251 0.854,-1.0218 1.8978,-2.2142 1.0438,-1.1925 2.0142,-2.3101 2.1568,-2.4836 0.14259,-0.17337 0.38263,-0.50778 0.53394,-0.74321 0.15079,-0.23543 0.37186,-0.63704 0.49136,-0.89297 0.119,-0.25544 0.28723,-0.68526 0.3734,-0.95553 0.0862,-0.26979 0.19799,-0.70833 0.24825,-0.97453 0.0697,-0.36571 0.0918,-0.73398 0.0908,-1.5095 -9.3e-4,-0.86886 -0.019,-1.1084 -0.11695,-1.5644 -0.0641,-0.29647 -0.19542,-0.77706 -0.29236,-1.0684 -0.0974,-0.29082 -0.30518,-0.78065 -0.46264,-1.0884 -0.15695,-0.30723 -0.42828,-0.76013 -0.60267,-1.0064 -0.17439,-0.2462 -0.53805,-0.66781 -0.80783,-0.93763 -0.2703,-0.26928 -0.6396,-0.62832 -0.82066,-0.79758 -0.18157,-0.16926 -0.47803,-0.51547 -0.65909,-0.76936 -0.18157,-0.25389 -0.34724,-0.51958 -0.36929,-0.58985 -0.0215,-0.0707 -0.0754,-0.33595 -0.11951,-0.58984 -0.0441,-0.25389 -0.0795,-0.51958 -0.079,-0.58985 5.2e-4,-0.0708 0.0354,-0.28877 0.0769,-0.48522 0.0415,-0.19643 0.12668,-0.4852 0.18926,-0.64113 0.0625,-0.15644 0.16002,-0.3534 0.21644,-0.43803 0.0559,-0.0846 0.20722,-0.27748 0.33545,-0.42879 0.12771,-0.15079 0.68833,-0.66627 1.2454,-1.1448 0.66268,-0.56934 1.1566,-1.0417 1.429,-1.3664 0.22876,-0.27287 0.58728,-0.75552 0.79757,-1.0725 0.20978,-0.31698 0.4647,-0.74372 0.56575,-0.94888 0.10155,-0.20517 0.23798,-0.51548 0.30364,-0.68987 0.0657,-0.17439 0.17643,-0.5206 0.24568,-0.76936 0.0697,-0.24876 0.18516,-0.73192 0.25645,-1.073 0.0718,-0.34161 0.15337,-0.86118 0.18106,-1.1551 0.0328,-0.34826 0.0333,-0.76269 5.2e-4,-1.1925 -0.0272,-0.36263 -0.0975,-0.88016 -0.15644,-1.151 -0.0585,-0.2703 -0.17439,-0.72372 -0.258,-1.0074 -0.0836,-0.28364 -0.19849,-0.64267 -0.25543,-0.79757 -0.0569,-0.15541 -0.24568,-0.55907 -0.41956,-0.89759 -0.17439,-0.33852 -0.49905,-0.8581 -0.72268,-1.154 -0.22364,-0.29647 -0.57857,-0.74218 -0.78937,-0.99095 -0.21029,-0.24876 -0.80322,-0.82066 -1.3172,-1.2715 -0.58625,-0.51394 -1.0858,-0.90529 -1.3397,-1.0509 -0.22312,-0.12721 -0.50676,-0.27646 -0.63036,-0.33083 -0.20106,-0.0898 -0.34673,-0.10002 -1.4028,-0.10002 -0.92268,0 -1.173,-0.0138 -1.153,-0.0641 0.0144,-0.0354 0.50983,-1.1951 1.1007,-2.5774 0.59087,-1.3823 1.1125,-2.6174 1.1597,-2.7441 0.0467,-0.12721 0.10258,-0.258 0.12362,-0.29082 0.0277,-0.0431 2.0809,0.43033 7.3725,1.7008 4.0335,0.96835 11.096,2.6641 15.694,3.7689 4.5982,1.1043 15.042,3.612 23.209,5.5727 8.1671,1.9609 15.802,3.7945 16.968,4.0746 l 2.1218,0.52213 h 2.9524 l 0.0928,-0.10258 c 0.0513,-0.0564 0.14157,-0.10258 0.20158,-0.10258 0.0661,0 0.24363,-0.13592 0.45392,-0.34776 0.2026,-0.20414 0.34468,-0.39083 0.34468,-0.45341 0,-0.0585 0.0461,-0.14772 0.10258,-0.19901 l 0.10258,-0.0928 v -3.1395 l -0.46162,-0.1785 -0.46213,-0.17849 -0.18772,-0.35956 c -0.10361,-0.19798 -0.40264,-0.73448 -0.66524,-1.1925 -0.26211,-0.45751 -0.71142,-1.2043 -0.99861,-1.6588 -0.28723,-0.45444 -0.82168,-1.2448 -1.1874,-1.7562 -0.36519,-0.51137 -0.92425,-1.2536 -1.2418,-1.649 -0.31749,-0.39596 -0.82989,-1.0084 -1.1386,-1.3608 -0.30877,-0.35288 -0.89452,-0.98477 -1.3023,-1.4049 -0.40725,-0.42006 -1.1905,-1.173 -1.7408,-1.6731 -0.54984,-0.50009 -1.3552,-1.2141 -1.789,-1.5864 -0.43391,-0.37237 -1.23,-1.0289 -1.7695,-1.4588 -0.53958,-0.43032 -1.3039,-1.0242 -1.6988,-1.3207 -0.39494,-0.29595 -1.0294,-0.75859 -1.4105,-1.0278 -0.38058,-0.26928 -1.0761,-0.74526 -1.5449,-1.0576 -0.46932,-0.31287 -1.2771,-0.83193 -1.7952,-1.1535 -0.51855,-0.32159 -1.3694,-0.82783 -1.8916,-1.1248 -0.52163,-0.29647 -1.4336,-0.79399 -2.026,-1.1053 -0.59241,-0.31134 -1.2961,-0.68525 -1.5644,-0.8304 -0.26774,-0.14516 -0.72936,-0.3816 -1.0258,-0.52471 -0.29595,-0.1431 -0.83861,-0.39289 -1.2053,-0.55548 -0.36673,-0.16209 -1.0479,-0.45136 -1.5131,-0.64268 -0.46521,-0.19132 -0.86682,-0.36621 -0.89246,-0.38827 -0.0251,-0.0221 -0.0754,-0.19696 -0.11182,-0.3893 -0.0359,-0.19182 -0.0805,-0.70679 -0.099,-1.1438 -0.0185,-0.43752 -0.01,-1.1761 0.0195,-1.6413 0.0293,-0.4652 0.10208,-1.1002 0.16157,-1.4105 0.0595,-0.31031 0.16619,-0.79501 0.23696,-1.0771 0.0708,-0.2821 0.22159,-0.80168 0.33545,-1.154 0.11387,-0.35288 0.30672,-0.88631 0.42879,-1.1859 0.12157,-0.30005 0.3616,-0.82476 0.53343,-1.1674 0.17131,-0.34211 0.46521,-0.88169 0.65293,-1.1987 0.18721,-0.31749 0.55446,-0.90221 0.81553,-1.2997 0.26108,-0.39699 0.74936,-1.0894 1.0853,-1.5387 0.33596,-0.4488 0.79193,-1.0356 1.014,-1.3033 0.22158,-0.26825 0.66217,-0.77603 0.97859,-1.1284 0.31698,-0.35289 0.98781,-1.0463 1.4915,-1.5413 0.50316,-0.49548 1.2612,-1.1971 1.6844,-1.5592 0.42315,-0.36263 1.2366,-1.0325 1.8074,-1.4895 0.57139,-0.45649 1.4946,-1.1628 2.0516,-1.5684 0.55755,-0.40622 1.4982,-1.0643 2.0907,-1.4628 0.59241,-0.39852 1.4464,-0.95552 1.8978,-1.2382 0.45136,-0.28262 1.3633,-0.82887 2.026,-1.2136 0.66319,-0.38469 2.0943,-1.1474 3.18,-1.6946 1.0863,-0.54676 2.2173,-1.0909 2.5133,-1.2089 0.29646,-0.11746 0.83861,-0.3416 1.2053,-0.49804 0.36673,-0.15644 0.86323,-0.38366 1.1028,-0.50522 0.24005,-0.12156 0.56933,-0.32724 0.73244,-0.457 0.16311,-0.13028 0.40314,-0.37956 0.53291,-0.55497 0.13029,-0.17491 0.30313,-0.45906 0.38418,-0.63088 0.0815,-0.17234 0.18413,-0.48368 0.22875,-0.69243 0.0569,-0.2662 0.0728,-0.52625 0.0539,-0.86733 -0.0164,-0.29441 -0.0713,-0.61908 -0.13797,-0.82066 -0.0611,-0.18362 -0.18003,-0.46418 -0.26517,-0.62421 -0.0846,-0.16003 -0.2621,-0.42469 -0.39392,-0.58831 -0.13181,-0.16413 -0.37032,-0.40315 -0.52983,-0.53137 -0.15901,-0.12875 -0.46419,-0.32006 -0.67756,-0.4252 -0.21286,-0.10567 -0.57856,-0.23594 -0.81142,-0.2898 -0.23338,-0.0538 -0.74731,-0.12566 -1.1422,-0.159 -0.46008,-0.0395 -2.1727,-0.0657 -4.7701,-0.0738 z m -8.8507,7.3659 c 0.0821,-0.005 -0.23747,0.23799 -0.92324,0.70013 -0.57651,0.38827 -1.3454,0.92268 -1.7085,1.1869 -0.36314,0.26415 -0.92887,0.68935 -1.2566,0.94483 -0.32826,0.25543 -0.98892,0.7904 -1.4684,1.1885 -0.47957,0.39852 -1.2412,1.0571 -1.6926,1.4634 -0.45136,0.40622 -1.3982,1.3161 -2.1045,2.0224 -0.70627,0.70628 -1.6162,1.6531 -2.0224,2.1045 -0.40622,0.45136 -0.94833,1.0859 -1.2053,1.4105 -0.25697,0.32415 -0.58472,0.75141 -0.72884,0.94888 -0.14414,0.19747 -0.45752,0.65909 -0.69654,1.0258 -0.23902,0.36673 -0.60062,0.95506 -0.80373,1.3079 -0.2026,0.35237 -0.58421,1.0679 -0.84784,1.59 -0.26363,0.52214 -0.5878,1.191 -0.71961,1.4874 -0.13182,0.29595 -0.35493,0.82476 -0.49547,1.1751 -0.14054,0.35032 -0.35647,0.94012 -0.4806,1.3115 -0.12412,0.37134 -0.30672,0.98477 -0.40571,1.3638 -0.099,0.37904 -0.23902,1.0089 -0.31083,1.4003 -0.0718,0.39136 -0.17593,1.1648 -0.23131,1.7182 -0.0553,0.55395 -0.12721,1.1987 -0.159,1.4331 -0.0493,0.36212 -0.0708,0.42161 -0.14209,0.3934 -0.0461,-0.0185 -1.2935,-0.48214 -2.7717,-1.0304 -2.1629,-0.80218 -2.7599,-1.0048 -3.0616,-1.0366 -0.20569,-0.0221 -0.54267,-0.0241 -0.74885,-0.004 -0.2062,0.0195 -0.52523,0.0862 -0.70834,0.14772 -0.1831,0.061 -0.49957,0.2144 -0.70268,0.34006 -0.2026,0.12618 -0.51086,0.38366 -0.68422,0.57344 -0.20927,0.22773 -0.39135,0.50009 -0.53959,0.80578 -0.1231,0.25389 -0.25902,0.61191 -0.3021,0.79501 -0.0431,0.18311 -0.0779,0.52933 -0.0779,0.76937 0,0.24004 0.0354,0.58574 0.0785,0.76834 0.0431,0.18311 0.15644,0.49496 0.25235,0.69243 0.0954,0.19799 0.27287,0.47598 0.39392,0.61806 0.12104,0.14156 0.33596,0.35647 0.47751,0.47803 0.14208,0.12105 0.44265,0.31185 0.66833,0.42417 0.22568,0.11232 0.44521,0.22466 0.48726,0.2503 0.0421,0.0257 2.3927,0.84374 5.223,1.8182 2.8302,0.97453 5.4958,1.9116 5.9241,2.0824 0.42777,0.1708 1.2048,0.49855 1.7269,0.72833 0.52215,0.2303 1.5608,0.72218 2.3081,1.093 0.74731,0.37084 1.7234,0.87503 2.1691,1.1196 0.44521,0.24466 1.1489,0.6437 1.5644,0.88682 0.41495,0.24311 1.2622,0.75346 1.8829,1.134 0.62062,0.38057 1.3823,0.85399 1.6926,1.0525 0.31031,0.19798 0.91041,0.60215 1.3336,0.89861 0.42315,0.29595 1.1504,0.82631 1.6157,1.1787 0.46572,0.35237 1.1807,0.90837 1.5895,1.2356 0.40879,0.32724 1.2048,0.98578 1.7695,1.4638 0.5642,0.47752 1.4187,1.2326 1.8983,1.6778 0.47957,0.44521 0.9725,0.92684 1.0956,1.0705 0.12258,0.14413 0.21182,0.27287 0.19797,0.28671 -0.0138,0.0144 -0.98015,-0.20464 -2.147,-0.48624 -1.1669,-0.2821 -6.8068,-1.6433 -12.533,-3.0262 -5.7266,-1.3823 -10.7,-2.583 -11.053,-2.6677 -0.35237,-0.0846 -1.0797,-0.26056 -1.6157,-0.39033 -0.53599,-0.13027 -2.9364,-0.70986 -5.3343,-1.2884 -2.3979,-0.57857 -4.7408,-1.1438 -5.206,-1.2561 -0.46521,-0.11284 -3.7663,-0.90939 -7.3346,-1.7701 -3.5683,-0.86118 -7.3423,-1.7716 -8.3861,-2.0234 -1.0438,-0.25184 -5.025,-1.212 -8.8477,-2.1337 -3.8222,-0.92119 -6.9679,-1.6906 -6.9904,-1.7095 -0.0221,-0.0195 0.0821,-0.11541 0.23081,-0.21338 0.14926,-0.098 0.59446,-0.33031 0.98938,-0.51547 0.39495,-0.18567 0.94889,-0.43546 1.231,-0.55497 0.2821,-0.11951 0.80219,-0.32724 1.1551,-0.4611 0.35339,-0.13336 0.93043,-0.33647 1.2823,-0.45034 0.35236,-0.11438 0.97812,-0.30057 1.3915,-0.41341 0.41341,-0.11284 1.2561,-0.31031 1.8721,-0.43853 0.61651,-0.12823 1.3977,-0.27902 1.7362,-0.33494 0.33852,-0.0559 0.9345,-0.13797 1.3238,-0.1826 0.38981,-0.0441 1.3131,-0.10053 2.0516,-0.12514 1.1597,-0.0385 1.3925,-0.06 1.7024,-0.15746 0.19747,-0.0621 0.51548,-0.19439 0.70679,-0.29441 0.19132,-0.0995 0.5124,-0.33391 0.71397,-0.5206 0.20158,-0.18619 0.44315,-0.45906 0.53702,-0.60575 0.0939,-0.1467 0.1708,-0.3134 0.1708,-0.36982 0,-0.0564 0.16413,-0.37494 0.36468,-0.7073 0.20004,-0.33287 0.596,-0.95146 0.87913,-1.3746 0.28312,-0.42315 0.78167,-1.1264 1.1079,-1.5634 0.32672,-0.43649 0.82476,-1.0709 1.1068,-1.4105 0.28261,-0.33903 0.78937,-0.92785 1.1258,-1.3089 0.33698,-0.3811 1.2956,-1.3746 2.1302,-2.2081 0.8345,-0.83348 1.9029,-1.8516 2.3738,-2.2624 0.47035,-0.41084 1.1977,-1.0232 1.6157,-1.3602 0.41752,-0.33699 1.0827,-0.85502 1.4777,-1.1515 0.39494,-0.29595 1.1448,-0.83861 1.667,-1.2059 0.52214,-0.36725 1.2602,-0.87554 1.6413,-1.13 0.38109,-0.25441 1.0156,-0.66627 1.4105,-0.91606 0.39494,-0.24928 1.1104,-0.68217 1.59,-0.96171 0.47958,-0.27953 1.3454,-0.75911 1.9234,-1.0659 0.57856,-0.30722 1.49,-0.76371 2.026,-1.0156 0.53599,-0.25184 1.2977,-0.59651 1.6926,-0.76628 0.39495,-0.16978 1.3412,-0.55497 2.1029,-0.85604 0.76167,-0.30108 1.8465,-0.71654 2.4107,-0.92222 0.5642,-0.20618 1.5223,-0.53701 2.1286,-0.735 0.60626,-0.19849 1.5967,-0.50317 2.2009,-0.67704 0.60369,-0.17439 1.6423,-0.45136 2.3081,-0.61652 0.66525,-0.16464 1.5792,-0.38057 2.0306,-0.47957 0.45136,-0.099 1.2362,-0.2621 1.7439,-0.36211 0.50778,-0.10002 1.4772,-0.27389 2.1542,-0.38623 0.67704,-0.11181 1.8311,-0.28466 2.5646,-0.38416 0.73346,-0.099 1.5069,-0.20056 1.7182,-0.22568 0.21183,-0.0251 0.4411,-0.0487 0.50982,-0.0523 z m -79.091,-3.512 c -0.18311,-0.0138 -0.48112,-0.003 -0.66114,0.0241 -0.18054,0.0267 -0.4688,0.0959 -0.64114,0.15336 -0.17234,0.0569 -0.47496,0.19849 -0.67243,0.31339 -0.19952,0.11643 -0.53034,0.38314 -0.74423,0.59959 -0.24722,0.24978 -0.45239,0.51804 -0.57292,0.74833 -0.1031,0.19747 -0.22414,0.50111 -0.26876,0.67499 -0.0446,0.17387 -0.0959,0.53189 -0.11336,0.79501 -0.0251,0.37597 -0.061,0.53395 -0.1667,0.73551 -0.0738,0.14105 -0.35134,0.48162 -0.61703,0.75706 -0.26517,0.27543 -0.69294,0.65909 -0.9499,0.85348 -0.25748,0.19388 -0.72115,0.51804 -1.031,0.71961 -0.30929,0.20106 -0.78219,0.47855 -1.0499,0.61601 -0.26774,0.13695 -0.77552,0.36981 -1.1284,0.5165 -0.35237,0.1472 -0.89349,0.3934 -1.2023,0.54727 -0.30877,0.15388 -0.72422,0.37443 -0.92323,0.48983 -0.19902,0.11592 -0.63909,0.39392 -0.97758,0.61858 -0.33852,0.22465 -0.77706,0.53753 -0.97453,0.69551 -0.19747,0.15797 -0.56368,0.48418 -0.81398,0.72474 -0.2503,0.24004 -0.63293,0.65807 -0.85041,0.92785 -0.21747,0.26979 -0.52368,0.69858 -0.68063,0.95193 -0.15695,0.25389 -0.35442,0.59856 -0.43905,0.76628 -0.0841,0.16721 -0.22568,0.50881 -0.3139,0.75859 -0.0877,0.24979 -0.21645,0.67653 -0.28518,0.94889 -0.0687,0.27184 -0.17235,0.75808 -0.2303,1.0802 -0.058,0.32262 -0.10514,0.67499 -0.10514,0.78373 0,0.10873 0.0441,0.32365 0.0985,0.47752 0.0544,0.15439 0.18517,0.42469 0.29184,0.60165 0.10618,0.17643 0.36725,0.4965 0.58113,0.7114 0.21338,0.21491 0.52061,0.47496 0.68269,0.57857 0.16208,0.1036 0.46214,0.25491 0.66678,0.33698 0.20465,0.0815 0.53138,0.17643 0.72629,0.21029 0.21234,0.0369 0.51496,0.0482 0.75449,0.0282 0.22004,-0.0185 0.55651,-0.0815 0.74833,-0.14003 0.19132,-0.0585 0.50983,-0.18926 0.7073,-0.29082 0.24722,-0.1272 0.48881,-0.31492 0.77706,-0.60318 0.33185,-0.33237 0.4611,-0.50778 0.62524,-0.84938 0.11335,-0.23646 0.2426,-0.60832 0.28671,-0.82579 0.0446,-0.21747 0.0805,-0.48931 0.0805,-0.60472 0,-0.11488 0.0493,-0.3062 0.10926,-0.42519 0.06,-0.119 0.20208,-0.34878 0.31595,-0.51189 0.13284,-0.19029 0.36314,-0.41187 0.64729,-0.62216 0.24209,-0.17952 0.57036,-0.40879 0.72885,-0.50932 0.15849,-0.10054 0.47034,-0.27441 0.69243,-0.38623 0.22209,-0.11181 0.64627,-0.30005 0.9427,-0.4175 0.29647,-0.11797 0.92841,-0.40931 1.4043,-0.64781 0.47599,-0.2385 1.111,-0.57446 1.4105,-0.7468 0.29953,-0.17234 0.82168,-0.49701 1.1602,-0.72218 0.33853,-0.22516 0.83502,-0.57343 1.1028,-0.77347 0.26774,-0.20003 0.74218,-0.61857 1.054,-0.92942 0.31133,-0.31133 0.73603,-0.78527 0.94372,-1.053 0.20773,-0.26826 0.497,-0.67191 0.64318,-0.89759 0.14618,-0.22568 0.38417,-0.62986 0.5283,-0.8976 0.14413,-0.26825 0.35442,-0.76423 0.46675,-1.1028 0.11284,-0.33852 0.24261,-0.83502 0.28877,-1.1028 0.0462,-0.26825 0.0862,-0.74115 0.0898,-1.0515 0.004,-0.31031 -0.0236,-0.70268 -0.0605,-0.87194 -0.0369,-0.16926 -0.12464,-0.44623 -0.1949,-0.61549 -0.0708,-0.16926 -0.23081,-0.46265 -0.35596,-0.6514 -0.12515,-0.18926 -0.3775,-0.48111 -0.5601,-0.64831 -0.1826,-0.16772 -0.48726,-0.38571 -0.67704,-0.48522 -0.18977,-0.0995 -0.48367,-0.21594 -0.65293,-0.2585 -0.16926,-0.0426 -0.45752,-0.0892 -0.64114,-0.1031 z m 2.6764,11.36 c -0.13233,0.004 -0.35595,0.0236 -0.49752,0.0446 -0.14207,0.0205 -0.39596,0.0775 -0.5642,0.12618 -0.16874,0.0487 -0.48675,0.18208 -0.70628,0.29595 -0.24158,0.12566 -0.54933,0.34724 -0.7786,0.56164 -0.20875,0.1949 -0.47546,0.50573 -0.59241,0.6914 -0.11745,0.18567 -0.26979,0.49085 -0.33903,0.67756 -0.0693,0.18721 -0.16618,0.37494 -0.21543,0.4175 -0.0492,0.0421 -0.16105,0.18055 -0.24876,0.30775 -0.0872,0.12669 -0.4211,0.48572 -0.74167,0.79757 -0.3257,0.31647 -0.79603,0.70834 -1.0663,0.88836 -0.26619,0.17747 -0.61241,0.38673 -0.76936,0.46521 -0.15696,0.079 -0.53958,0.25235 -0.84989,0.38622 -0.31031,0.13336 -0.79501,0.38007 -1.0771,0.54728 -0.2821,0.16721 -0.66268,0.42982 -0.8463,0.58317 -0.18311,0.15388 -0.55292,0.45598 -0.82066,0.67243 -0.26774,0.21645 -0.80014,0.7073 -1.1833,1.091 -0.38264,0.38417 -0.86477,0.91708 -1.072,1.1853 -0.2067,0.26774 -0.62164,0.85708 -0.92221,1.3085 -0.32005,0.48162 -0.62523,1.0094 -0.73654,1.2761 -0.10515,0.2503 -0.23902,0.63088 -0.29851,0.84578 -0.059,0.21491 -0.15131,0.52984 -0.20465,0.70013 -0.0533,0.16977 -0.13284,0.48161 -0.17696,0.69242 -0.0528,0.25389 -0.0892,0.80835 -0.10873,1.6434 -0.019,0.83296 -0.008,1.4413 0.0328,1.7952 0.0333,0.29441 0.10771,0.77706 0.16465,1.0735 0.0564,0.29595 0.20414,0.84579 0.32775,1.2208 0.14618,0.44418 0.46879,1.1879 0.92425,2.1286 0.3852,0.79553 0.91452,1.9194 1.1771,2.4979 0.2621,0.57805 0.67756,1.5243 0.92268,2.1029 0.24568,0.57805 0.52369,1.2705 0.61858,1.5387 0.0944,0.26774 0.25953,0.84476 0.36621,1.2823 l 0.19388,0.79501 0.0262,14.618 0.0257,14.618 0.0954,0.2821 c 0.0528,0.1549 0.17183,0.43341 0.26467,0.61806 0.0934,0.18465 0.27441,0.46521 0.40315,0.62267 0.12823,0.15747 0.37853,0.39597 0.55548,0.53035 0.17747,0.13387 0.48162,0.32006 0.67653,0.41392 0.19439,0.0939 0.52625,0.20927 0.73705,0.25594 0.27338,0.0611 0.52573,0.0785 0.87707,0.0605 0.34827,-0.0174 0.60524,-0.0636 0.8699,-0.15695 0.20722,-0.0723 0.50522,-0.20824 0.6632,-0.30211 0.15746,-0.0939 0.44982,-0.33339 0.64935,-0.5324 0.20003,-0.199 0.45033,-0.51035 0.55702,-0.69243 0.10617,-0.18157 0.25645,-0.51496 0.33339,-0.74064 l 0.13951,-0.41033 0.0277,-16.337 0.0277,-16.337 0.10976,-0.48727 c 0.0605,-0.26825 0.16977,-0.76423 0.24363,-1.1028 0.0734,-0.33852 0.18157,-0.78886 0.24004,-1.0002 0.0585,-0.21183 0.17337,-0.5324 0.25492,-0.71294 0.0815,-0.18054 0.24415,-0.4806 0.36108,-0.66678 0.11746,-0.18619 0.29134,-0.43444 0.38673,-0.55138 0.0954,-0.11746 0.3493,-0.33442 0.56369,-0.48316 0.2149,-0.14823 0.70422,-0.4252 1.0879,-0.61498 0.38366,-0.19029 0.90529,-0.48265 1.1592,-0.64985 0.2539,-0.16772 0.64627,-0.45085 0.87195,-0.62934 0.22568,-0.179 0.61498,-0.52317 0.86477,-0.76526 0.24979,-0.24209 0.62165,-0.63653 0.8263,-0.87605 0.20414,-0.24005 0.50574,-0.63242 0.66935,-0.87195 0.16362,-0.24004 0.41956,-0.68986 0.56881,-1.0002 0.15644,-0.32622 0.32827,-0.79143 0.40777,-1.1028 0.10104,-0.39699 0.13746,-0.66678 0.13746,-1.0258 0,-0.29544 -0.0339,-0.61857 -0.0872,-0.82066 -0.0482,-0.1831 -0.1549,-0.47546 -0.23748,-0.64935 -0.0826,-0.17336 -0.27441,-0.47495 -0.42674,-0.66934 -0.15234,-0.19439 -0.40007,-0.44778 -0.55086,-0.56216 -0.1508,-0.11438 -0.37802,-0.26723 -0.50522,-0.33903 -0.12669,-0.0718 -0.39238,-0.18106 -0.58985,-0.24261 -0.25953,-0.0816 -0.49393,-0.11284 -0.8463,-0.11489 -0.29595,-0.001 -0.60985,0.0308 -0.79962,0.0815 -0.17183,0.0462 -0.42572,0.13387 -0.5642,0.19491 -0.13849,0.061 -0.39392,0.20003 -0.56729,0.30928 -0.17284,0.10925 -0.47598,0.36827 -0.67293,0.57549 -0.23389,0.24671 -0.42828,0.51649 -0.56215,0.78116 -0.11233,0.22209 -0.24825,0.48367 -0.3016,0.58113 -0.0533,0.0975 -0.21234,0.3021 -0.35339,0.45444 -0.14105,0.15285 -0.43546,0.41289 -0.65448,0.57754 -0.23593,0.17798 -0.77808,0.48778 -1.3336,0.76167 -0.65755,0.32468 -1.1336,0.60319 -1.6023,0.93809 -0.36673,0.2621 -0.87656,0.68422 -1.133,0.93809 -0.25645,0.25389 -0.63344,0.68063 -0.8386,0.94889 -0.20465,0.26773 -0.38777,0.49341 -0.40674,0.5006 -0.019,0.007 -0.119,-0.15439 -0.2226,-0.35904 -0.1031,-0.20465 -0.21338,-0.4647 -0.24466,-0.57754 -0.0313,-0.11284 -0.0708,-0.46316 -0.0877,-0.77808 -0.02,-0.37288 -0.008,-0.68678 0.0328,-0.89759 0.0354,-0.1785 0.14003,-0.52676 0.23286,-0.77398 0.10412,-0.27646 0.31749,-0.67191 0.55548,-1.0294 0.21286,-0.31903 0.55549,-0.76167 0.76219,-0.98329 0.20671,-0.22158 0.55702,-0.53753 0.7786,-0.70217 0.22158,-0.16465 0.71756,-0.45495 1.1028,-0.64524 0.38468,-0.1903 0.85194,-0.40982 1.0386,-0.48881 0.18619,-0.079 0.5842,-0.28005 0.88477,-0.44675 0.30005,-0.16721 0.74577,-0.43545 0.98993,-0.596 0.24415,-0.16105 0.67704,-0.47752 0.96171,-0.70371 0.28467,-0.22619 0.81501,-0.70114 1.1787,-1.0555 0.36314,-0.35443 0.86886,-0.8858 1.1228,-1.1802 0.25441,-0.29441 0.58728,-0.72679 0.73962,-0.96115 0.15285,-0.2344 0.39033,-0.66268 0.52829,-0.95193 0.13797,-0.28928 0.30723,-0.72269 0.37648,-0.96226 0.0692,-0.24004 0.15028,-0.63857 0.18054,-0.88631 0.0385,-0.31339 0.039,-0.57856 0.003,-0.86938 -0.0287,-0.23029 -0.099,-0.55856 -0.15541,-0.72936 -0.0569,-0.1708 -0.19542,-0.46623 -0.30723,-0.65652 -0.1107,-0.19096 -0.3238,-0.47048 -0.47232,-0.62269 -0.1476,-0.15129 -0.40221,-0.3607 -0.56457,-0.46402 -0.16236,-0.10424 -0.43911,-0.24354 -0.61623,-0.30996 -0.17644,-0.0662 -0.50009,-0.14566 -0.71859,-0.17593 -0.21901,-0.0303 -0.50624,-0.0523 -0.63806,-0.0492 z m 52.154,49.213 c -0.66319,-0.01 -1.39,-0.009 -1.6157,0.001 -0.22568,0.0103 -0.84886,0.0544 -1.3848,0.098 -0.53599,0.0436 -1.4315,0.12515 -1.9901,0.18157 -0.6991,0.0703 -1.1382,0.14105 -1.4105,0.22773 -0.21696,0.0687 -0.54316,0.21235 -0.72474,0.31852 -0.18106,0.10669 -0.48726,0.35237 -0.68011,0.54574 -0.25133,0.25286 -0.40777,0.46931 -0.556,0.76936 -0.11284,0.22978 -0.24158,0.59036 -0.28569,0.80219 -0.0543,0.26005 -0.0697,0.4965 -0.0477,0.72988 0.0184,0.19028 0.0795,0.51239 0.13592,0.71601 0.0565,0.20414 0.20516,0.56933 0.33032,0.81143 0.12514,0.24209 0.32569,0.55599 0.44571,0.69756 0.12002,0.14156 0.34006,0.35954 0.48983,0.4847 0.14926,0.12515 0.39135,0.28979 0.53856,0.3657 0.14669,0.0765 0.43649,0.17747 0.64421,0.22465 0.25492,0.0579 0.50419,0.078 0.76783,0.0611 0.33544,-0.0216 0.41033,-0.0102 0.52984,0.078 0.11334,0.0836 0.18515,0.0969 0.38314,0.0697 0.13386,-0.0185 0.75295,-0.0908 1.3751,-0.16054 0.62216,-0.0697 1.5321,-0.14977 2.0219,-0.17747 0.57753,-0.0323 1.2258,-0.0328 1.8434,-5.1e-4 0.5242,0.0272 1.2741,0.0964 1.6664,0.15387 0.39289,0.0575 1.0176,0.1826 1.3884,0.27851 0.37083,0.0954 0.94483,0.26774 1.2751,0.38212 0.33083,0.1149 0.9309,0.34929 1.3336,0.52112 0.40315,0.17131 0.98735,0.44367 1.2987,0.60472 0.31186,0.16106 0.8099,0.43956 1.1074,0.61805 0.298,0.17901 0.80886,0.51241 1.1356,0.74167 0.32672,0.22927 0.84425,0.62421 1.1494,0.8781 0.30518,0.25389 1.0981,1.0038 1.7619,1.667 0.6637,0.66268 1.5203,1.5628 1.9024,2.0004 0.38263,0.437 0.91708,1.0653 1.1879,1.3956 0.27082,0.33083 0.82527,1.0463 1.232,1.59 0.40674,0.54419 0.94685,1.2895 1.2002,1.6562 0.25287,0.36673 0.69089,1.0242 0.97296,1.4618 0.28262,0.437 0.90118,1.4413 1.3746,2.2312 0.47394,0.78988 1.2418,2.0132 1.707,2.7184 0.46471,0.70525 1.0012,1.467 1.192,1.6926 0.19081,0.22568 0.70577,0.78834 1.1443,1.25 0.43905,0.46162 0.97858,1.0012 1.1992,1.1987 0.22056,0.19747 0.67089,0.56215 1.0002,0.8104 0.3298,0.24876 0.86989,0.62831 1.2007,0.84425 0.33083,0.21542 0.79656,0.4729 1.035,0.57138 0.2385,0.099 0.68217,0.26825 0.98532,0.37699 0.30313,0.10874 0.88015,0.28005 1.2813,0.38109 0.4016,0.10104 0.994,0.21799 1.3172,0.26056 0.32365,0.0421 0.90426,0.0769 1.2905,0.0764 0.38673,0 1.0146,-0.0349 1.3951,-0.0774 0.38109,-0.0421 0.95811,-0.12362 1.2823,-0.18106 0.32468,-0.0575 0.92481,-0.18517 1.3336,-0.28313 0.4093,-0.098 0.93911,-0.23799 1.1787,-0.31082 0.23901,-0.0723 0.59651,-0.21337 0.79501,-0.31236 0.25799,-0.12977 0.47649,-0.29903 0.77141,-0.59754 0.30108,-0.30519 0.46265,-0.52112 0.60216,-0.80476 0.10515,-0.21286 0.23747,-0.56882 0.29389,-0.79039 0.0682,-0.26723 0.1031,-0.56985 0.1031,-0.89914 0,-0.32621 -0.0349,-0.63601 -0.10206,-0.9022 -0.0565,-0.22312 -0.18876,-0.57908 -0.2939,-0.7904 -0.13951,-0.27902 -0.30468,-0.49855 -0.60319,-0.7986 -0.30877,-0.31083 -0.50726,-0.46111 -0.79603,-0.60216 -0.21184,-0.10309 -0.52317,-0.22362 -0.69243,-0.26722 -0.17541,-0.0451 -0.53138,-0.08 -0.82887,-0.0811 -0.4611,-0.002 -0.62062,0.0246 -1.3848,0.23133 -0.47495,0.12822 -1.0715,0.27081 -1.3254,0.31646 -0.25389,0.0457 -0.8227,0.0954 -1.2643,0.11028 -0.49393,0.0164 -0.96115,0.004 -1.214,-0.0328 -0.22568,-0.0333 -0.64576,-0.11746 -0.93403,-0.1867 -0.28773,-0.0697 -0.74526,-0.23235 -1.0172,-0.3616 l -0.49444,-0.23492 -0.71859,-0.72627 c -0.39494,-0.39956 -0.89092,-0.96069 -1.1028,-1.248 -0.21132,-0.28672 -0.51394,-0.70218 -0.67242,-0.92324 -0.1585,-0.22055 -0.72577,-1.0597 -1.2607,-1.8634 -0.53497,-0.80424 -1.2802,-1.9547 -1.6562,-2.5574 -0.37648,-0.60267 -0.94989,-1.4798 -1.2746,-1.9491 -0.32468,-0.46931 -0.85503,-1.2115 -1.1787,-1.6485 -0.32365,-0.43751 -0.79707,-1.0607 -1.0515,-1.3848 -0.25491,-0.32468 -0.67243,-0.84374 -0.92785,-1.154 -0.25542,-0.31031 -0.86784,-1.0376 -1.3608,-1.6157 -0.49239,-0.57856 -1.3469,-1.5023 -1.8983,-2.0537 -0.55138,-0.55138 -1.3259,-1.2787 -1.7208,-1.6167 -0.39494,-0.338 -1.0064,-0.83604 -1.3592,-1.1068 -0.35237,-0.27082 -0.93662,-0.70218 -1.2981,-0.95867 -0.36161,-0.25696 -0.97047,-0.66524 -1.3536,-0.90835 -0.38314,-0.24261 -0.99713,-0.61601 -1.3644,-0.82939 -0.36724,-0.21388 -1.0622,-0.56112 -1.5444,-0.77193 -0.48214,-0.2108 -1.1304,-0.48162 -1.4408,-0.60215 -0.31031,-0.12002 -0.81605,-0.30262 -1.1238,-0.40572 -0.30775,-0.10258 -0.82681,-0.25389 -1.154,-0.33595 -0.32672,-0.0821 -0.84733,-0.19747 -1.1566,-0.25646 -0.30877,-0.0595 -0.78219,-0.14053 -1.0515,-0.18106 -0.26927,-0.0405 -0.84681,-0.10925 -1.2843,-0.15335 -0.437,-0.0441 -1.3372,-0.0882 -2.0004,-0.0985 z m -5.8728,12.001 c -0.59241,-0.0108 -1.1925,-0.0102 -1.3336,5.1e-4 -0.14105,0.0102 -0.54368,0.0441 -0.89451,0.0749 -0.35083,0.0303 -0.98532,0.11232 -1.4105,0.18156 -0.42469,0.0697 -1.1068,0.20825 -1.5161,0.30826 -0.40879,0.10002 -1.1474,0.31647 -1.6413,0.48112 -0.49342,0.16463 -1.2438,0.4452 -1.667,0.62369 l -0.76936,0.32417 -0.45341,0.43597 c -0.24928,0.23953 -0.576,0.62062 -0.72629,0.84732 -0.15028,0.22619 -0.33441,0.54984 -0.40878,0.7191 -0.0744,0.16926 -0.18363,0.4924 -0.24261,0.71808 -0.0723,0.27748 -0.10669,0.5683 -0.10669,0.89759 0,0.28262 0.0359,0.62729 0.0846,0.82065 0.0467,0.18311 0.16875,0.50522 0.27184,0.71551 0.13285,0.27236 0.29236,0.48829 0.55394,0.74988 0.28775,0.28774 0.47239,0.41853 0.85143,0.60472 0.26621,0.1308 0.62216,0.27338 0.79142,0.31697 0.16926,0.0436 0.5047,0.0934 0.74577,0.10977 0.31237,0.0216 0.56011,0.006 0.86733,-0.0569 0.25544,-0.0518 0.66114,-0.19284 0.99861,-0.34723 0.31237,-0.1426 0.8222,-0.3575 1.1325,-0.47701 0.31031,-0.11951 0.77193,-0.27595 1.0258,-0.34724 0.25389,-0.0713 0.66935,-0.17747 0.92324,-0.23594 0.25389,-0.0579 0.75039,-0.1431 1.1028,-0.18927 0.48828,-0.0641 0.89759,-0.0785 1.7182,-0.0595 0.79143,0.0185 1.2454,0.0549 1.7116,0.13746 0.3493,0.0621 0.9176,0.19029 1.2638,0.28518 0.34621,0.0949 0.85706,0.25748 1.135,0.3616 0.27801,0.1036 0.72731,0.28825 0.99759,0.4093 0.27082,0.12156 0.73244,0.36468 1.0258,0.5401 0.2939,0.17593 0.67243,0.41237 0.84169,0.52521 0.16926,0.11336 0.57344,0.40213 0.89759,0.64166 0.32416,0.23953 0.86682,0.67139 1.2053,0.95967 0.33852,0.28827 0.9427,0.85606 1.3428,1.2612 0.40007,0.4052 0.90477,0.94482 1.1212,1.1987 0.21696,0.25389 0.58626,0.71808 0.82066,1.0314 0.23491,0.31338 0.55241,0.76474 0.70576,1.0022 0.15336,0.23799 0.48214,0.77758 0.72988,1.1997 0.24824,0.42212 0.6996,1.2751 1.0032,1.8957 0.30365,0.62062 0.70167,1.509 0.88427,1.9747 0.1831,0.4652 0.43956,1.1813 0.57087,1.59 0.13079,0.40879 0.31594,1.0551 0.41135,1.4362 0.0954,0.38057 0.23081,0.99251 0.30056,1.3592 0.0703,0.36673 0.14259,0.79347 0.16106,0.94888 0.0185,0.15541 0.11489,0.7668 0.21336,1.3592 0.099,0.59241 0.28314,1.5706 0.40931,2.1737 0.12618,0.60369 0.34519,1.5844 0.48676,2.1799 0.14105,0.596 0.36056,1.4972 0.48777,2.0034 0.12668,0.50573 0.34827,1.2444 0.49188,1.6413 0.14362,0.39648 0.4211,1.1017 0.61703,1.5674 0.19542,0.46521 0.57036,1.273 0.83194,1.7952 0.2621,0.52162 0.62985,1.2125 0.81758,1.5347 0.18773,0.32262 0.47342,0.76988 0.63498,0.99501 0.16105,0.22465 0.50316,0.65345 0.75911,0.95248 0.25645,0.29954 0.82527,0.89349 1.2648,1.3197 0.43957,0.42674 1.0612,0.97296 1.3818,1.2135 0.32108,0.24107 0.83809,0.59959 1.1494,0.79758 0.31134,0.19747 0.86477,0.52676 1.2294,0.7314 0.36519,0.20466 0.90631,0.48574 1.2023,0.62473 0.29646,0.139 0.80424,0.36468 1.1284,0.50111 0.32467,0.13644 0.97093,0.37751 1.4362,0.53651 0.46572,0.15848 1.2043,0.37853 1.6413,0.4888 0.43751,0.11028 1.1992,0.28056 1.6926,0.37802 0.49394,0.098 1.2849,0.23748 1.7588,0.31133 0.47342,0.0733 1.2582,0.1785 1.7439,0.23338 0.48522,0.0549 1.31,0.13489 1.8316,0.17747 0.52214,0.0425 1.8424,0.10412 2.9338,0.13694 l 1.9855,0.0595 0.28876,-0.11027 c 0.159,-0.0611 0.3293,-0.1108 0.37802,-0.1108 0.0493,0 0.23594,-0.12668 0.41494,-0.2821 0.17901,-0.15489 0.34519,-0.2821 0.3693,-0.2821 0.0241,0 0.0667,-0.0518 0.0944,-0.1154 0.0282,-0.0636 0.11438,-0.20978 0.19132,-0.32518 0.0769,-0.11541 0.19183,-0.28877 0.25543,-0.38469 0.0631,-0.0964 0.11489,-0.24927 0.1154,-0.33955 0,-0.0908 0.0461,-0.2821 0.10259,-0.4252 0.0795,-0.20157 0.10258,-0.38109 0.10258,-0.79501 0,-0.41391 -0.0231,-0.59343 -0.10258,-0.79501 -0.0565,-0.1431 -0.10259,-0.30107 -0.10259,-0.35134 0,-0.0497 -0.10668,-0.21594 -0.23748,-0.36878 -0.13079,-0.15337 -0.27184,-0.33083 -0.31389,-0.39494 -0.0415,-0.0636 -0.10515,-0.11592 -0.14054,-0.11592 -0.0359,0 -0.34058,-0.27389 -0.67756,-0.60832 -0.33647,-0.33441 -0.80526,-0.84835 -1.0412,-1.1412 -0.23594,-0.29287 -0.61858,-0.82168 -0.84989,-1.1741 -0.23184,-0.35288 -0.59806,-0.97093 -0.8145,-1.3736 -0.21594,-0.40314 -0.45188,-0.88784 -0.52369,-1.0771 -0.0723,-0.18978 -0.17592,-0.5524 -0.23132,-0.80629 -0.0682,-0.31544 -0.10873,-0.7545 -0.12772,-1.3849 -0.0216,-0.70884 -0.008,-1.0381 0.0539,-1.4192 0.0447,-0.27235 0.14874,-0.68781 0.23132,-0.92323 0.0826,-0.23492 0.26518,-0.74167 0.40572,-1.1258 0.14053,-0.38418 0.28107,-0.74578 0.31184,-0.80425 0.0313,-0.0585 0.0569,-0.15079 0.0569,-0.20568 0,-0.0549 0.0805,-0.23388 0.17952,-0.39801 0.0985,-0.16362 0.2226,-0.41495 0.27594,-0.55753 0.0529,-0.14259 0.12515,-0.43239 0.16055,-0.6437 0.0375,-0.22312 0.0513,-0.54472 0.0333,-0.76937 -0.0169,-0.21183 -0.0672,-0.52368 -0.11182,-0.69294 -0.0447,-0.16926 -0.159,-0.46932 -0.2544,-0.66679 -0.0954,-0.19747 -0.30006,-0.51188 -0.45444,-0.69807 -0.16362,-0.19747 -0.42777,-0.43494 -0.63191,-0.56881 -0.19285,-0.12567 -0.47392,-0.28056 -0.62472,-0.34365 -0.15028,-0.0625 -0.44674,-0.14721 -0.65806,-0.18773 -0.21183,-0.0405 -0.5524,-0.0739 -0.75706,-0.0739 -0.20465,0 -0.54625,0.0447 -0.75911,0.099 -0.21336,0.0543 -0.52367,0.16772 -0.68986,0.25183 -0.1667,0.0841 -0.42213,0.26005 -0.56779,0.39085 -0.14566,0.1313 -0.44726,0.4852 -0.66986,0.7868 -0.2226,0.3021 -0.51086,0.71499 -0.64114,0.91759 -0.12976,0.20312 -0.30877,0.51343 -0.39801,0.68986 -0.0893,0.17696 -0.26313,0.58267 -0.38674,0.90272 -0.12361,0.31955 -0.30672,0.86273 -0.40673,1.2069 -0.10002,0.34417 -0.23698,0.90324 -0.30519,1.2422 -0.0677,0.33852 -0.15028,0.85759 -0.18362,1.1525 -0.0385,0.338 -0.0507,0.91811 -0.0333,1.5644 0.019,0.69038 0.0636,1.2382 0.13643,1.669 0.0595,0.35237 0.17593,0.89503 0.25799,1.2053 0.0826,0.31031 0.23389,0.80579 0.33648,1.1007 0.10258,0.29492 0.30005,0.78885 0.43853,1.0981 0.13797,0.30877 0.2898,0.60421 0.33647,0.65602 0.0605,0.0661 0.0661,0.0944 0.02,0.0944 -0.0359,0 -0.3457,-0.0569 -0.68832,-0.12618 -0.34212,-0.0693 -0.97508,-0.23132 -1.4059,-0.35954 -0.43084,-0.12875 -1.1464,-0.36161 -1.5895,-0.51804 -0.44316,-0.15644 -1.1981,-0.47753 -1.6778,-0.71346 -0.47957,-0.23594 -1.0797,-0.56523 -1.3336,-0.73141 -0.25389,-0.16669 -0.64012,-0.44726 -0.85861,-0.62318 -0.21799,-0.17645 -0.57293,-0.52112 -0.78835,-0.76578 -0.21542,-0.24466 -0.52368,-0.61857 -0.68576,-0.82989 -0.16157,-0.21183 -0.43597,-0.60113 -0.60934,-0.86528 -0.17335,-0.26415 -0.53086,-0.91041 -0.79347,-1.4362 -0.26261,-0.52573 -0.596,-1.2556 -0.74013,-1.6223 -0.14412,-0.36674 -0.32262,-0.85144 -0.39596,-1.0771 -0.0739,-0.22568 -0.25902,-0.90682 -0.41187,-1.5131 -0.15284,-0.60677 -0.33801,-1.3797 -0.41135,-1.7182 -0.0739,-0.33852 -0.40725,-1.966 -0.74116,-3.616 -0.33441,-1.6505 -0.69191,-3.3355 -0.79449,-3.7442 -0.10259,-0.40878 -0.28826,-1.091 -0.4129,-1.5151 -0.12412,-0.42419 -0.32108,-1.0474 -0.43751,-1.3849 -0.11643,-0.33749 -0.32313,-0.90221 -0.45957,-1.2546 -0.13643,-0.35288 -0.36211,-0.90733 -0.50162,-1.232 -0.13952,-0.32519 -0.46059,-1.0058 -0.71448,-1.5131 -0.25339,-0.50727 -0.66422,-1.2684 -0.91196,-1.6916 -0.24825,-0.42315 -0.6755,-1.1043 -0.94888,-1.5131 -0.27389,-0.40931 -0.73911,-1.0669 -1.0345,-1.4618 -0.29492,-0.39494 -0.80014,-1.0299 -1.1222,-1.4105 -0.32261,-0.38109 -0.95552,-1.0699 -1.4075,-1.5315 -0.45136,-0.46162 -1.0833,-1.0735 -1.4039,-1.3592 -0.32005,-0.28619 -0.90887,-0.78167 -1.3079,-1.1012 -0.39853,-0.31955 -1.0253,-0.78322 -1.392,-1.0304 -0.36673,-0.24773 -0.88579,-0.57702 -1.154,-0.73243 -0.26773,-0.15542 -0.67191,-0.38058 -0.89759,-0.50009 -0.22568,-0.11899 -0.66422,-0.33237 -0.97453,-0.47393 -0.31031,-0.14156 -0.88733,-0.38468 -1.2823,-0.54009 -0.39494,-0.15593 -1.0166,-0.38469 -1.3813,-0.5083 -0.36468,-0.12361 -0.94169,-0.29236 -1.2823,-0.37493 -0.34057,-0.0831 -0.90733,-0.19747 -1.2602,-0.25493 -0.35237,-0.0575 -0.88323,-0.12873 -1.1797,-0.15848 -0.29594,-0.0298 -1.0232,-0.0625 -1.6157,-0.0729 z"
       id="icon" /></g></svg>