<?xml version="1.0" encoding="UTF-8" standalone="no"?>
<svg
   xmlns:dc="http://purl.org/dc/elements/1.1/"
   xmlns:cc="http://creativecommons.org/ns#"
   xmlns:rdf="http://www.w3.org/1999/02/22-rdf-syntax-ns#"
   xmlns:svg="http://www.w3.org/2000/svg"
   xmlns="http://www.w3.org/2000/svg"
   id="svg9"
   xml:space="preserve"
   viewBox="0 0 1024 768"
   y="0px"
   x="0px"
   version="1.1"><metadata
     id="metadata15"><rdf:RDF><cc:Work
         rdf:about=""><dc:format>image/svg+xml</dc:format><dc:type
           rdf:resource="http://purl.org/dc/dcmitype/StillImage" /></cc:Work></rdf:RDF></metadata><defs
     id="defs13" /><linearGradient
     y2="565.2551"
     x2="714.6448"
     y1="196.7104"
     x1="346.1001"
     gradientUnits="userSpaceOnUse"
     id="SVGID_1_"><stop
       id="stop2"
       style="stop-color:#ed952f"
       offset="0" /><stop
       id="stop4"
       style="stop-color:#2cb1bc"
       offset="1" /></linearGradient><path
     id="path7"
     d="m713.67 307.37c-0.25-0.02-0.57 0-0.81 0.05-0.22 0.04-0.56 0.14-0.76 0.22-0.19 0.09-0.48 0.24-0.64 0.34-0.15 0.1-0.42 0.34-0.59 0.53-0.2 0.22-0.38 0.49-0.5 0.75-0.11 0.23-0.23 0.54-0.27 0.7-0.04 0.18-0.06 0.54-0.06 1.03 0.01 0.6-0.01 0.83-0.08 1.14-0.06 0.21-0.17 0.54-0.24 0.73-0.08 0.19-0.23 0.5-0.33 0.68-0.11 0.19-0.34 0.51-0.52 0.72s-0.56 0.63-0.84 0.92-0.72 0.68-0.97 0.87c-0.26 0.2-0.68 0.48-0.95 0.65-0.27 0.16-0.69 0.38-0.93 0.5-0.24 0.11-0.78 0.37-1.21 0.58-0.42 0.21-1.09 0.59-1.49 0.85-0.39 0.27-0.94 0.67-1.22 0.9s-0.72 0.63-0.98 0.9c-0.25 0.26-0.61 0.67-0.8 0.91s-0.5 0.69-0.7 1c-0.21 0.31-0.5 0.82-0.65 1.13s-0.34 0.78-0.43 1.05c-0.08 0.27-0.18 0.59-0.21 0.72-0.04 0.12-0.06 0.46-0.06 0.74 0 0.32 0.03 0.64 0.08 0.85 0.05 0.18 0.17 0.51 0.28 0.72 0.14 0.28 0.29 0.49 0.6 0.8 0.22 0.22 0.54 0.48 0.69 0.57 0.16 0.09 0.47 0.22 0.69 0.3l0.41 0.14 0.7 0.01c0.59 0 0.73-0.02 0.98-0.12 0.15-0.06 0.41-0.2 0.56-0.31 0.15-0.1 0.38-0.32 0.51-0.49 0.14-0.16 0.33-0.47 0.43-0.67 0.1-0.21 0.24-0.59 0.31-0.85 0.08-0.31 0.2-0.59 0.36-0.84 0.13-0.21 0.42-0.56 0.7-0.83 0.26-0.25 0.65-0.58 0.86-0.73 0.22-0.15 0.56-0.36 0.77-0.47 0.22-0.11 0.62-0.29 0.9-0.41s0.72-0.32 0.98-0.45c0.25-0.13 0.64-0.34 0.87-0.46 0.22-0.13 0.71-0.43 1.08-0.68 0.36-0.24 0.95-0.66 1.3-0.94 0.36-0.28 0.91-0.78 1.24-1.11 0.32-0.33 0.73-0.77 0.89-0.98 0.17-0.21 0.43-0.54 0.57-0.74s0.4-0.59 0.58-0.87 0.55-0.97 0.82-1.53c0.42-0.83 0.54-1.14 0.72-1.78 0.12-0.42 0.27-1.04 0.34-1.37 0.06-0.33 0.14-0.83 0.17-1.1 0.03-0.28 0.06-0.66 0.06-0.85s-0.05-0.54-0.1-0.77c-0.06-0.23-0.17-0.57-0.26-0.75s-0.26-0.47-0.39-0.63c-0.13-0.17-0.36-0.41-0.52-0.54s-0.43-0.31-0.6-0.4c-0.17-0.08-0.45-0.19-0.62-0.23s-0.49-0.09-0.72-0.1zm-497.35 2.56c-2.54 0-4.66 2.11-4.66 4.65 0 2.61 2.12 4.73 4.66 4.73 2.61 0 4.73-2.12 4.73-4.73 0-2.54-2.12-4.65-4.73-4.65zm101.38 0c-14.33 0-25.97 11.57-25.97 25.96 0 10.45 6.21 19.41 15.17 23.57 3.6 1.63 7.2 2.4 10.8 2.4 4.37 0 5.92-2.11 5.92-4.44 0-2.19-1.41-3.88-4.8-4.24-3.45-0.35-6.28-1.13-8.96-2.68-5.29-2.89-8.75-8.25-8.75-14.61 0-9.17 7.41-16.58 16.59-16.58 4.44 0 8.04 1.41 10.86 3.04 2.61 1.41 5.22 1.34 6.49-0.57 1.49-2.12 1.34-4.94-0.63-6.56-5.37-4.38-12-5.29-16.72-5.29zm53.65 0c-2.54 0-4.66 2.11-4.66 4.72 0 2.54 2.12 4.66 4.66 4.66 2.61 0 4.73-2.12 4.73-4.66 0-2.61-2.12-4.72-4.73-4.72zm-129.58 1.26c-0.79-0.01-1.53 0.2-2.19 0.57-2.26 1.2-2.47 3.32-2.47 5.08v39.1c0 2.54 2.12 4.65 4.66 4.65 2.61 0 4.73-2.11 4.73-4.65v-27.95l24.48 29.99c0.78 0.92 1.34 1.55 2.4 2.12 1.98 0.99 3.74 0.35 4.87-0.5 1.41-1.2 1.77-2.61 1.77-4.23v-25.54c0-2.54-2.12-4.66-4.73-4.66-2.54 0-4.66 2.12-4.66 4.73v13.97l-24.77-30.42c-1.37-1.58-2.79-2.23-4.09-2.26zm33.59 0.01c-2.61 0-4.73 2.04-4.73 4.65s2.12 4.66 4.73 4.66c2.54 0 4.66-2.05 4.66-4.66s-2.12-4.65-4.66-4.65zm209.28 0c-2.54 0-4.66 2.11-4.66 4.65v40.08c0 2.54 2.12 4.66 4.66 4.66h23.99c2.61 0 4.66-2.12 4.66-4.66 0-2.61-2.05-4.72-4.66-4.72h-19.26v-10.87h16.37c2.61 0 4.66-1.91 4.66-4.45 0-2.61-2.05-4.51-4.66-4.51h-16.37v-10.8h5.01c2.54 0 4.66-2.12 4.66-4.73 0-2.54-2.12-4.65-4.66-4.65h-9.74zm23.78 0c-2.61 0-4.73 2.11-4.73 4.65 0 2.61 2.12 4.73 4.73 4.73 2.54 0 4.66-2.12 4.66-4.73 0-2.54-2.12-4.65-4.66-4.65zm46.16 0c-2.54 0-4.66 2.11-4.66 4.65 0 2.61 2.12 4.73 4.66 4.73h10.23v35.35c0 2.54 2.05 4.66 4.66 4.66s4.66-2.12 4.66-4.66v-40.08c0-2.54-1.84-4.65-4.66-4.65h-14.89zm29.78 0c-2.61 0-4.73 2.11-4.73 4.65 0 2.61 2.12 4.73 4.73 4.73 2.54 0 4.66-2.12 4.66-4.73 0-2.54-2.12-4.65-4.66-4.65zm28.22 0c-1.83 0-3.45 1.05-4.23 2.68l-19.05 40.01c-1.06 2.33-0.07 5.15 2.26 6.28 2.33 1.06 5.08 0.07 6.21-2.26l4.44-9.31h23.71c1.62 0 3.04-0.85 3.88-2.12 1.63-2.4 0.36-4.45-0.42-6.07l-12.56-26.53c-0.78-1.63-2.47-2.68-4.24-2.68zm63.25 0c-2.61 0-4.66 2.11-4.66 4.65 0 2.61 2.05 4.73 4.66 4.73 2.54 0 4.66-2.12 4.66-4.73 0-2.54-2.12-4.65-4.66-4.65zm-261.37 0.02c-0.26 0.02-0.51 0.06-0.77 0.12-2.12 0.56-3.53 2.4-3.53 4.51v40.09c0 2.54 2.12 4.65 4.66 4.65 2.61 0 4.73-2.11 4.73-4.65v-23.93l13.12 26.11c0.85 1.56 2.4 2.47 4.09 2.47 1.7 0 3.25-0.92 4.1-2.4l13.76-26.6v10.3c0 2.54 2.11 4.66 4.66 4.66 2.61 0 4.72-2.12 4.72-4.66v-26.04c0-2.11-1.48-3.95-3.53-4.51-2.04-0.5-4.23 0.42-5.22 2.26l-18.42 34.08-17.92-34.01c-0.86-1.67-2.65-2.58-4.45-2.45zm235.87 0c-0.89-0.02-1.79 0.22-2.59 0.75-2.18 1.34-2.82 4.24-1.48 6.42l11.22 17.5-11.22 17.5c-1.34 2.19-0.7 5.09 1.48 6.5 2.19 1.34 5.09 0.7 6.43-1.49l8.89-13.83 8.82 13.83c1.41 2.19 4.3 2.83 6.49 1.49 2.12-1.41 2.75-4.31 1.41-6.5l-11.22-17.5 3.6-5.64c1.41-2.19 0.78-5.08-1.41-6.42-2.19-1.42-5.08-0.78-6.42 1.41l-1.27 1.97-8.89-13.83c-0.89-1.36-2.35-2.13-3.84-2.16zm-291.96 3.25c-1.05-0.03-2.1 0.28-2.97 0.96-6.35 5.01-10.02 12.35-10.02 20.39 0 14.4 11.64 26.04 25.97 26.04 14.32 0 26.04-11.64 26.04-26.04 0-8.04-3.67-15.38-10.02-20.39-2.05-1.55-5.01-1.2-6.56 0.85-1.63 1.97-1.27 4.94 0.77 6.56 4.1 3.18 6.42 7.83 6.42 12.98 0 9.18-7.48 16.66-16.65 16.66s-16.58-7.48-16.58-16.66c0-5.15 2.32-9.8 6.35-12.98 2.04-1.62 2.4-4.59 0.84-6.56-0.91-1.15-2.25-1.77-3.59-1.81zm444.75 2.54c-2.23-0.01-4.18-0.01-4.33 0-0.16 0.01-0.77 0.05-1.36 0.08s-1.61 0.1-2.26 0.15c-0.65 0.06-1.68 0.16-2.3 0.23-0.63 0.07-1.78 0.22-2.57 0.33-0.79 0.12-1.99 0.31-2.67 0.44-0.68 0.12-1.8 0.34-2.49 0.49-0.69 0.14-1.93 0.43-2.76 0.64s-2.01 0.52-2.62 0.69-1.54 0.45-2.08 0.61c-0.53 0.17-1.52 0.5-2.2 0.72-0.68 0.23-1.73 0.61-2.34 0.83-0.6 0.23-1.43 0.55-1.84 0.71-0.41 0.17-1.07 0.44-1.46 0.61-0.4 0.17-1.17 0.52-1.72 0.77-0.55 0.26-1.49 0.72-2.08 1.03-0.59 0.3-1.56 0.82-2.15 1.16-0.6 0.33-1.54 0.88-2.11 1.21-0.56 0.34-1.37 0.84-1.79 1.11s-1.08 0.7-1.46 0.95c-0.39 0.25-1.09 0.75-1.58 1.11-0.48 0.36-1.24 0.95-1.69 1.31s-1.1 0.9-1.45 1.2c-0.36 0.3-1.11 0.96-1.67 1.47-0.56 0.5-1.61 1.51-2.33 2.23s-1.72 1.75-2.21 2.3c-0.5 0.55-1.1 1.24-1.34 1.52s-0.67 0.8-0.96 1.16c-0.28 0.36-0.75 0.97-1.04 1.36-0.28 0.39-0.71 0.99-0.94 1.34l-0.41 0.62-0.26 0.03c-0.14 0.01-0.65 0.06-1.13 0.11-0.48 0.04-1.27 0.13-1.75 0.2-0.49 0.07-1.18 0.19-1.54 0.26s-0.96 0.21-1.34 0.31c-0.37 0.1-1.22 0.35-1.87 0.56s-1.44 0.47-1.75 0.58-0.87 0.32-1.24 0.46c-0.37 0.15-0.95 0.38-1.29 0.53-0.33 0.14-0.98 0.45-1.45 0.69-0.46 0.23-1.2 0.63-1.63 0.89-0.44 0.25-1.09 0.66-1.45 0.9s-0.92 0.62-1.24 0.85-0.9 0.68-1.3 1-0.97 0.8-1.26 1.05c-0.29 0.26-0.86 0.8-1.26 1.2s-0.73 0.74-0.73 0.76c0 0.03-0.1 0.2-0.21 0.4-0.11 0.19-0.2 0.38-0.2 0.42s-0.05 0.12-0.11 0.17l-0.1 0.09v0.65c0 0.54 0.02 0.7 0.1 0.9 0.06 0.13 0.11 0.28 0.11 0.33s0.1 0.22 0.23 0.37 0.28 0.36 0.33 0.46c0.06 0.1 0.21 0.28 0.34 0.4 0.13 0.11 0.27 0.21 0.31 0.21s0.14 0.04 0.21 0.09c0.08 0.05 0.21 0.14 0.29 0.2 0.09 0.06 0.23 0.14 0.32 0.18 0.08 0.05 1.58 0.43 3.33 0.86 1.75 0.42 4.65 1.12 6.45 1.56 1.81 0.44 3.29 0.81 3.3 0.82s-0.92 2.23-2.06 4.93c-1.15 2.71-2.12 5.05-2.16 5.2-0.04 0.16-0.08 0.51-0.08 0.78 0 0.29 0.04 0.62 0.08 0.8 0.05 0.17 0.12 0.4 0.16 0.5 0.05 0.11 0.18 0.34 0.29 0.52s0.34 0.45 0.51 0.61c0.17 0.15 0.45 0.37 0.64 0.47s0.48 0.23 0.64 0.28l0.32 0.1h6.28l0.43 0.45c0.24 0.24 0.52 0.55 0.63 0.68 0.1 0.13 0.24 0.38 0.31 0.55 0.11 0.27 0.13 0.4 0.13 0.88v0.56l-0.21 0.53c-0.12 0.29-0.28 0.62-0.36 0.73-0.07 0.12-0.34 0.41-0.59 0.65s-0.78 0.72-1.18 1.06c-0.39 0.34-0.83 0.74-0.96 0.89-0.14 0.15-0.39 0.45-0.55 0.66-0.16 0.22-0.42 0.59-0.58 0.83-0.15 0.24-0.36 0.6-0.46 0.79-0.09 0.2-0.27 0.59-0.39 0.87s-0.27 0.62-0.34 0.75c-0.06 0.12-0.17 0.52-0.25 0.87-0.07 0.36-0.16 0.9-0.19 1.2-0.04 0.42-0.04 0.71 0 1.19 0.03 0.36 0.12 0.97 0.19 1.37s0.21 0.93 0.32 1.21c0.1 0.26 0.28 0.69 0.41 0.95 0.12 0.25 0.31 0.6 0.41 0.77s0.34 0.51 0.53 0.77c0.18 0.25 0.49 0.64 0.68 0.85 0.19 0.22 0.6 0.61 0.92 0.88s0.61 0.53 0.66 0.58c0.04 0.05 0.13 0.23 0.19 0.38 0.08 0.22 0.09 0.34 0.06 0.48-0.02 0.1-0.12 0.32-0.21 0.49-0.1 0.16-0.95 1.32-1.89 2.56-0.95 1.24-1.74 2.26-1.76 2.25s-3.12-2.85-6.89-6.32-6.98-6.41-7.14-6.53c-0.16-0.13-0.45-0.3-0.65-0.4-0.19-0.09-0.52-0.21-0.73-0.25-0.28-0.07-0.53-0.08-0.88-0.06-0.35 0.01-0.62 0.06-0.93 0.17-0.23 0.07-0.59 0.25-0.79 0.38s-0.51 0.39-0.68 0.57c-0.18 0.19-0.38 0.49-0.49 0.71-0.11 0.21-0.23 0.52-0.28 0.69-0.07 0.25-0.09 0.6-0.11 1.91l-0.02 1.6-0.21-0.08c-0.12-0.04-0.44-0.13-0.7-0.2-0.27-0.06-0.76-0.16-1.08-0.21-0.4-0.06-0.9-0.09-1.54-0.09-0.52 0-1.17 0.03-1.44 0.07-0.26 0.03-0.74 0.12-1.06 0.19-0.31 0.07-0.79 0.19-1.05 0.28s-0.7 0.25-0.96 0.36c-0.27 0.12-0.79 0.37-1.15 0.57s-0.93 0.58-1.28 0.84c-0.34 0.26-0.86 0.7-1.15 0.99-0.28 0.28-0.66 0.69-0.84 0.91-0.17 0.22-0.46 0.62-0.64 0.89s-0.46 0.76-0.63 1.1-0.41 0.92-0.54 1.29c-0.13 0.38-0.29 0.94-0.36 1.26s-0.17 0.85-0.21 1.19c-0.04 0.33-0.08 0.98-0.08 1.45 0 0.46 0.03 1.07 0.06 1.34s0.11 0.79 0.18 1.14 0.22 0.92 0.33 1.27c0.12 0.35 0.32 0.89 0.46 1.2s0.38 0.77 0.53 1.03c0.16 0.26 0.35 0.56 0.43 0.66 0.08 0.11 0.7 0.92 1.38 1.81l1.25 1.61v19.2c0 16.96 0.01 19.24 0.08 19.51 0.04 0.17 0.17 0.5 0.29 0.74 0.17 0.35 0.3 0.53 0.65 0.88 0.33 0.33 0.54 0.49 0.86 0.65 0.23 0.12 0.56 0.25 0.74 0.29 0.18 0.05 0.52 0.08 0.74 0.08 0.25 0 0.58-0.04 0.82-0.1 0.23-0.06 0.61-0.2 0.85-0.32 0.33-0.17 0.53-0.31 0.85-0.63 0.28-0.28 0.47-0.52 0.6-0.77 0.1-0.21 0.22-0.52 0.26-0.7 0.07-0.29 0.08-2.74 0.08-20.85v-20.53l-1.69-2.09c-1.43-1.77-1.74-2.17-1.93-2.56-0.12-0.25-0.28-0.64-0.36-0.87-0.1-0.31-0.14-0.54-0.16-1-0.02-0.44 0-0.7 0.06-1.03 0.05-0.23 0.15-0.6 0.23-0.8 0.08-0.21 0.24-0.54 0.36-0.74s0.37-0.52 0.56-0.72c0.18-0.2 0.48-0.46 0.65-0.58s0.45-0.29 0.63-0.38 0.5-0.21 0.71-0.26c0.21-0.06 0.57-0.12 0.81-0.16 0.32-0.04 0.56-0.04 0.93 0.01 0.28 0.03 0.71 0.12 0.96 0.2 0.24 0.08 0.57 0.21 0.72 0.29 0.14 0.07 0.4 0.23 0.57 0.34 0.17 0.12 0.47 0.36 0.66 0.55 0.2 0.18 0.4 0.42 0.45 0.52 0.06 0.11 0.1 0.28 0.1 0.39s0.03 0.74 0.08 1.4c0.04 0.66 0.12 1.85 0.18 2.64s0.17 2.11 0.26 2.92c0.08 0.82 0.2 1.97 0.28 2.56 0.07 0.59 0.17 1.41 0.23 1.82 0.05 0.42 0.17 1.21 0.25 1.78 0.09 0.56 0.23 1.43 0.31 1.92 0.09 0.49 0.32 1.74 0.52 2.77s0.45 2.31 0.56 2.85c0.11 0.53 0.31 1.42 0.44 1.97s0.38 1.57 0.56 2.26 0.45 1.68 0.6 2.2c0.16 0.53 0.51 1.65 0.78 2.49 0.28 0.85 0.65 1.96 0.83 2.47 0.19 0.5 0.49 1.31 0.68 1.79s0.47 1.15 0.62 1.49 0.64 1.36 1.09 2.28 0.98 1.96 1.18 2.31 0.55 0.94 0.79 1.32c0.24 0.37 0.65 0.98 0.92 1.35s0.7 0.95 0.97 1.27c0.26 0.33 0.68 0.83 0.92 1.11 0.25 0.28 0.76 0.85 1.15 1.25 0.38 0.41 1.08 1.1 1.54 1.53 0.65 0.6 1.04 0.91 1.65 1.32 0.43 0.29 1.11 0.72 1.51 0.95 0.39 0.23 1 0.55 1.34 0.72 0.35 0.17 0.88 0.41 1.18 0.53 0.31 0.13 0.85 0.33 1.2 0.44 0.35 0.12 0.96 0.31 1.35 0.42 0.38 0.11 1.07 0.28 1.51 0.38 0.44 0.09 1.13 0.22 1.52 0.28 0.4 0.06 1.08 0.12 1.52 0.15 0.65 0.04 0.86 0.04 1.18-0.03 0.21-0.04 0.59-0.17 0.84-0.3 0.31-0.15 0.58-0.32 0.81-0.53 0.19-0.18 0.45-0.49 0.59-0.69 0.14-0.21 0.31-0.56 0.39-0.81 0.12-0.35 0.15-0.52 0.15-0.94 0-0.39-0.02-0.62-0.11-0.92-0.06-0.23-0.21-0.6-0.33-0.82-0.15-0.31-0.32-0.53-0.63-0.83-0.24-0.24-0.53-0.47-0.71-0.57-0.17-0.09-0.44-0.2-0.59-0.25-0.18-0.05-0.64-0.1-1.23-0.13-0.53-0.02-1.23-0.09-1.57-0.15s-0.92-0.19-1.3-0.29-0.9-0.25-1.16-0.33c-0.25-0.09-0.79-0.31-1.19-0.51-0.4-0.19-0.98-0.51-1.3-0.71s-0.82-0.56-1.12-0.79-0.77-0.61-1.03-0.84c-0.27-0.23-0.81-0.76-1.19-1.18-0.39-0.42-0.95-1.06-1.25-1.43-0.3-0.36-0.78-1.02-1.08-1.46-0.29-0.44-0.74-1.19-1-1.67s-0.65-1.23-0.87-1.66c-0.22-0.44-0.6-1.24-0.84-1.77-0.25-0.54-0.66-1.46-0.9-2.05-0.25-0.6-0.58-1.43-0.74-1.85-0.15-0.43-0.39-1.08-0.52-1.46s-0.35-1.07-0.49-1.53-0.34-1.17-0.45-1.59c-0.11-0.41-0.35-1.35-0.52-2.06-0.17-0.72-0.44-1.88-0.6-2.57-0.15-0.69-0.45-2.11-0.66-3.15-0.21-1.05-0.48-2.5-0.61-3.23-0.13-0.74-0.31-1.87-0.41-2.52s-0.26-1.81-0.36-2.59c-0.1-0.77-0.24-1.97-0.31-2.67-0.07-0.69-0.15-1.54-0.18-1.89s-0.11-1.53-0.18-2.62-0.15-2.53-0.18-3.2c-0.03-0.68-0.05-1.37-0.04-1.54l0.01-0.31 5.21 4.76 5.21 4.76 5.01 4.24c2.76 2.33 5.21 4.4 5.44 4.59s0.65 0.53 0.93 0.74c0.29 0.21 0.94 0.67 1.47 1.02 0.52 0.34 1.36 0.87 1.87 1.16s1.18 0.64 1.5 0.77c0.32 0.14 0.81 0.32 1.09 0.4s0.71 0.2 0.94 0.25c0.24 0.06 0.72 0.16 1.07 0.22 0.5 0.09 0.8 0.11 1.42 0.11 0.63-0.01 0.93-0.04 1.39-0.13 0.32-0.07 0.77-0.2 0.99-0.29s0.57-0.27 0.77-0.4 0.54-0.37 0.76-0.53c0.21-0.17 0.52-0.44 0.67-0.62 0.16-0.17 0.37-0.48 0.47-0.68s0.22-0.52 0.27-0.7c0.05-0.2 0.09-0.54 0.09-0.85 0-0.28-0.03-0.64-0.07-0.79-0.03-0.16-0.16-0.49-0.28-0.74-0.13-0.27-0.34-0.59-0.49-0.76-0.14-0.16-0.42-0.4-0.62-0.53-0.2-0.14-0.57-0.32-0.81-0.4l-0.44-0.16h-0.64c-0.45 0-0.74 0.03-0.98 0.1-0.18 0.05-0.47 0.15-0.65 0.23-0.17 0.08-0.42 0.22-0.55 0.3-0.17 0.12-0.28 0.16-0.45 0.16-0.12 0-0.39-0.03-0.6-0.07-0.22-0.04-0.54-0.13-0.72-0.19-0.19-0.07-0.51-0.22-0.72-0.33-0.21-0.1-0.57-0.29-0.8-0.42-0.22-0.13-0.6-0.37-0.85-0.53-0.24-0.17-0.58-0.43-0.75-0.59l-0.33-0.29 0.1-0.11c0.06-0.06 0.17-0.22 0.26-0.35 0.1-0.15 0.25-0.29 0.38-0.36 0.12-0.06 0.37-0.25 0.56-0.43 0.19-0.17 0.55-0.48 0.81-0.68s0.67-0.49 0.89-0.64c0.23-0.15 0.61-0.38 0.83-0.51 0.23-0.12 0.67-0.31 0.98-0.41s0.74-0.23 0.97-0.29 0.62-0.14 0.87-0.18c0.26-0.04 0.7-0.08 0.98-0.08s0.72 0.03 0.97 0.06c0.26 0.03 0.72 0.12 1.03 0.2s0.82 0.24 1.12 0.36c0.31 0.12 0.75 0.33 1 0.47 0.24 0.14 0.63 0.39 0.85 0.54 0.22 0.16 0.62 0.51 0.88 0.77s0.62 0.65 0.8 0.87c0.17 0.22 0.47 0.63 0.66 0.92 0.18 0.28 0.47 0.77 0.63 1.07 0.15 0.31 0.35 0.74 0.44 0.95 0.08 0.22 0.22 0.61 0.31 0.88 0.08 0.26 0.2 0.66 0.25 0.89 0.06 0.22 0.13 0.55 0.16 0.72 0.03 0.16 0.12 0.83 0.21 1.48 0.08 0.65 0.23 1.67 0.33 2.28 0.1 0.6 0.27 1.57 0.39 2.15 0.11 0.58 0.31 1.51 0.44 2.06 0.12 0.55 0.3 1.27 0.38 1.59 0.09 0.33 0.27 0.99 0.41 1.48s0.38 1.29 0.54 1.77 0.48 1.36 0.72 1.95 0.59 1.43 0.79 1.86c0.19 0.43 0.52 1.12 0.72 1.52s0.57 1.1 0.83 1.54c0.25 0.45 0.69 1.16 0.98 1.59s0.88 1.25 1.31 1.83 1.03 1.34 1.31 1.69c0.29 0.36 0.84 0.98 1.23 1.4 0.38 0.41 1.04 1.08 1.47 1.48s1.13 1.01 1.55 1.37c0.42 0.35 1.14 0.91 1.59 1.25 0.46 0.34 0.85 0.64 0.88 0.66 0.03 0.03-3.88 0.05-9.45 0.05h-9.49l-4.54-5.84c-2.5-3.22-4.67-5.96-4.82-6.1-0.15-0.13-0.44-0.33-0.64-0.44-0.2-0.1-0.54-0.23-0.76-0.29s-0.56-0.1-0.79-0.1c-0.22 0-0.56 0.04-0.79 0.1-0.22 0.06-0.56 0.19-0.76 0.29-0.27 0.14-0.51 0.33-0.86 0.68s-0.54 0.59-0.66 0.83c-0.09 0.18-0.21 0.53-0.27 0.77-0.09 0.35-0.1 0.52-0.08 0.92 0.02 0.28 0.07 0.64 0.14 0.85 0.06 0.19 0.17 0.47 0.24 0.61s2.22 2.98 4.78 6.31 4.71 6.16 4.79 6.29c0.07 0.13 0.24 0.36 0.37 0.52 0.12 0.15 0.37 0.4 0.55 0.54 0.18 0.15 0.5 0.35 0.71 0.47 0.21 0.11 0.59 0.27 0.84 0.35 0.26 0.09 0.65 0.18 0.87 0.21 0.3 0.05 6.87 0.06 24.01 0.05l23.59-0.02 0.29-0.09c0.15-0.05 0.45-0.17 0.66-0.27 0.29-0.15 0.5-0.3 0.83-0.64 0.37-0.37 0.48-0.51 0.67-0.92 0.13-0.27 0.26-0.6 0.29-0.73s0.06-0.44 0.06-0.69-0.04-0.6-0.08-0.79c-0.04-0.18-0.17-0.52-0.28-0.75-0.14-0.28-0.31-0.53-0.56-0.8-0.2-0.21-0.52-0.48-0.7-0.6-0.18-0.11-0.44-0.25-0.57-0.3-0.14-0.06-0.38-0.13-0.54-0.16-0.18-0.04-1.04-0.07-2.28-0.08-1.1-0.01-2.35-0.04-2.79-0.07-0.43-0.04-1.14-0.1-1.56-0.14-0.43-0.04-1.25-0.15-1.84-0.23-0.58-0.08-1.48-0.24-2-0.33-0.51-0.1-1.4-0.3-1.96-0.43-0.56-0.14-1.32-0.34-1.69-0.44s-1.03-0.3-1.46-0.45c-0.44-0.14-1.19-0.4-1.67-0.58-0.48-0.17-1.12-0.43-1.43-0.56s-0.92-0.42-1.37-0.65c-0.45-0.22-1.07-0.56-1.39-0.74-0.32-0.19-0.89-0.55-1.27-0.8-0.38-0.26-0.83-0.57-1-0.7s-0.53-0.42-0.81-0.64c-0.27-0.22-0.89-0.75-1.36-1.18s-1.11-1.05-1.42-1.37c-0.3-0.33-0.81-0.89-1.12-1.26-0.31-0.36-0.79-0.96-1.07-1.33-0.27-0.37-0.71-1-0.98-1.41-0.26-0.41-0.62-0.99-0.79-1.28-0.17-0.3-0.48-0.85-0.68-1.23-0.19-0.38-0.51-1.04-0.7-1.46-0.19-0.43-0.46-1.08-0.6-1.44-0.14-0.37-0.42-1.13-0.61-1.69-0.2-0.57-0.48-1.44-0.64-1.95-0.15-0.51-0.4-1.42-0.56-2.03-0.15-0.6-0.37-1.55-0.48-2.1s-0.26-1.38-0.33-1.85c-0.07-0.46-0.16-1.04-0.18-1.28-0.03-0.24-0.1-0.89-0.16-1.44s-0.14-1.2-0.18-1.46c-0.04-0.25-0.16-0.78-0.25-1.18-0.1-0.39-0.26-0.97-0.37-1.28-0.1-0.31-0.29-0.81-0.41-1.11s-0.36-0.83-0.54-1.18c-0.17-0.35-0.48-0.92-0.69-1.27-0.21-0.36-0.59-0.93-0.83-1.27-0.25-0.34-0.66-0.88-0.91-1.18-0.25-0.31-0.72-0.81-1.03-1.12s-0.81-0.77-1.12-1.01c-0.31-0.25-0.81-0.62-1.13-0.82-0.31-0.21-0.85-0.54-1.18-0.73-0.34-0.18-0.89-0.45-1.23-0.6-0.34-0.14-0.84-0.33-1.11-0.43-0.28-0.1-0.84-0.26-1.24-0.36s-0.93-0.21-1.17-0.25-0.69-0.11-1-0.14c-0.31-0.04-1.09-0.07-1.74-0.06-0.82 0-1.39 0.03-1.85 0.09-0.37 0.05-0.97 0.15-1.33 0.23-0.37 0.08-0.97 0.24-1.34 0.36-0.36 0.12-0.93 0.33-1.25 0.47-0.33 0.14-0.85 0.39-1.16 0.55s-0.8 0.44-1.1 0.62c-0.29 0.18-0.82 0.52-1.16 0.75-0.34 0.24-0.92 0.67-1.28 0.96-0.37 0.3-0.84 0.7-1.05 0.89-0.2 0.19-0.43 0.44-0.51 0.56-0.07 0.11-0.17 0.28-0.2 0.38-0.04 0.1-0.11 0.22-0.15 0.27s-0.09 0.09-0.12 0.09c-0.02 0-0.72-0.56-1.57-1.26-0.84-0.69-1.53-1.28-1.53-1.3 0-0.03 0.86-1.02 1.9-2.22 1.05-1.19 2.02-2.3 2.16-2.48 0.14-0.17 0.38-0.51 0.53-0.74 0.15-0.24 0.38-0.64 0.49-0.89 0.12-0.26 0.29-0.69 0.38-0.96 0.08-0.27 0.2-0.71 0.25-0.97 0.07-0.37 0.09-0.74 0.09-1.51 0-0.87-0.02-1.11-0.12-1.57-0.06-0.3-0.2-0.78-0.29-1.07-0.1-0.29-0.31-0.78-0.47-1.08-0.15-0.31-0.42-0.77-0.6-1.01-0.17-0.25-0.54-0.67-0.81-0.94s-0.63-0.63-0.82-0.8c-0.18-0.17-0.47-0.51-0.65-0.77-0.19-0.25-0.35-0.52-0.38-0.59-0.02-0.07-0.07-0.33-0.11-0.59-0.05-0.25-0.08-0.52-0.08-0.59s0.03-0.28 0.07-0.48c0.05-0.2 0.13-0.49 0.19-0.64 0.07-0.16 0.16-0.36 0.22-0.44 0.06-0.09 0.21-0.28 0.34-0.43 0.12-0.15 0.68-0.67 1.24-1.14 0.66-0.57 1.16-1.05 1.43-1.37 0.23-0.27 0.59-0.76 0.8-1.07 0.21-0.32 0.46-0.75 0.56-0.95 0.1-0.21 0.24-0.52 0.31-0.69 0.06-0.18 0.17-0.52 0.24-0.77s0.19-0.73 0.26-1.07c0.07-0.35 0.15-0.87 0.18-1.16 0.03-0.35 0.03-0.76 0-1.19-0.03-0.37-0.1-0.88-0.16-1.15s-0.17-0.73-0.25-1.01c-0.09-0.28-0.2-0.64-0.26-0.8-0.06-0.15-0.24-0.56-0.42-0.9-0.17-0.33-0.5-0.85-0.72-1.15-0.22-0.29-0.58-0.74-0.79-0.99s-0.8-0.82-1.32-1.27c-0.58-0.52-1.08-0.91-1.34-1.05-0.22-0.13-0.51-0.28-0.63-0.33-0.2-0.09-0.35-0.1-1.4-0.1-0.92 0-1.17-0.02-1.15-0.07 0.01-0.03 0.5-1.19 1.1-2.57 0.59-1.39 1.11-2.62 1.16-2.75 0.04-0.13 0.1-0.26 0.12-0.29 0.03-0.04 2.08 0.43 7.37 1.7 4.04 0.97 11.1 2.67 15.7 3.77s15.04 3.61 23.21 5.57c8.16 1.96 15.8 3.8 16.96 4.08l2.13 0.52h2.95l0.09-0.1c0.05-0.06 0.14-0.11 0.2-0.11 0.07 0 0.24-0.13 0.46-0.34 0.2-0.21 0.34-0.39 0.34-0.46 0-0.06 0.05-0.15 0.1-0.2l0.11-0.09v-3.14l-0.47-0.18-0.46-0.17-0.19-0.37c-0.1-0.19-0.4-0.73-0.66-1.19-0.26-0.45-0.71-1.2-1-1.66-0.29-0.45-0.82-1.24-1.19-1.75-0.36-0.51-0.92-1.26-1.24-1.65-0.32-0.4-0.83-1.01-1.14-1.36-0.31-0.36-0.89-0.99-1.3-1.41s-1.19-1.17-1.74-1.67-1.36-1.21-1.79-1.59c-0.43-0.37-1.23-1.03-1.77-1.46s-1.3-1.02-1.7-1.32c-0.39-0.29-1.03-0.75-1.41-1.02s-1.07-0.75-1.54-1.06c-0.47-0.32-1.28-0.83-1.8-1.15-0.52-0.33-1.37-0.83-1.89-1.13s-1.43-0.79-2.03-1.11c-0.59-0.31-1.29-0.68-1.56-0.83-0.27-0.14-0.73-0.38-1.03-0.52-0.29-0.14-0.83-0.39-1.2-0.56-0.37-0.16-1.05-0.45-1.52-0.64-0.46-0.19-0.86-0.36-0.89-0.39-0.02-0.02-0.07-0.19-0.11-0.39-0.03-0.19-0.08-0.7-0.1-1.14s-0.01-1.18 0.02-1.64c0.03-0.47 0.1-1.1 0.16-1.41s0.17-0.8 0.24-1.08 0.22-0.8 0.34-1.15c0.11-0.36 0.3-0.89 0.42-1.19 0.13-0.3 0.37-0.82 0.54-1.17 0.17-0.34 0.46-0.88 0.65-1.2 0.19-0.31 0.56-0.9 0.82-1.29 0.26-0.4 0.74-1.09 1.08-1.54s0.79-1.04 1.01-1.31c0.23-0.26 0.67-0.77 0.99-1.13 0.31-0.35 0.98-1.04 1.49-1.54 0.5-0.49 1.26-1.19 1.68-1.55 0.42-0.37 1.24-1.04 1.81-1.5 0.57-0.45 1.49-1.16 2.05-1.56 0.56-0.41 1.5-1.07 2.09-1.47 0.59-0.39 1.45-0.95 1.9-1.23 0.45-0.29 1.36-0.83 2.02-1.22 0.67-0.38 2.1-1.15 3.18-1.69 1.09-0.55 2.22-1.09 2.52-1.21 0.29-0.12 0.84-0.34 1.2-0.5 0.37-0.16 0.87-0.38 1.11-0.51 0.24-0.12 0.57-0.32 0.73-0.45s0.4-0.38 0.53-0.56c0.13-0.17 0.3-0.46 0.38-0.63 0.09-0.17 0.19-0.48 0.23-0.69 0.06-0.27 0.08-0.53 0.06-0.87-0.02-0.29-0.07-0.62-0.14-0.82-0.06-0.18-0.18-0.46-0.27-0.62-0.08-0.16-0.26-0.43-0.39-0.59s-0.37-0.4-0.53-0.53-0.46-0.32-0.68-0.43c-0.21-0.1-0.58-0.23-0.81-0.29-0.23-0.05-0.75-0.12-1.14-0.16-0.46-0.04-2.17-0.06-4.77-0.07l-0.01-0.01zm-87.94 3.85c-0.18-0.01-0.48 0-0.66 0.02-0.18 0.03-0.47 0.1-0.64 0.16s-0.48 0.2-0.67 0.31c-0.2 0.12-0.53 0.38-0.75 0.6-0.24 0.25-0.45 0.52-0.57 0.75-0.1 0.2-0.22 0.5-0.27 0.68-0.04 0.17-0.09 0.53-0.11 0.79-0.03 0.38-0.06 0.53-0.17 0.74-0.07 0.14-0.35 0.48-0.62 0.75-0.26 0.28-0.69 0.66-0.95 0.86-0.25 0.19-0.72 0.51-1.03 0.72-0.31 0.2-0.78 0.47-1.05 0.61-0.26 0.14-0.77 0.37-1.13 0.52-0.35 0.15-0.89 0.39-1.2 0.55-0.31 0.15-0.72 0.37-0.92 0.49-0.2 0.11-0.64 0.39-0.98 0.61-0.34 0.23-0.78 0.54-0.97 0.7-0.2 0.16-0.57 0.48-0.82 0.73-0.25 0.24-0.63 0.65-0.85 0.92s-0.52 0.7-0.68 0.95c-0.15 0.26-0.35 0.6-0.44 0.77-0.08 0.17-0.22 0.51-0.31 0.76s-0.22 0.68-0.29 0.95-0.17 0.76-0.23 1.08c-0.05 0.32-0.1 0.67-0.1 0.78s0.04 0.32 0.1 0.48c0.05 0.15 0.18 0.42 0.29 0.6 0.1 0.18 0.37 0.5 0.58 0.71 0.21 0.22 0.52 0.48 0.68 0.58s0.47 0.26 0.67 0.34 0.53 0.17 0.73 0.21c0.21 0.04 0.51 0.05 0.75 0.03 0.22-0.02 0.56-0.08 0.75-0.14s0.51-0.19 0.71-0.29c0.24-0.13 0.48-0.32 0.77-0.61 0.33-0.33 0.46-0.51 0.63-0.85 0.11-0.23 0.24-0.61 0.28-0.82 0.05-0.22 0.08-0.49 0.08-0.61 0-0.11 0.05-0.3 0.11-0.42s0.21-0.35 0.32-0.51c0.13-0.19 0.36-0.42 0.65-0.63 0.24-0.18 0.57-0.4 0.73-0.51 0.15-0.1 0.47-0.27 0.69-0.38s0.65-0.3 0.94-0.42c0.3-0.12 0.93-0.41 1.41-0.65 0.47-0.24 1.11-0.57 1.41-0.74 0.3-0.18 0.82-0.5 1.16-0.73 0.34-0.22 0.83-0.57 1.1-0.77s0.74-0.62 1.05-0.93 0.74-0.79 0.95-1.05c0.2-0.27 0.49-0.67 0.64-0.9s0.38-0.63 0.53-0.9c0.14-0.27 0.35-0.76 0.47-1.1 0.11-0.34 0.24-0.84 0.28-1.1 0.05-0.27 0.09-0.74 0.09-1.05 0.01-0.31-0.02-0.71-0.06-0.88-0.03-0.17-0.12-0.44-0.19-0.61s-0.23-0.46-0.36-0.65c-0.12-0.19-0.38-0.48-0.56-0.65s-0.48-0.39-0.67-0.49-0.49-0.21-0.66-0.26c-0.17-0.04-0.45-0.08-0.64-0.1zm-498.86 3.11c-2.54 0-4.66 2.12-4.66 4.66v27.31c0 2.54 2.12 4.65 4.66 4.65 2.61 0 4.73-2.11 4.73-4.65v-27.31c0-2.54-2.12-4.66-4.73-4.66zm577.95 0.4c0.09 0-0.23 0.24-0.92 0.7-0.58 0.39-1.35 0.93-1.71 1.19s-0.93 0.69-1.26 0.95c-0.32 0.25-0.98 0.79-1.46 1.18-0.48 0.4-1.25 1.06-1.7 1.47-0.45 0.4-1.39 1.31-2.1 2.02s-1.62 1.65-2.02 2.1c-0.41 0.46-0.95 1.09-1.21 1.41-0.26 0.33-0.58 0.76-0.73 0.95-0.14 0.2-0.45 0.66-0.69 1.03s-0.6 0.95-0.81 1.31c-0.2 0.35-0.58 1.07-0.85 1.59-0.26 0.52-0.58 1.19-0.71 1.48-0.14 0.3-0.36 0.83-0.5 1.18s-0.36 0.94-0.48 1.31-0.31 0.99-0.41 1.37c-0.1 0.37-0.24 1-0.31 1.4-0.07 0.39-0.17 1.16-0.23 1.71-0.05 0.56-0.13 1.2-0.16 1.44-0.05 0.36-0.07 0.42-0.14 0.39-0.05-0.02-1.29-0.48-2.77-1.03-2.17-0.8-2.76-1.01-3.06-1.04-0.21-0.02-0.55-0.02-0.75 0-0.21 0.02-0.53 0.09-0.71 0.15s-0.5 0.21-0.7 0.34c-0.21 0.12-0.51 0.38-0.69 0.57-0.21 0.23-0.39 0.5-0.54 0.81-0.12 0.25-0.26 0.61-0.3 0.79s-0.08 0.53-0.08 0.77 0.04 0.59 0.08 0.77 0.16 0.49 0.25 0.69c0.1 0.2 0.28 0.48 0.4 0.62s0.33 0.36 0.47 0.48c0.15 0.12 0.45 0.31 0.67 0.42 0.23 0.11 0.45 0.23 0.49 0.25 0.04 0.03 2.39 0.85 5.22 1.82 2.83 0.98 5.5 1.91 5.93 2.08s1.2 0.5 1.72 0.73c0.53 0.23 1.57 0.72 2.31 1.09 0.75 0.37 1.73 0.88 2.17 1.12 0.45 0.25 1.15 0.65 1.57 0.89 0.41 0.24 1.26 0.75 1.88 1.13s1.38 0.86 1.69 1.06c0.31 0.19 0.91 0.6 1.34 0.9 0.42 0.29 1.15 0.82 1.61 1.17 0.47 0.36 1.18 0.91 1.59 1.24s1.2 0.99 1.77 1.46c0.56 0.48 1.42 1.24 1.9 1.68 0.48 0.45 0.97 0.93 1.09 1.07 0.13 0.15 0.21 0.28 0.2 0.29s-0.98-0.21-2.15-0.49c-1.16-0.28-6.8-1.64-12.53-3.02-5.73-1.39-10.7-2.59-11.05-2.67-0.35-0.09-1.08-0.26-1.62-0.39-0.53-0.13-2.93-0.71-5.33-1.29s-4.74-1.14-5.21-1.26c-0.46-0.11-3.76-0.91-7.33-1.77s-7.34-1.77-8.39-2.02c-1.04-0.25-5.02-1.21-8.85-2.13-3.82-0.93-6.96-1.69-6.99-1.71-0.02-0.02 0.09-0.12 0.23-0.22 0.15-0.1 0.6-0.33 0.99-0.51 0.4-0.19 0.95-0.44 1.23-0.56 0.29-0.12 0.81-0.33 1.16-0.46s0.93-0.33 1.28-0.45c0.35-0.11 0.98-0.3 1.39-0.41 0.42-0.12 1.26-0.31 1.88-0.44 0.61-0.13 1.39-0.28 1.73-0.34 0.34-0.05 0.94-0.13 1.33-0.18 0.39-0.04 1.31-0.1 2.05-0.12 1.16-0.04 1.39-0.06 1.7-0.16 0.2-0.06 0.51-0.2 0.71-0.3 0.19-0.09 0.51-0.33 0.71-0.51 0.2-0.19 0.44-0.47 0.54-0.61 0.09-0.15 0.17-0.32 0.17-0.37 0-0.06 0.16-0.38 0.36-0.71s0.6-0.95 0.88-1.37c0.28-0.43 0.78-1.13 1.11-1.57 0.33-0.43 0.82-1.07 1.11-1.41 0.28-0.34 0.79-0.93 1.12-1.31 0.34-0.38 1.3-1.37 2.13-2.2 0.84-0.84 1.91-1.86 2.38-2.27s1.19-1.02 1.61-1.36c0.42-0.33 1.08-0.85 1.48-1.15 0.39-0.29 1.15-0.84 1.67-1.2 0.52-0.37 1.26-0.88 1.64-1.13 0.38-0.26 1.01-0.67 1.41-0.92 0.39-0.25 1.11-0.68 1.59-0.96s1.34-0.76 1.92-1.07 1.49-0.76 2.03-1.01c0.53-0.26 1.3-0.6 1.69-0.77 0.4-0.17 1.34-0.55 2.1-0.86 0.77-0.3 1.85-0.71 2.41-0.92 0.57-0.2 1.53-0.54 2.13-0.73 0.61-0.2 1.6-0.51 2.2-0.68 0.61-0.17 1.65-0.45 2.31-0.62 0.67-0.16 1.58-0.38 2.03-0.48s1.24-0.26 1.75-0.36c0.5-0.1 1.47-0.27 2.15-0.38 0.68-0.12 1.83-0.29 2.56-0.39 0.74-0.1 1.51-0.2 1.72-0.22 0.22-0.03 0.44-0.05 0.51-0.06zm-181.69 2.35l6.64 13.83h-13.2l6.56-13.83zm105.28 5.5c-0.13 0-0.36 0.02-0.5 0.05-0.14 0.02-0.39 0.07-0.56 0.12s-0.49 0.18-0.71 0.3c-0.24 0.12-0.55 0.35-0.78 0.56-0.21 0.19-0.47 0.51-0.59 0.69-0.12 0.19-0.27 0.49-0.34 0.68s-0.17 0.37-0.22 0.42c-0.05 0.04-0.16 0.18-0.24 0.3-0.09 0.13-0.43 0.49-0.75 0.8-0.32 0.32-0.79 0.71-1.06 0.89s-0.62 0.39-0.77 0.46c-0.16 0.08-0.54 0.26-0.85 0.39s-0.8 0.38-1.08 0.55c-0.28 0.16-0.66 0.43-0.85 0.58-0.18 0.16-0.55 0.46-0.82 0.67-0.26 0.22-0.8 0.71-1.18 1.1-0.38 0.38-0.86 0.91-1.07 1.18s-0.62 0.86-0.92 1.31c-0.32 0.48-0.63 1.01-0.74 1.27s-0.24 0.64-0.3 0.85c-0.06 0.22-0.15 0.53-0.2 0.7-0.06 0.17-0.14 0.48-0.18 0.69-0.05 0.26-0.09 0.81-0.11 1.65-0.02 0.83-0.01 1.44 0.03 1.79 0.04 0.3 0.11 0.78 0.17 1.07 0.05 0.3 0.2 0.85 0.33 1.23 0.14 0.44 0.46 1.18 0.92 2.12 0.39 0.8 0.92 1.92 1.18 2.5s0.67 1.53 0.92 2.11c0.25 0.57 0.52 1.26 0.62 1.53 0.09 0.27 0.26 0.85 0.37 1.29l0.19 0.79 0.02 14.62 0.03 14.62 0.1 0.28c0.05 0.15 0.17 0.43 0.26 0.62 0.1 0.18 0.28 0.46 0.4 0.62 0.13 0.16 0.38 0.4 0.56 0.53s0.48 0.32 0.68 0.41c0.19 0.1 0.52 0.21 0.73 0.26 0.28 0.06 0.53 0.08 0.88 0.06s0.61-0.06 0.87-0.16c0.21-0.07 0.5-0.2 0.66-0.3 0.16-0.09 0.45-0.33 0.65-0.53s0.45-0.51 0.56-0.69 0.26-0.52 0.33-0.74l0.14-0.41 0.03-16.34 0.03-16.34 0.11-0.49c0.06-0.26 0.17-0.76 0.24-1.1 0.08-0.34 0.18-0.79 0.24-1s0.18-0.53 0.26-0.71 0.24-0.48 0.36-0.67c0.12-0.18 0.29-0.43 0.38-0.55 0.1-0.12 0.35-0.33 0.57-0.48 0.21-0.15 0.7-0.43 1.09-0.62 0.38-0.19 0.9-0.48 1.16-0.65 0.25-0.16 0.64-0.45 0.87-0.63 0.22-0.17 0.61-0.52 0.86-0.76s0.62-0.64 0.83-0.88c0.2-0.24 0.5-0.63 0.67-0.87 0.16-0.24 0.42-0.69 0.57-1 0.15-0.33 0.32-0.79 0.4-1.1 0.11-0.4 0.14-0.67 0.14-1.03 0-0.29-0.03-0.62-0.08-0.82-0.05-0.18-0.16-0.47-0.24-0.65-0.09-0.17-0.28-0.47-0.43-0.67-0.15-0.19-0.4-0.44-0.55-0.56-0.15-0.11-0.38-0.27-0.51-0.34-0.12-0.07-0.39-0.18-0.59-0.24-0.25-0.08-0.49-0.11-0.84-0.12-0.3 0-0.61 0.03-0.8 0.09-0.17 0.04-0.43 0.13-0.57 0.19-0.13 0.06-0.39 0.2-0.56 0.31-0.18 0.11-0.48 0.37-0.68 0.58-0.23 0.24-0.43 0.51-0.56 0.78-0.11 0.22-0.25 0.48-0.3 0.58-0.05 0.09-0.21 0.3-0.35 0.45s-0.44 0.42-0.66 0.58c-0.23 0.18-0.78 0.49-1.33 0.76-0.66 0.33-1.13 0.6-1.6 0.94-0.37 0.26-0.88 0.68-1.14 0.94-0.25 0.25-0.63 0.68-0.84 0.95-0.2 0.26-0.38 0.49-0.4 0.5-0.02 0-0.12-0.16-0.22-0.36-0.11-0.21-0.22-0.47-0.25-0.58s-0.07-0.46-0.09-0.78c-0.02-0.37 0-0.68 0.04-0.9 0.03-0.17 0.14-0.52 0.23-0.77 0.1-0.28 0.32-0.67 0.55-1.03 0.22-0.32 0.56-0.76 0.77-0.98 0.2-0.22 0.55-0.54 0.77-0.7 0.23-0.17 0.72-0.46 1.11-0.65 0.38-0.19 0.85-0.41 1.04-0.49 0.18-0.08 0.58-0.28 0.88-0.45 0.3-0.16 0.75-0.43 0.99-0.59 0.25-0.16 0.68-0.48 0.96-0.7 0.29-0.23 0.82-0.71 1.18-1.06 0.36-0.36 0.87-0.89 1.12-1.18 0.26-0.3 0.59-0.73 0.74-0.96 0.16-0.24 0.39-0.66 0.53-0.95s0.31-0.73 0.38-0.97 0.15-0.63 0.18-0.88c0.04-0.32 0.04-0.58 0-0.87-0.03-0.23-0.1-0.56-0.15-0.73-0.06-0.17-0.2-0.47-0.31-0.66s-0.32-0.47-0.47-0.62-0.41-0.36-0.57-0.46c-0.16-0.11-0.44-0.25-0.61-0.31-0.18-0.07-0.5-0.15-0.72-0.18s-0.51-0.05-0.64-0.05zm-385.77 15.6c-2.54 0-4.66 2.12-4.66 4.66 0 2.61 2.12 4.73 4.66 4.73 2.61 0 4.73-2.12 4.73-4.73 0-2.54-2.12-4.66-4.73-4.66zm127.19 3.39c-2.55 0-4.66 2.11-4.66 4.73 0 2.54 2.11 4.65 4.66 4.65 2.61 0 4.72-2.11 4.72-4.65 0-2.62-2.11-4.73-4.72-4.73zm172.29 0c-2.54 0-4.66 2.11-4.66 4.72 0 2.54 2.12 4.66 4.66 4.66 2.61 0 4.72-2.12 4.72-4.66 0-2.61-2.11-4.72-4.72-4.72zm-335.74 15.84c-2.54 0-4.65 2.12-4.65 4.66 0 2.61 2.11 4.73 4.65 4.73 2.61 0 4.73-2.12 4.73-4.73 0-2.54-2.12-4.66-4.73-4.66zm-79.52 1.27c-0.46 0-0.93 0.07-1.4 0.21-2.4 0.78-3.81 3.39-3.03 5.86l12.56 40.01c0.56 1.91 2.26 3.25 4.23 3.32h0.21c1.91 0 3.6-1.2 4.31-2.97l11.78-29.92 11.79 29.92c0.7 1.84 2.54 3.04 4.52 2.97 1.97-0.07 3.66-1.41 4.3-3.32l8.33-26.6c0.77-2.47-0.64-5.08-3.04-5.86-2.47-0.78-5.15 0.56-5.93 3.03l-4.37 15.53-11.22-29.21c-0.71-1.77-2.47-2.97-4.38-2.97-1.9 0-3.59 1.2-4.3 2.97l-11.22 29.21-8.61-28.86c-0.63-2.01-2.52-3.32-4.53-3.32zm57.31 0c-2.61 0-4.65 2.12-4.65 4.66 0 2.61 2.04 4.73 4.65 4.73 2.62 0 4.66-2.12 4.66-4.73 0-2.54-2.04-4.66-4.66-4.66zm47.89 0c-2.61 0-4.73 2.12-4.73 4.66 0 2.61 2.12 4.73 4.73 4.73h19.19l-24.27 32.53c-1.06 1.41-1.2 3.31-0.43 4.94 0.78 1.55 2.4 2.54 4.17 2.54h16.16c2.54 0 4.65-2.12 4.65-4.66 0-2.61-2.11-4.66-4.65-4.66h-6.85l24.28-32.6c1.06-1.41 1.2-3.32 0.42-4.87-0.78-1.62-2.4-2.61-4.16-2.61h-28.51zm64.01 0c-1.84 0-3.46 1.06-4.24 2.68l-19.05 40.01c-1.06 2.33-0.07 5.15 2.26 6.28 2.32 1.06 5.08 0.07 6.21-2.25l4.44-9.32h23.71c1.62 0 3.04-0.85 3.88-2.12 1.63-2.4 0.36-4.44-0.42-6.06l-12.56-26.54c-0.78-1.62-2.47-2.68-4.23-2.68zm39.36 0c-2.54 0-4.66 2.12-4.66 4.66v40.08c0 2.54 2.12 4.66 4.66 4.66 2.61 0 4.72-2.12 4.72-4.66v-12.7h10.24l2.11 3.38c1.34 2.19 4.24 2.83 6.43 1.42 4.3-2.76 0.84-7.27 0.84-7.27 4.87-2.75 7.48-7.76 7.48-13.83 0-9.6-6.56-15.74-16.65-15.74h-15.17zm51.17 0c-2.54 0-4.66 2.12-4.66 4.66v40.08c0 2.54 2.12 4.66 4.66 4.66 2.61 0 4.73-2.12 4.73-4.66v-35.71h8.18c10.59 0 16.02 5.44 16.02 15.67 0 4.09-1.2 7.69-3.31 10.3-0.5 0.57-1.13 1.27-1.63 1.84-1.97 1.97-1.9 4.65-0.49 6.35 1.69 1.97 4.66 2.19 6.63 0.56 5.22-4.44 8.12-11.64 8.12-19.05 0-15.31-9.67-24.7-25.34-24.7h-12.77-0.07-0.07zm-46.45 9.1h10.45c4.87 0 7.27 2.9 7.27 7.2 0 3.95-1.91 7.62-7.48 7.62h-10.24v-14.82zm-133.77 3.68c-2.54 0-4.65 2.11-4.65 4.65v27.31c0 2.54 2.11 4.66 4.65 4.66 2.61 0 4.73-2.12 4.73-4.66v-27.31c0-2.54-2.12-4.65-4.73-4.65zm474.18 0.33c-0.66-0.01-1.39 0-1.61 0.01-0.23 0.01-0.85 0.05-1.39 0.09-0.53 0.05-1.43 0.13-1.99 0.18-0.7 0.08-1.14 0.14-1.41 0.23-0.22 0.07-0.54 0.21-0.73 0.32-0.18 0.11-0.48 0.35-0.67 0.55-0.26 0.25-0.41 0.47-0.56 0.77-0.11 0.23-0.24 0.59-0.29 0.8-0.05 0.26-0.07 0.49-0.04 0.73 0.01 0.19 0.07 0.51 0.13 0.71 0.06 0.21 0.21 0.57 0.33 0.81 0.13 0.25 0.33 0.56 0.45 0.7s0.34 0.36 0.49 0.49c0.15 0.12 0.39 0.29 0.54 0.36 0.14 0.08 0.43 0.18 0.64 0.23 0.26 0.06 0.5 0.08 0.77 0.06 0.33-0.02 0.41-0.01 0.53 0.08 0.11 0.08 0.18 0.09 0.38 0.07 0.14-0.02 0.75-0.09 1.38-0.16 0.62-0.07 1.53-0.15 2.02-0.18 0.58-0.03 1.22-0.03 1.84 0 0.53 0.02 1.28 0.09 1.67 0.15s1.02 0.19 1.39 0.28c0.37 0.1 0.94 0.27 1.27 0.38 0.33 0.12 0.93 0.35 1.34 0.52 0.4 0.17 0.98 0.45 1.29 0.61 0.32 0.16 0.81 0.44 1.11 0.62 0.3 0.17 0.81 0.51 1.14 0.74 0.32 0.23 0.84 0.62 1.15 0.88 0.3 0.25 1.09 1 1.76 1.66 0.66 0.67 1.52 1.57 1.9 2 0.38 0.44 0.92 1.07 1.19 1.4s0.82 1.05 1.23 1.59 0.95 1.29 1.2 1.66c0.25 0.36 0.69 1.02 0.97 1.46 0.29 0.43 0.91 1.44 1.38 2.23s1.24 2.01 1.71 2.72c0.46 0.7 1 1.46 1.19 1.69 0.19 0.22 0.7 0.79 1.14 1.25s0.98 1 1.2 1.2 0.67 0.56 1 0.81 0.87 0.63 1.2 0.84c0.33 0.22 0.8 0.48 1.04 0.57 0.24 0.1 0.68 0.27 0.98 0.38s0.88 0.28 1.28 0.38 1 0.22 1.32 0.26 0.9 0.08 1.29 0.08 1.02-0.04 1.4-0.08 0.95-0.12 1.28-0.18c0.32-0.06 0.92-0.18 1.33-0.28s0.94-0.24 1.18-0.31c0.24-0.08 0.6-0.22 0.8-0.32 0.25-0.13 0.47-0.29 0.77-0.59 0.3-0.31 0.46-0.52 0.6-0.81 0.1-0.21 0.24-0.57 0.29-0.79 0.07-0.27 0.11-0.57 0.11-0.9 0-0.32-0.04-0.63-0.11-0.9-0.05-0.22-0.19-0.58-0.29-0.79-0.14-0.28-0.31-0.5-0.6-0.8-0.31-0.31-0.51-0.46-0.8-0.6-0.21-0.1-0.52-0.22-0.69-0.27-0.18-0.04-0.53-0.08-0.83-0.08-0.46 0-0.62 0.03-1.39 0.23-0.47 0.13-1.07 0.27-1.32 0.32-0.26 0.04-0.82 0.09-1.27 0.11-0.49 0.02-0.96 0-1.21-0.03-0.23-0.04-0.65-0.12-0.93-0.19-0.29-0.07-0.75-0.23-1.02-0.36l-0.5-0.24-0.71-0.72c-0.4-0.4-0.89-0.96-1.11-1.25-0.21-0.29-0.51-0.7-0.67-0.93-0.16-0.22-0.72-1.05-1.26-1.86-0.53-0.8-1.28-1.95-1.66-2.56-0.37-0.6-0.95-1.48-1.27-1.94-0.33-0.47-0.85-1.22-1.18-1.65-0.32-0.44-0.79-1.06-1.05-1.39-0.25-0.32-0.67-0.84-0.93-1.15-0.25-0.31-0.87-1.04-1.36-1.62s-1.35-1.5-1.9-2.05-1.32-1.28-1.72-1.62c-0.39-0.34-1-0.83-1.36-1.1-0.35-0.28-0.93-0.71-1.3-0.96-0.36-0.26-0.97-0.67-1.35-0.91s-1-0.62-1.36-0.83c-0.37-0.22-1.07-0.56-1.55-0.77s-1.13-0.48-1.44-0.6-0.81-0.31-1.12-0.41-0.83-0.25-1.16-0.34c-0.32-0.08-0.84-0.19-1.15-0.25s-0.78-0.14-1.05-0.18-0.85-0.11-1.29-0.16c-0.44-0.04-1.34-0.09-2-0.1zm-384.49 2.42l6.63 13.83h-13.2l6.57-13.83zm377.28 9.59c-0.14 0.01-0.54 0.04-0.89 0.07s-0.98 0.11-1.41 0.18c-0.42 0.07-1.11 0.21-1.52 0.31-0.4 0.1-1.14 0.32-1.64 0.48-0.49 0.17-1.24 0.45-1.66 0.63l-0.77 0.32-0.46 0.44c-0.25 0.23-0.57 0.62-0.72 0.84-0.15 0.23-0.34 0.55-0.41 0.72-0.08 0.17-0.19 0.49-0.25 0.72-0.07 0.28-0.1 0.57-0.1 0.9 0 0.28 0.03 0.62 0.08 0.82 0.05 0.18 0.17 0.5 0.27 0.71 0.14 0.28 0.3 0.49 0.56 0.75 0.29 0.29 0.47 0.42 0.85 0.61 0.27 0.13 0.62 0.27 0.79 0.31 0.17 0.05 0.51 0.1 0.75 0.12 0.31 0.02 0.56 0 0.86-0.06 0.26-0.06 0.67-0.19 1-0.35 0.32-0.14 0.83-0.36 1.14-0.48s0.77-0.27 1.02-0.34 0.67-0.18 0.92-0.24c0.26-0.06 0.76-0.14 1.11-0.19 0.49-0.06 0.89-0.08 1.72-0.06 0.79 0.02 1.24 0.06 1.71 0.14 0.35 0.06 0.92 0.19 1.26 0.28 0.35 0.1 0.86 0.26 1.14 0.37 0.27 0.1 0.72 0.28 0.99 0.41 0.28 0.12 0.74 0.36 1.03 0.53 0.29 0.18 0.67 0.42 0.84 0.53s0.57 0.4 0.9 0.64c0.32 0.24 0.87 0.67 1.21 0.96 0.33 0.29 0.94 0.86 1.34 1.26 0.4 0.41 0.9 0.95 1.12 1.2s0.58 0.72 0.82 1.03c0.23 0.32 0.55 0.77 0.71 1.01 0.15 0.23 0.48 0.77 0.72 1.2 0.25 0.42 0.7 1.27 1.01 1.89 0.3 0.62 0.7 1.51 0.88 1.98 0.19 0.46 0.44 1.18 0.57 1.59 0.13 0.4 0.32 1.05 0.42 1.43 0.09 0.38 0.23 0.99 0.3 1.36s0.14 0.79 0.16 0.95c0.01 0.16 0.11 0.77 0.21 1.36s0.28 1.57 0.41 2.17c0.13 0.61 0.34 1.59 0.49 2.18 0.14 0.6 0.36 1.5 0.48 2 0.13 0.51 0.35 1.25 0.5 1.65 0.14 0.39 0.42 1.1 0.61 1.56 0.2 0.47 0.57 1.28 0.84 1.8 0.26 0.52 0.62 1.21 0.81 1.53 0.19 0.33 0.47 0.78 0.64 1 0.16 0.22 0.5 0.65 0.76 0.95 0.25 0.3 0.82 0.9 1.26 1.32 0.44 0.43 1.06 0.97 1.38 1.21 0.32 0.25 0.84 0.61 1.15 0.8 0.31 0.2 0.87 0.53 1.23 0.73 0.37 0.21 0.91 0.49 1.2 0.63 0.3 0.14 0.81 0.36 1.13 0.5 0.33 0.14 0.97 0.38 1.44 0.54 0.46 0.15 1.2 0.37 1.64 0.48s1.2 0.29 1.69 0.38c0.5 0.1 1.29 0.24 1.76 0.31 0.47 0.08 1.26 0.18 1.74 0.24 0.49 0.05 1.32 0.13 1.84 0.18 0.52 0.04 1.84 0.1 2.93 0.13l1.98 0.06 0.29-0.11c0.16-0.06 0.33-0.11 0.38-0.11s0.24-0.13 0.42-0.28c0.18-0.16 0.34-0.28 0.37-0.28 0.02 0 0.06-0.06 0.09-0.12s0.12-0.21 0.19-0.32c0.08-0.12 0.19-0.29 0.26-0.39 0.06-0.09 0.11-0.25 0.11-0.34s0.05-0.28 0.11-0.42c0.08-0.21 0.1-0.38 0.1-0.8 0-0.41-0.02-0.59-0.1-0.79-0.06-0.15-0.11-0.31-0.11-0.36s-0.1-0.21-0.23-0.36c-0.13-0.16-0.28-0.33-0.32-0.4-0.04-0.06-0.1-0.11-0.14-0.11-0.03 0-0.34-0.28-0.68-0.61-0.33-0.34-0.8-0.85-1.04-1.14-0.23-0.3-0.62-0.83-0.85-1.18s-0.6-0.97-0.81-1.37c-0.22-0.4-0.45-0.89-0.53-1.08-0.07-0.19-0.17-0.55-0.23-0.81-0.07-0.31-0.11-0.75-0.12-1.38-0.03-0.71-0.01-1.04 0.05-1.42 0.04-0.27 0.15-0.69 0.23-0.92 0.08-0.24 0.27-0.74 0.41-1.13 0.14-0.38 0.28-0.74 0.31-0.8s0.06-0.15 0.06-0.21c0-0.05 0.08-0.23 0.18-0.4 0.09-0.16 0.22-0.41 0.27-0.55 0.05-0.15 0.13-0.44 0.16-0.65 0.04-0.22 0.05-0.54 0.03-0.77-0.01-0.21-0.06-0.52-0.11-0.69-0.04-0.17-0.16-0.47-0.25-0.67-0.1-0.19-0.3-0.51-0.46-0.69-0.16-0.2-0.42-0.44-0.63-0.57-0.19-0.13-0.47-0.28-0.62-0.35-0.15-0.06-0.45-0.14-0.66-0.18-0.21-0.05-0.55-0.08-0.76-0.08-0.2 0-0.54 0.05-0.76 0.1-0.21 0.06-0.52 0.17-0.69 0.25-0.16 0.09-0.42 0.26-0.57 0.39-0.14 0.13-0.44 0.49-0.67 0.79-0.22 0.3-0.51 0.71-0.64 0.92-0.13 0.2-0.31 0.51-0.39 0.69-0.09 0.17-0.27 0.58-0.39 0.9s-0.31 0.86-0.41 1.21c-0.1 0.34-0.23 0.9-0.3 1.24s-0.15 0.86-0.19 1.15c-0.03 0.34-0.05 0.92-0.03 1.57 0.02 0.69 0.06 1.23 0.14 1.66 0.06 0.36 0.17 0.9 0.26 1.21 0.08 0.31 0.23 0.81 0.33 1.1 0.1 0.3 0.3 0.79 0.44 1.1s0.29 0.6 0.34 0.65c0.06 0.07 0.06 0.1 0.02 0.1s-0.35-0.06-0.69-0.13-0.98-0.23-1.41-0.36c-0.43-0.12-1.14-0.36-1.59-0.51-0.44-0.16-1.2-0.48-1.67-0.72-0.48-0.23-1.08-0.56-1.34-0.73-0.25-0.17-0.64-0.45-0.86-0.62-0.21-0.18-0.57-0.52-0.79-0.77-0.21-0.24-0.52-0.62-0.68-0.83s-0.44-0.6-0.61-0.86c-0.17-0.27-0.53-0.91-0.79-1.44-0.27-0.53-0.6-1.25-0.74-1.62-0.15-0.37-0.33-0.85-0.4-1.08s-0.26-0.9-0.41-1.51-0.34-1.38-0.41-1.72c-0.08-0.34-0.41-1.97-0.74-3.62-0.34-1.65-0.7-3.33-0.8-3.74s-0.29-1.09-0.41-1.51c-0.13-0.43-0.32-1.05-0.44-1.39s-0.32-0.9-0.46-1.26c-0.14-0.35-0.36-0.9-0.5-1.23-0.14-0.32-0.46-1-0.71-1.51-0.26-0.51-0.67-1.27-0.92-1.69s-0.67-1.11-0.95-1.51c-0.27-0.41-0.74-1.07-1.03-1.47-0.3-0.39-0.8-1.03-1.12-1.41s-0.96-1.07-1.41-1.53-1.08-1.07-1.4-1.36c-0.32-0.28-0.91-0.78-1.31-1.1s-1.03-0.78-1.39-1.03c-0.37-0.25-0.89-0.58-1.16-0.73-0.27-0.16-0.67-0.38-0.89-0.5-0.23-0.12-0.67-0.33-0.98-0.48-0.31-0.14-0.89-0.38-1.28-0.54-0.4-0.15-1.02-0.38-1.38-0.51-0.37-0.12-0.95-0.29-1.29-0.37s-0.9-0.2-1.26-0.25c-0.35-0.06-0.88-0.13-1.18-0.16-0.29-0.03-1.02-0.06-1.61-0.07-0.59-0.02-1.19-0.02-1.34 0zm-309.27 14.82c-2.55 0-4.66 2.12-4.66 4.73 0 2.54 2.11 4.66 4.66 4.66 2.61 0 4.65-2.12 4.65-4.66 0-2.61-2.04-4.73-4.65-4.73zm-49.03 0.07c-2.54 0-4.66 2.12-4.66 4.73 0 2.54 2.12 4.66 4.66 4.66 2.61 0 4.72-2.12 4.72-4.66 0-2.61-2.11-4.73-4.72-4.73zm85.59 0c-2.54 0-4.65 2.12-4.65 4.73 0 2.54 2.11 4.66 4.65 4.66 2.61 0 4.73-2.12 4.73-4.66 0-2.61-2.12-4.73-4.73-4.73zm-139.72 0.07c-2.61 0-4.73 2.05-4.73 4.66 0 2.54 2.12 4.66 4.73 4.66 2.54 0 4.66-2.12 4.66-4.66 0-2.61-2.12-4.66-4.66-4.66zm-42.74 26.12l-2.16 17.83h2.91l2.18-17.83h-2.93zm36.33 0l-2.17 17.83h2.92l2.17-17.83h-2.92zm223.39 0l-0.81 6.45c-0.33-0.35-0.73-0.63-1.17-0.83-0.45-0.2-0.95-0.3-1.5-0.3s-1.08 0.11-1.59 0.32c-0.5 0.2-0.98 0.49-1.43 0.86-0.44 0.37-0.85 0.8-1.22 1.31-0.36 0.5-0.67 1.05-0.94 1.65-0.26 0.6-0.46 1.24-0.61 1.91-0.14 0.67-0.21 1.35-0.21 2.04 0 0.79 0.08 1.47 0.24 2.04 0.16 0.58 0.38 1.05 0.68 1.43s0.65 0.66 1.07 0.85c0.41 0.19 0.88 0.28 1.39 0.28 0.42 0 0.82-0.07 1.21-0.21 0.4-0.13 0.79-0.32 1.15-0.57 0.37-0.25 0.72-0.55 1.06-0.9 0.34-0.36 0.65-0.76 0.95-1.2l-0.11 1.72c0 0.28 0.06 0.51 0.19 0.7 0.14 0.19 0.39 0.28 0.77 0.28h1.57l2.21-17.83h-2.9zm-188.43 0.03c-0.23 0-0.46 0.06-0.69 0.16-0.21 0.09-0.4 0.23-0.57 0.41-0.17 0.17-0.31 0.36-0.41 0.6-0.1 0.23-0.16 0.47-0.16 0.73s0.05 0.49 0.15 0.72c0.1 0.22 0.24 0.42 0.41 0.59 0.16 0.16 0.36 0.3 0.57 0.4 0.22 0.1 0.44 0.15 0.67 0.15 0.24 0 0.48-0.05 0.7-0.15s0.42-0.24 0.6-0.4c0.18-0.17 0.32-0.37 0.42-0.59 0.11-0.23 0.17-0.46 0.17-0.72s-0.05-0.51-0.16-0.74c-0.1-0.24-0.24-0.44-0.42-0.61-0.17-0.16-0.36-0.3-0.59-0.39-0.22-0.11-0.45-0.16-0.69-0.16zm-10.45 1.72c-0.17 0-0.31 0.04-0.42 0.13-0.12 0.09-0.2 0.21-0.26 0.37l-0.98 3.36-1.87 0.33-0.13 1.17c-0.04 0.21-0.01 0.37 0.08 0.47 0.1 0.1 0.22 0.16 0.36 0.16h1.16l-0.68 5.52c-0.05 0.38-0.09 0.7-0.12 0.94-0.02 0.24-0.04 0.44-0.06 0.59-0.01 0.15-0.01 0.26-0.01 0.34v0.19c0.02 0.86 0.29 1.52 0.79 1.99 0.51 0.47 1.2 0.71 2.08 0.71 0.55 0 1.09-0.09 1.62-0.28 0.53-0.18 1.02-0.45 1.46-0.81l-0.64-1.44c-0.04-0.09-0.08-0.15-0.13-0.19-0.05-0.05-0.11-0.08-0.2-0.08-0.07 0-0.13 0.03-0.21 0.08-0.07 0.04-0.15 0.08-0.24 0.13-0.08 0.05-0.19 0.09-0.31 0.14-0.12 0.04-0.26 0.06-0.43 0.06-0.27 0-0.48-0.09-0.64-0.26-0.14-0.18-0.21-0.42-0.21-0.72v-0.09c0-0.04 0-0.12 0.01-0.22 0.02-0.12 0.04-0.27 0.06-0.46s0.06-0.45 0.1-0.78l0.66-5.36h2.98l0.26-2.12h-2.98l0.48-3.87h-1.58zm112.54 0c-0.16 0-0.3 0.04-0.42 0.13-0.11 0.09-0.19 0.21-0.25 0.37l-0.98 3.36-1.88 0.33-0.13 1.17c-0.03 0.21 0 0.37 0.09 0.47s0.21 0.16 0.36 0.16h1.16l-0.68 5.52c-0.05 0.38-0.09 0.7-0.12 0.94s-0.05 0.44-0.06 0.59-0.01 0.26-0.01 0.34v0.19c0.02 0.86 0.28 1.52 0.79 1.99s1.2 0.71 2.07 0.71c0.56 0 1.09-0.09 1.62-0.28 0.54-0.18 1.03-0.45 1.47-0.81l-0.64-1.44c-0.04-0.09-0.08-0.15-0.13-0.19-0.05-0.05-0.12-0.08-0.21-0.08-0.06 0-0.13 0.03-0.2 0.08-0.07 0.04-0.15 0.08-0.24 0.13s-0.19 0.09-0.31 0.14c-0.12 0.04-0.27 0.06-0.43 0.06-0.28 0-0.49-0.09-0.64-0.26-0.14-0.18-0.21-0.42-0.21-0.72v-0.09c0-0.04 0-0.12 0.01-0.22 0.01-0.12 0.03-0.27 0.06-0.46 0.02-0.19 0.05-0.45 0.09-0.78l0.66-5.36h2.99l0.25-2.12h-2.97l0.48-3.87h-1.59zm-89.06 3.57c-0.81 0-1.59 0.23-2.35 0.69-0.76 0.45-1.46 1.13-2.08 2.05l0.07-1.6c0-0.33-0.09-0.58-0.26-0.73s-0.41-0.23-0.72-0.23h-1.5l-1.48 12.33h2.97l0.68-6.12c0.17-0.6 0.38-1.14 0.65-1.62 0.27-0.49 0.56-0.91 0.88-1.25 0.32-0.35 0.66-0.62 1-0.8 0.34-0.2 0.68-0.29 1.01-0.29 0.49 0 0.82 0.17 1.01 0.53 0.18 0.34 0.22 0.91 0.12 1.71l-0.93 7.84h2.97l0.92-7.84c0.1-0.74 0.09-1.4-0.02-1.98s-0.29-1.07-0.55-1.46c-0.27-0.4-0.6-0.71-1.01-0.91-0.41-0.21-0.87-0.32-1.38-0.32zm12.81 0c-0.86 0-1.61 0.14-2.26 0.41s-1.19 0.64-1.63 1.09-0.77 0.96-1 1.54c-0.22 0.57-0.33 1.15-0.33 1.75 0 0.63 0.09 1.17 0.27 1.65 0.2 0.46 0.45 0.85 0.77 1.16s0.69 0.54 1.11 0.7c0.42 0.15 0.86 0.23 1.33 0.23 0.54 0 1.01-0.06 1.39-0.17 0.39-0.11 0.74-0.28 1.04-0.48-0.25 0.56-0.38 1.07-0.38 1.53 0 0.28 0.04 0.54 0.11 0.78-0.48-0.08-1-0.13-1.56-0.14-0.56-0.02-1.12 0.01-1.68 0.08s-1.1 0.19-1.62 0.36-0.98 0.4-1.38 0.69c-0.4 0.28-0.72 0.62-0.96 1.04s-0.36 0.9-0.36 1.46c0 0.46 0.11 0.88 0.34 1.25 0.24 0.39 0.57 0.72 0.99 1s0.94 0.49 1.55 0.65 1.29 0.24 2.04 0.24c0.93 0 1.76-0.12 2.49-0.36 0.74-0.24 1.36-0.57 1.86-0.99 0.52-0.41 0.91-0.88 1.18-1.44 0.27-0.54 0.41-1.12 0.42-1.73 0-0.43-0.07-0.81-0.2-1.14-0.14-0.32-0.29-0.63-0.45-0.92s-0.31-0.57-0.44-0.84c-0.14-0.28-0.21-0.58-0.21-0.91 0-0.31 0.04-0.58 0.12-0.83 0.08-0.26 0.18-0.49 0.29-0.72 0.12-0.23 0.25-0.46 0.39-0.67 0.13-0.23 0.26-0.46 0.37-0.71 0.12-0.25 0.22-0.52 0.3-0.8 0.08-0.3 0.12-0.63 0.12-1 0-0.19-0.01-0.38-0.04-0.55-0.01-0.19-0.04-0.36-0.08-0.52l1.26-0.32c0.33-0.13 0.53-0.39 0.59-0.77l0.13-0.96h-3.45c-0.34-0.22-0.72-0.38-1.14-0.48-0.41-0.1-0.84-0.16-1.29-0.16zm33.29 0c-0.89 0-1.72 0.2-2.51 0.58-0.78 0.38-1.47 0.91-2.06 1.58-0.58 0.68-1.05 1.47-1.39 2.39s-0.52 1.92-0.52 2.98c0 0.82 0.12 1.55 0.36 2.19s0.58 1.18 1 1.62 0.92 0.78 1.5 1.01 1.2 0.34 1.88 0.34c0.89 0 1.73-0.19 2.51-0.58 0.79-0.39 1.47-0.92 2.05-1.59 0.6-0.68 1.06-1.48 1.41-2.39 0.34-0.92 0.51-1.91 0.51-2.97 0-0.82-0.12-1.55-0.36-2.19s-0.57-1.18-0.99-1.62-0.92-0.77-1.5-1-1.21-0.35-1.89-0.35zm91.51 0c-0.71 0-1.38 0.21-2.03 0.63-0.65 0.41-1.25 1.03-1.8 1.87l0.06-1.36c0-0.33-0.09-0.58-0.26-0.73s-0.41-0.23-0.72-0.23h-1.52l-1.48 12.33h2.9l0.77-6.43c0.17-0.56 0.36-1.07 0.57-1.52 0.23-0.45 0.47-0.84 0.73-1.15 0.26-0.32 0.54-0.56 0.82-0.73 0.3-0.17 0.61-0.25 0.93-0.25 0.45 0 0.75 0.17 0.88 0.53 0.14 0.34 0.16 0.91 0.06 1.71l-0.93 7.84h2.93l0.76-6.54c0.17-0.55 0.36-1.05 0.58-1.49s0.47-0.81 0.72-1.11c0.27-0.31 0.54-0.54 0.83-0.7s0.58-0.24 0.89-0.24c0.44 0 0.74 0.17 0.88 0.53 0.16 0.34 0.18 0.91 0.08 1.71l-0.93 7.84h2.93l0.92-7.84c0.1-0.74 0.1-1.4 0.02-1.98-0.09-0.58-0.26-1.07-0.51-1.46-0.25-0.4-0.56-0.71-0.96-0.91-0.39-0.21-0.85-0.32-1.37-0.32-0.82 0-1.58 0.24-2.29 0.72-0.69 0.48-1.33 1.22-1.9 2.23-0.08-0.96-0.33-1.69-0.77-2.19s-1.04-0.76-1.79-0.76zm96.69 0c-0.76 0-1.43 0.13-2.03 0.37-0.58 0.24-1.07 0.55-1.47 0.95s-0.71 0.85-0.91 1.37c-0.21 0.52-0.31 1.04-0.31 1.59 0 0.45 0.06 0.84 0.2 1.16 0.13 0.31 0.31 0.58 0.54 0.8s0.49 0.4 0.77 0.54c0.29 0.15 0.58 0.28 0.87 0.39 0.31 0.11 0.6 0.22 0.89 0.32s0.54 0.21 0.77 0.35c0.23 0.13 0.42 0.28 0.55 0.47 0.14 0.17 0.2 0.4 0.2 0.67 0 0.22-0.04 0.44-0.13 0.64-0.08 0.2-0.22 0.37-0.39 0.52-0.18 0.16-0.4 0.28-0.65 0.36-0.25 0.09-0.54 0.14-0.86 0.14-0.41 0-0.75-0.06-1.01-0.16s-0.48-0.22-0.66-0.34-0.34-0.24-0.47-0.34c-0.14-0.11-0.29-0.16-0.46-0.16s-0.32 0.04-0.44 0.11-0.23 0.17-0.31 0.31l-0.73 1.13c0.18 0.21 0.4 0.41 0.67 0.6 0.26 0.18 0.55 0.34 0.86 0.48 0.32 0.13 0.66 0.24 1.03 0.31 0.37 0.08 0.75 0.12 1.13 0.12 0.78 0 1.47-0.12 2.09-0.35 0.62-0.24 1.15-0.56 1.59-0.96 0.44-0.41 0.78-0.88 1.01-1.41 0.24-0.54 0.36-1.1 0.36-1.7 0-0.58-0.12-1.05-0.36-1.42-0.23-0.38-0.52-0.68-0.88-0.91-0.36-0.24-0.75-0.44-1.17-0.59-0.41-0.16-0.79-0.32-1.15-0.47s-0.66-0.33-0.9-0.53c-0.23-0.2-0.35-0.46-0.35-0.79 0-0.43 0.17-0.78 0.5-1.06 0.34-0.29 0.82-0.43 1.46-0.43 0.33 0 0.62 0.04 0.86 0.12 0.25 0.08 0.47 0.17 0.65 0.28 0.19 0.09 0.36 0.18 0.5 0.26 0.15 0.08 0.29 0.12 0.43 0.12 0.13 0 0.24-0.02 0.32-0.07 0.08-0.06 0.16-0.15 0.25-0.28l0.76-1.08c-0.41-0.41-0.92-0.75-1.53-1.02s-1.3-0.41-2.09-0.41zm-342.01 0.02c-0.63 0-1.23 0.09-1.79 0.28s-1.09 0.45-1.57 0.78c-0.48 0.34-0.91 0.74-1.29 1.2-0.39 0.47-0.71 0.98-0.98 1.54-0.28 0.56-0.49 1.16-0.63 1.79s-0.22 1.28-0.22 1.94c0 0.78 0.11 1.48 0.32 2.11 0.2 0.64 0.5 1.18 0.9 1.62 0.39 0.45 0.86 0.8 1.42 1.05 0.57 0.24 1.21 0.36 1.92 0.36 0.51 0 0.97-0.04 1.39-0.12 0.42-0.07 0.82-0.2 1.21-0.39 0.38-0.18 0.76-0.42 1.12-0.73 0.38-0.3 0.77-0.68 1.18-1.13l-0.74-0.91c-0.08-0.08-0.16-0.14-0.26-0.19-0.08-0.06-0.18-0.08-0.28-0.08-0.13 0-0.25 0.03-0.36 0.09-0.11 0.07-0.22 0.15-0.34 0.24s-0.25 0.19-0.38 0.3c-0.14 0.11-0.3 0.21-0.48 0.3s-0.38 0.17-0.62 0.23c-0.23 0.06-0.5 0.1-0.8 0.1-0.69 0-1.23-0.25-1.63-0.74s-0.6-1.19-0.6-2.1c0-0.77 0.09-1.48 0.27-2.12 0.2-0.64 0.45-1.19 0.77-1.64 0.32-0.46 0.69-0.81 1.11-1.06 0.41-0.25 0.85-0.37 1.3-0.37 0.36 0 0.64 0.04 0.86 0.13 0.22 0.08 0.4 0.17 0.55 0.26 0.15 0.1 0.28 0.19 0.38 0.28 0.11 0.08 0.24 0.12 0.37 0.12 0.12 0 0.22-0.03 0.32-0.08 0.09-0.07 0.17-0.14 0.24-0.21l0.94-1.13c-0.44-0.57-0.94-1-1.52-1.29-0.57-0.29-1.26-0.43-2.08-0.43zm14.39 0c-0.76 0-1.5 0.1-2.19 0.31-0.69 0.2-1.33 0.48-1.93 0.85s-1.13 0.81-1.61 1.32-0.89 1.08-1.24 1.69c-0.33 0.61-0.59 1.26-0.78 1.96-0.18 0.69-0.27 1.41-0.27 2.15 0 0.73 0.08 1.38 0.25 1.93 0.17 0.54 0.41 1 0.71 1.37 0.3 0.36 0.65 0.63 1.05 0.81 0.41 0.19 0.85 0.28 1.31 0.28 0.81 0 1.55-0.25 2.23-0.74 0.69-0.5 1.31-1.17 1.85-2.01l-0.1 1.59c0 0.28 0.07 0.51 0.2 0.7s0.39 0.28 0.77 0.28h1.57l1.47-11.94c-0.53-0.21-1.07-0.35-1.63-0.43-0.55-0.08-1.1-0.12-1.66-0.12zm21.29 0c-0.64 0-1.23 0.09-1.8 0.28-0.56 0.19-1.08 0.45-1.56 0.78-0.48 0.34-0.92 0.74-1.3 1.2-0.38 0.47-0.71 0.98-0.98 1.54s-0.48 1.16-0.63 1.79c-0.14 0.63-0.21 1.28-0.21 1.94 0 0.78 0.1 1.48 0.31 2.11 0.21 0.64 0.51 1.18 0.9 1.62 0.39 0.45 0.87 0.8 1.43 1.05 0.56 0.24 1.2 0.36 1.92 0.36 0.5 0 0.96-0.04 1.38-0.12 0.42-0.07 0.82-0.2 1.21-0.39 0.38-0.18 0.76-0.42 1.13-0.73 0.37-0.3 0.76-0.68 1.17-1.13l-0.74-0.91c-0.07-0.08-0.16-0.14-0.25-0.19-0.09-0.06-0.19-0.08-0.29-0.08-0.13 0-0.25 0.03-0.36 0.09-0.11 0.07-0.22 0.15-0.34 0.24s-0.24 0.19-0.38 0.3-0.3 0.21-0.48 0.3-0.38 0.17-0.61 0.23c-0.24 0.06-0.5 0.1-0.81 0.1-0.69 0-1.23-0.25-1.63-0.74s-0.6-1.19-0.6-2.1c0-0.77 0.09-1.48 0.28-2.12s0.45-1.19 0.77-1.64c0.32-0.46 0.68-0.81 1.1-1.06 0.41-0.25 0.85-0.37 1.31-0.37 0.35 0 0.63 0.04 0.85 0.13 0.22 0.08 0.41 0.17 0.55 0.26 0.15 0.1 0.28 0.19 0.38 0.28 0.12 0.08 0.24 0.12 0.38 0.12 0.11 0 0.21-0.03 0.31-0.08 0.09-0.07 0.17-0.14 0.24-0.21l0.95-1.13c-0.44-0.57-0.95-1-1.53-1.29-0.57-0.29-1.26-0.43-2.07-0.43zm37.78 0c-0.77 0-1.5 0.1-2.2 0.31-0.69 0.2-1.33 0.48-1.93 0.85-0.59 0.37-1.13 0.81-1.61 1.32s-0.89 1.08-1.24 1.69c-0.33 0.61-0.59 1.26-0.77 1.96-0.19 0.69-0.28 1.41-0.28 2.15 0 0.73 0.08 1.38 0.25 1.93 0.18 0.54 0.41 1 0.71 1.37 0.3 0.36 0.65 0.63 1.05 0.81 0.41 0.19 0.85 0.28 1.31 0.28 0.81 0 1.55-0.25 2.23-0.74 0.69-0.5 1.31-1.17 1.85-2.01l-0.09 1.59c0 0.28 0.06 0.51 0.19 0.7s0.39 0.28 0.77 0.28h1.57l1.47-11.94c-0.52-0.21-1.07-0.35-1.63-0.43-0.55-0.08-1.1-0.12-1.65-0.12zm138.09 0c-0.77 0-1.5 0.1-2.2 0.31-0.68 0.2-1.33 0.48-1.93 0.85-0.59 0.37-1.13 0.81-1.61 1.32s-0.89 1.08-1.23 1.69-0.6 1.26-0.78 1.96c-0.18 0.69-0.28 1.41-0.28 2.15 0 0.73 0.09 1.38 0.25 1.93 0.18 0.54 0.42 1 0.71 1.37 0.31 0.36 0.66 0.63 1.06 0.81 0.41 0.19 0.84 0.28 1.31 0.28 0.8 0 1.55-0.25 2.23-0.74 0.69-0.5 1.3-1.17 1.85-2.01l-0.1 1.59c0 0.28 0.06 0.51 0.19 0.7 0.14 0.19 0.4 0.28 0.77 0.28h1.57l1.48-11.94c-0.53-0.21-1.07-0.35-1.63-0.43-0.55-0.08-1.11-0.12-1.66-0.12zm55.27 0c-0.77 0-1.5 0.1-2.2 0.31-0.69 0.2-1.33 0.48-1.93 0.85-0.59 0.37-1.13 0.81-1.61 1.32s-0.89 1.08-1.24 1.69c-0.33 0.61-0.59 1.26-0.78 1.96-0.18 0.69-0.27 1.41-0.27 2.15 0 0.73 0.08 1.38 0.25 1.93 0.18 0.54 0.41 1 0.71 1.37 0.3 0.36 0.65 0.63 1.05 0.81 0.41 0.19 0.85 0.28 1.31 0.28 0.81 0 1.55-0.25 2.23-0.74 0.69-0.5 1.31-1.17 1.85-2.01l-0.09 1.59c0 0.28 0.06 0.51 0.19 0.7s0.39 0.28 0.77 0.28h1.57l1.47-11.94c-0.52-0.21-1.07-0.35-1.63-0.43-0.55-0.08-1.1-0.12-1.65-0.12zm63.04 0c-0.76 0-1.5 0.1-2.19 0.31-0.69 0.2-1.34 0.48-1.94 0.85-0.59 0.37-1.12 0.81-1.6 1.32s-0.9 1.08-1.24 1.69-0.59 1.26-0.78 1.96c-0.18 0.69-0.28 1.41-0.28 2.15 0 0.73 0.09 1.38 0.26 1.93 0.17 0.54 0.41 1 0.71 1.37 0.3 0.36 0.65 0.63 1.05 0.81 0.41 0.19 0.84 0.28 1.31 0.28 0.81 0 1.55-0.25 2.23-0.74 0.69-0.5 1.3-1.17 1.85-2.01l-0.1 1.59c0 0.28 0.07 0.51 0.19 0.7 0.14 0.19 0.4 0.28 0.77 0.28h1.57l1.48-11.94c-0.53-0.21-1.07-0.35-1.63-0.43-0.55-0.08-1.1-0.12-1.66-0.12zm-34.47 0.01c-0.67 0-1.29 0.09-1.87 0.29-0.58 0.19-1.11 0.46-1.6 0.8-0.48 0.34-0.91 0.75-1.29 1.22-0.39 0.48-0.71 0.99-0.98 1.55-0.26 0.56-0.46 1.15-0.61 1.78-0.13 0.62-0.2 1.26-0.2 1.91 0 0.77 0.11 1.48 0.33 2.11 0.23 0.62 0.56 1.16 0.97 1.61 0.42 0.44 0.92 0.78 1.5 1.03 0.59 0.24 1.24 0.36 1.96 0.36 0.55 0 1.06-0.05 1.54-0.15 0.47-0.09 0.92-0.24 1.34-0.44s0.84-0.46 1.25-0.77 0.82-0.68 1.25-1.1l-0.76-0.91c-0.07-0.08-0.16-0.15-0.25-0.2-0.09-0.04-0.18-0.07-0.28-0.07-0.16 0-0.31 0.04-0.44 0.11-0.14 0.06-0.28 0.14-0.42 0.24s-0.29 0.2-0.46 0.32c-0.16 0.12-0.34 0.23-0.55 0.33-0.2 0.09-0.43 0.18-0.71 0.25-0.27 0.06-0.58 0.1-0.93 0.1-1.64 0-2.46-0.97-2.46-2.91v-0.15c1.5-0.16 2.74-0.36 3.72-0.62 0.97-0.26 1.74-0.57 2.3-0.93 0.57-0.36 0.96-0.77 1.18-1.23 0.22-0.45 0.33-0.96 0.33-1.51 0-0.34-0.08-0.69-0.24-1.05s-0.4-0.69-0.73-0.97c-0.32-0.3-0.72-0.54-1.21-0.73-0.48-0.18-1.04-0.27-1.68-0.27zm19.17 0c-0.66 0-1.29 0.09-1.87 0.29-0.58 0.19-1.11 0.46-1.6 0.8-0.48 0.34-0.91 0.75-1.29 1.22-0.39 0.48-0.71 0.99-0.98 1.55-0.26 0.56-0.46 1.15-0.61 1.78-0.13 0.62-0.2 1.26-0.2 1.91 0 0.77 0.11 1.48 0.33 2.11 0.24 0.62 0.56 1.16 0.98 1.61 0.41 0.44 0.91 0.78 1.5 1.03 0.58 0.24 1.23 0.36 1.95 0.36 0.56 0 1.07-0.05 1.54-0.15 0.47-0.09 0.92-0.24 1.34-0.44 0.43-0.2 0.84-0.46 1.25-0.77s0.82-0.68 1.25-1.1l-0.76-0.91c-0.07-0.08-0.15-0.15-0.25-0.2-0.09-0.04-0.18-0.07-0.27-0.07-0.16 0-0.31 0.04-0.45 0.11-0.14 0.06-0.28 0.14-0.42 0.24s-0.29 0.2-0.45 0.32-0.35 0.23-0.56 0.33c-0.2 0.09-0.43 0.18-0.7 0.25-0.28 0.06-0.59 0.1-0.94 0.1-1.64 0-2.46-0.97-2.46-2.91v-0.15c1.5-0.16 2.74-0.36 3.72-0.62s1.74-0.57 2.3-0.93c0.57-0.36 0.96-0.77 1.18-1.23 0.22-0.45 0.33-0.96 0.33-1.51 0-0.34-0.07-0.69-0.23-1.05s-0.41-0.69-0.74-0.97c-0.32-0.3-0.72-0.54-1.21-0.73-0.48-0.18-1.04-0.27-1.68-0.27zm-129.72 0.09c-0.1 0-0.21 0-0.31 0.02-0.41 0.04-0.8 0.18-1.19 0.43-0.38 0.24-0.75 0.58-1.11 1.02-0.35 0.43-0.69 0.95-1 1.56l0.09-2.01c0-0.33-0.09-0.58-0.27-0.73-0.17-0.15-0.41-0.23-0.72-0.23h-1.51l-1.49 12.33h2.91l0.66-5.46c0.44-1.79 1.02-2.98 1.75-3.59s1.59-0.71 2.57-0.3l0.54-2.83c-0.31-0.13-0.62-0.2-0.92-0.21zm-141.19 0.08l-0.92 7.81c-0.1 0.74-0.09 1.41 0.01 1.99 0.11 0.58 0.3 1.08 0.56 1.48 0.27 0.39 0.6 0.69 1.01 0.9 0.41 0.2 0.87 0.31 1.38 0.31 0.8 0 1.56-0.22 2.29-0.65 0.75-0.43 1.43-1.09 2.06-1.97l-0.07 1.42c0 0.68 0.35 1.02 1.05 1.02h1.5l1.49-12.31h-2.96l-0.76 6.32c-0.18 0.57-0.4 1.08-0.66 1.55-0.26 0.45-0.55 0.85-0.86 1.17-0.32 0.33-0.64 0.58-0.98 0.76-0.32 0.18-0.65 0.26-0.97 0.26-0.49 0-0.82-0.17-1.01-0.51-0.18-0.35-0.22-0.93-0.12-1.74l0.93-7.81h-2.97zm49.22 0l-1.48 12.31h2.91l1.48-12.31h-2.91zm40.92 0l3.11 11.36-2.74 4.97h2.2c0.22 0 0.41-0.05 0.56-0.16 0.15-0.09 0.29-0.25 0.4-0.45l8.14-15.72h-2.38c-0.16 0-0.32 0.05-0.47 0.15s-0.27 0.23-0.35 0.39l-3.03 6.38-0.29 0.62c-0.09 0.2-0.18 0.41-0.26 0.62-0.04-0.41-0.11-0.82-0.19-1.23l-1.51-6.38c-0.04-0.15-0.11-0.28-0.23-0.38-0.1-0.12-0.26-0.17-0.47-0.17h-2.49zm29.68 0l-0.93 7.81c-0.09 0.74-0.09 1.41 0.01 1.99 0.11 0.58 0.3 1.08 0.57 1.48 0.26 0.39 0.6 0.69 1.01 0.9 0.4 0.2 0.86 0.31 1.38 0.31 0.79 0 1.55-0.22 2.29-0.65s1.43-1.09 2.05-1.97l-0.07 1.42c0 0.68 0.35 1.02 1.05 1.02h1.5l1.49-12.31h-2.96l-0.76 6.32c-0.17 0.57-0.39 1.08-0.66 1.55-0.26 0.45-0.55 0.85-0.86 1.17-0.31 0.33-0.64 0.58-0.97 0.76s-0.66 0.26-0.98 0.26c-0.48 0-0.82-0.17-1-0.51-0.19-0.35-0.23-0.93-0.12-1.74l0.92-7.81h-2.96zm55.48 0l2.84 5.66-4.88 6.65h2.6c0.19 0 0.35-0.06 0.47-0.17 0.13-0.11 0.24-0.24 0.35-0.37l2.73-3.82c0.06-0.08 0.11-0.16 0.15-0.24 0.05-0.09 0.09-0.18 0.13-0.27l1.9 4.33c0.06 0.14 0.15 0.27 0.26 0.38 0.12 0.11 0.28 0.16 0.48 0.16h2.69l-3.16-6.65 4.32-5.66h-2.69c-0.25 0-0.47 0.14-0.64 0.42l-2.18 3.02c-0.07 0.1-0.13 0.21-0.19 0.3-0.05 0.1-0.11 0.19-0.15 0.29l-1.68-3.66c-0.07-0.14-0.14-0.23-0.23-0.29-0.09-0.05-0.24-0.08-0.43-0.08h-2.69zm129.76 0l3.11 11.36-2.74 4.97h2.2c0.23 0 0.41-0.05 0.56-0.16 0.16-0.09 0.29-0.25 0.4-0.45l8.14-15.72h-2.38c-0.16 0-0.31 0.05-0.47 0.15-0.15 0.1-0.26 0.23-0.34 0.39l-3.04 6.38-0.29 0.62c-0.09 0.2-0.17 0.41-0.26 0.62-0.04-0.41-0.1-0.82-0.18-1.23l-1.52-6.38c-0.04-0.15-0.11-0.28-0.22-0.38-0.11-0.12-0.27-0.17-0.48-0.17h-2.49zm-228.53 1.81c0.54 0 0.95 0.16 1.23 0.48s0.43 0.78 0.43 1.38c-0.01 0.35-0.06 0.7-0.16 1.04-0.09 0.34-0.24 0.64-0.43 0.91-0.18 0.28-0.41 0.5-0.69 0.66-0.27 0.17-0.58 0.26-0.94 0.26-0.52 0-0.92-0.17-1.2-0.51-0.28-0.33-0.42-0.81-0.42-1.43 0-0.36 0.04-0.7 0.13-1.04 0.1-0.34 0.24-0.63 0.42-0.89s0.41-0.47 0.68-0.62c0.27-0.16 0.59-0.24 0.95-0.24zm175.04 0.08c0.24 0 0.44 0.04 0.61 0.11 0.18 0.07 0.32 0.15 0.42 0.25 0.11 0.1 0.19 0.21 0.24 0.34 0.06 0.13 0.09 0.25 0.09 0.37 0 0.24-0.06 0.47-0.17 0.7-0.11 0.21-0.32 0.42-0.65 0.61-0.33 0.18-0.79 0.36-1.4 0.53-0.6 0.16-1.4 0.31-2.39 0.44 0.12-0.49 0.28-0.94 0.48-1.34 0.21-0.42 0.45-0.77 0.72-1.07 0.28-0.3 0.59-0.53 0.94-0.69 0.34-0.16 0.71-0.25 1.11-0.25zm19.17 0c0.24 0 0.45 0.04 0.61 0.11 0.18 0.07 0.32 0.15 0.42 0.25 0.12 0.1 0.2 0.21 0.24 0.34 0.06 0.13 0.09 0.25 0.09 0.37 0 0.24-0.06 0.47-0.17 0.7-0.1 0.21-0.32 0.42-0.65 0.61-0.32 0.18-0.79 0.36-1.4 0.53-0.6 0.16-1.4 0.31-2.39 0.44 0.12-0.49 0.28-0.94 0.48-1.34 0.21-0.42 0.45-0.77 0.72-1.07 0.28-0.3 0.59-0.53 0.94-0.69 0.34-0.16 0.71-0.25 1.11-0.25zm-300.42 0.03c0.1 0 0.2 0 0.29 0.01 0.11 0 0.21 0 0.33 0.01l-0.47 3.72c-0.18 0.62-0.39 1.19-0.63 1.73-0.23 0.53-0.49 1-0.78 1.4-0.28 0.39-0.58 0.71-0.9 0.94-0.31 0.22-0.63 0.33-0.96 0.33-0.47 0-0.84-0.2-1.11-0.6s-0.41-1.03-0.41-1.89c0-0.76 0.12-1.48 0.35-2.16 0.24-0.69 0.56-1.29 0.97-1.8 0.42-0.52 0.91-0.93 1.48-1.24 0.56-0.3 1.18-0.45 1.84-0.45zm59.07 0c0.09 0 0.19 0 0.28 0.01 0.11 0 0.22 0 0.33 0.01l-0.47 3.72c-0.18 0.62-0.38 1.19-0.62 1.73-0.24 0.53-0.5 1-0.78 1.4-0.28 0.39-0.58 0.71-0.9 0.94-0.31 0.22-0.64 0.33-0.96 0.33-0.48 0-0.85-0.2-1.12-0.6s-0.41-1.03-0.41-1.89c0-0.76 0.12-1.48 0.35-2.16 0.24-0.69 0.57-1.29 0.97-1.8 0.42-0.52 0.91-0.93 1.48-1.24 0.57-0.3 1.18-0.45 1.85-0.45zm138.09 0c0.1 0 0.19 0 0.29 0.01 0.1 0 0.21 0 0.32 0.01l-0.47 3.72c-0.17 0.62-0.38 1.19-0.62 1.73-0.23 0.53-0.49 1-0.78 1.4-0.28 0.39-0.58 0.71-0.9 0.94-0.31 0.22-0.63 0.33-0.96 0.33-0.47 0-0.84-0.2-1.12-0.6-0.27-0.4-0.4-1.03-0.4-1.89 0-0.76 0.11-1.48 0.34-2.16 0.24-0.69 0.57-1.29 0.98-1.8 0.41-0.52 0.9-0.93 1.47-1.24 0.57-0.3 1.19-0.45 1.85-0.45zm55.27 0c0.09 0 0.19 0 0.28 0.01 0.11 0 0.22 0 0.33 0.01l-0.47 3.72c-0.18 0.62-0.38 1.19-0.62 1.73-0.24 0.53-0.5 1-0.78 1.4-0.28 0.39-0.58 0.71-0.9 0.94-0.32 0.22-0.64 0.33-0.96 0.33-0.48 0-0.85-0.2-1.12-0.6s-0.41-1.03-0.41-1.89c0-0.76 0.12-1.48 0.35-2.16 0.24-0.69 0.56-1.29 0.97-1.8 0.42-0.52 0.91-0.93 1.48-1.24 0.57-0.3 1.18-0.45 1.85-0.45zm63.04 0c0.1 0 0.19 0 0.29 0.01 0.1 0 0.21 0 0.32 0.01l-0.46 3.72c-0.18 0.62-0.39 1.19-0.63 1.73-0.23 0.53-0.49 1-0.78 1.4-0.28 0.39-0.58 0.71-0.9 0.94-0.31 0.22-0.63 0.33-0.96 0.33-0.47 0-0.84-0.2-1.11-0.6s-0.41-1.03-0.41-1.89c0-0.76 0.11-1.48 0.35-2.16 0.24-0.69 0.56-1.29 0.97-1.8 0.42-0.52 0.91-0.93 1.47-1.24 0.57-0.3 1.19-0.45 1.85-0.45zm-49.36 0.14c0.35 0 0.69 0.06 1.05 0.18 0.35 0.12 0.66 0.33 0.93 0.62l-0.37 2.98c-0.19 0.61-0.42 1.18-0.7 1.7-0.26 0.53-0.55 0.99-0.86 1.38s-0.64 0.69-0.97 0.92c-0.34 0.21-0.67 0.32-0.99 0.32-0.5 0-0.9-0.21-1.19-0.62-0.28-0.43-0.42-1.07-0.42-1.94 0-0.66 0.09-1.32 0.26-1.98 0.16-0.66 0.4-1.26 0.71-1.78 0.31-0.53 0.68-0.96 1.11-1.29s0.91-0.49 1.44-0.49zm-126.53 0.02c0.69 0 1.2 0.24 1.54 0.71 0.33 0.47 0.5 1.2 0.5 2.2 0 0.69-0.08 1.36-0.23 1.99s-0.37 1.19-0.65 1.67c-0.28 0.47-0.62 0.85-1.02 1.14-0.4 0.28-0.84 0.42-1.34 0.42-0.7 0-1.21-0.23-1.55-0.7-0.33-0.47-0.5-1.21-0.5-2.21 0-0.7 0.07-1.37 0.23-2 0.15-0.63 0.36-1.18 0.64-1.66s0.62-0.86 1.02-1.14c0.41-0.28 0.86-0.42 1.36-0.42zm-33.95 9.43c0.55 0.02 1.18 0.09 1.89 0.21 0.02 0.1 0.03 0.2 0.04 0.31s0.02 0.21 0.02 0.33c0 0.31-0.07 0.6-0.22 0.87-0.14 0.27-0.35 0.51-0.61 0.71s-0.58 0.36-0.95 0.47c-0.36 0.11-0.77 0.17-1.22 0.17-0.8 0-1.4-0.13-1.79-0.38-0.38-0.24-0.57-0.61-0.57-1.09 0-0.27 0.09-0.53 0.29-0.77s0.52-0.43 0.94-0.57c0.43-0.15 0.97-0.23 1.64-0.25 0.17-0.01 0.35-0.01 0.54-0.01z"
     fill="url(#SVGID_1_)" /></svg>